ply
format ascii 1.0
comment VCGLIB generated
element vertex 500
property float x
property float y
property float z
property float nx
property float ny
property float nz
element face 1000
property list uchar int vertex_indices
end_header
0.0008365383 0.1856202 1.461339 -0.02866188 -0.3776652 -0.9254985 
-1.331172 0.3518714 -0.2418077 0.7167988 -0.6843781 0.1335147 
-1.266846 0.353218 -0.4711113 0.6852572 -0.676671 0.2693306 
-1.15529 0.4642273 -0.2196567 0.3125547 -0.9479644 0.06060558 
0.6507608 0.3558021 -0.05664852 0.7224266 -0.6893617 -0.0536687 
-0.1675916 0.3541726 -0.629405 -0.1729969 -0.7255861 -0.6660308 
0.2998776 0.001897468 0.4031464 0.5673836 -0.0396007 0.8225009 
0.04606241 -0.0003086636 0.500584 0.09457057 -0.03109154 0.9950325 
-0.4531357 0.004000882 -0.2187611 -0.9061874 0.02773057 -0.4219664 
0.434453 0.0003399696 -0.2499837 0.8587139 0.03853917 -0.5110041 
0.4691268 -0.1916489 -0.2664511 0.8084917 0.4025177 -0.4293258 
0.5274932 -0.1904772 -0.1181327 0.9052721 0.3803945 -0.1891623 
0.4546932 -0.351411 0.4626257 0.489311 0.7070733 0.5105117 
-0.0634004 -0.3619704 0.659415 -0.05758563 0.7782887 0.6252604 
-0.7842149 -0.4592046 -0.2010577 -0.3707643 0.924835 -0.08493562 
-1.123523 -0.4565702 0.4161652 0.4063379 0.9026951 -0.1415318 
-0.4457339 -0.3550777 1.273046 0.2172178 0.7362204 -0.6409338 
-1.332338 -0.3518076 0.2362445 0.683319 0.7185031 -0.1297253 
1.139881 -0.0008682385 0.9698479 -0.7556177 0.01213675 -0.6549004 
0.7430939 0.1829899 1.258441 -0.504502 -0.3071023 -0.8069485 
-1.127264 0.1686773 0.9361275 0.741767 -0.3079197 -0.5957913 
-0.503785 0.1953049 -1.369541 0.3239433 -0.4082308 0.8534685 
1.269054 0.1686059 -0.7333304 -0.8378748 -0.28107 0.4679375 
0.719227 0.2307267 1.241517 -0.4136637 -0.5360615 -0.7358807 
-0.2411689 0.3514348 1.331908 0.1345127 -0.7055289 -0.6957984 
-1.147848 0.4435258 -0.4090484 0.4783772 -0.8615342 0.1700414 
-0.8642352 0.3631164 -1.020851 0.4350955 -0.749306 0.4992318 
-0.002993656 0.3781394 -1.31597 0.00980207 -0.798124 0.6024136 
-0.001744285 0.4602925 -1.191122 0.009761993 -0.9159488 0.4011765 
0.8159999 0.496285 0.6087566 -0.05874299 -0.9967155 -0.05574494 
-0.8855408 0.4615446 0.7953336 0.2726831 -0.9256951 -0.2621691 
-0.77035 0.4986096 0.6421651 -0.01996915 -0.9995825 0.02088092 
-0.3947247 0.4694313 -1.083904 0.08292347 -0.9710318 0.2241004 
0.3756205 0.4622308 -1.1257 -0.116455 -0.9394202 0.3223785 
0.9966376 0.4977194 -0.1899005 -0.03915919 -0.9992285 0.00298035 
0.8394931 0.4685801 0.09419576 0.2504787 -0.9676452 0.03038521 
-0.617338 0.4607654 0.5248897 -0.3223919 -0.9115908 0.25508 
-0.8033484 0.4635521 0.1826583 -0.2839027 -0.9562706 0.07032593 
-0.2049433 0.4596526 -0.7842766 -0.09462133 -0.9250517 -0.3678669 
0.4831872 0.4601145 -0.6479948 0.2131258 -0.9291587 -0.3020622 
0.6618165 0.4618182 -0.4784595 0.2890034 -0.926798 -0.2398386 
0.7436994 0.4612493 -0.343053 0.3410651 -0.9257002 -0.1635654 
-0.2725499 0.3508621 0.5869976 -0.3087974 -0.732372 0.606857 
-0.5924246 0.3544146 0.2713932 -0.6044907 -0.733372 0.3110572 
-0.5619038 0.3517826 -0.3214456 -0.6083183 -0.7064218 -0.3618248 
-0.4603049 0.3499625 -0.4538537 -0.5039923 -0.7037202 -0.5007693 
0.2175299 0.3652153 -0.6219614 0.246642 -0.7348784 -0.6317606 
-0.1972972 0.1866348 0.5007325 -0.3496656 -0.4444715 0.8247297 
0.1213474 0.1940453 -0.5300261 0.1755595 -0.3929023 -0.9026664 
0.4056274 0.004382464 0.2959446 0.802807 0.05830867 0.5933811 
-0.4886294 0.1928514 0.2341263 -0.8462446 -0.3834023 0.3699632 
-0.5309298 -0.1902699 -0.09263304 -0.9189488 0.3607607 -0.1593267 
0.6502064 -0.3555623 0.0114059 0.7052355 0.7088724 -0.01194937 
0.1400381 -0.1905094 0.5233309 0.2390162 0.3835687 0.8920462 
0.2738573 -0.353338 0.5904282 0.3009597 0.7321296 0.6110724 
-0.1988457 -0.2702303 0.5544347 -0.2820619 0.5533367 0.7837471 
-0.2831161 -0.351777 -0.5835355 -0.3251953 0.7089648 -0.6257932 
0.2218224 -0.3527595 -0.608324 0.2300081 0.7277055 -0.6461741 
-0.2268426 -0.3643166 0.6223823 -0.225845 0.7463453 0.6260694 
-0.5330594 -0.3558141 0.3791986 -0.5425265 0.7318833 0.412325 
-0.1160347 -0.3551883 -0.6387711 -0.1293111 0.7087743 -0.6934823 
0.5712516 -0.4602994 -0.5756012 0.2251237 0.9463437 -0.2318467 
0.48808 -0.4964144 -0.8546695 0.03686634 0.996719 -0.0720563 
0.636917 -0.4958491 -0.7492269 0.04279014 0.9980332 -0.04581315 
-1.03668 -0.4929006 -0.0663174 0.1489831 0.9887275 0.01489821 
0.593186 -0.461076 -1.033049 -0.2151978 0.8972513 0.3855258 
0.4608356 -0.3528913 1.27145 -0.2370325 0.6777514 -0.6960379 
-0.8444623 -0.374975 -1.015265 0.3864246 0.7854814 0.4834203 
-0.6855595 -0.3401523 -1.175481 0.3947132 0.6563186 0.6429988 
-0.3969392 -0.4519239 -1.136869 0.1377309 0.8987834 0.4161954 
-0.482022 -0.3444766 -1.268659 0.2633182 0.6528156 0.7102783 
1.169881 -0.4613571 -0.2122595 -0.3970456 0.9152135 0.06884208 
-1.098369 -0.2773852 -0.8756587 0.6516798 0.5607063 0.5108052 
0.7313876 -0.1976844 -1.261207 -0.4447544 0.4171962 0.7925534 
0.501738 -0.1917357 -1.371293 -0.3079832 0.3423629 0.8876565 
1.405744 -0.004947365 0.5134823 -0.9375459 0.05103189 -0.344098 
1.375785 0.1712876 0.5032929 -0.8973533 -0.2950638 -0.3281683 
1.115898 0.1907781 0.941916 -0.7042037 -0.3694912 -0.6062784 
0.9539631 0.1102489 1.129595 -0.6393557 -0.2181061 -0.737329 
0.7516901 0.003274717 1.294679 -0.4751789 -0.03061862 -0.8793563 
0.5101703 0.02194802 1.404816 -0.3231977 -0.1043786 -0.9405575 
0.2532283 0.01633717 1.473724 -0.1733137 -0.05192139 -0.9834971 
-1.376615 0.1689788 -0.5011419 0.9025835 -0.2581522 0.3445295 
-1.148057 -0.005254883 -0.9621972 0.7622409 0.07376331 0.6430768 
0.5224155 -0.002056311 -1.402519 -0.3453175 0.009701427 0.9384358 
-0.7192558 0.1923276 1.268914 0.4379025 -0.4174492 -0.796227 
0.0064839 0.3349341 -1.364792 -0.0009639725 -0.6344262 0.7729829 
-0.2353157 0.3363761 -1.343742 0.1267791 -0.637773 0.7597188 
0.04890643 0.1911137 -1.456817 -0.05507241 -0.415093 0.9081106 
-0.8610548 0.3555209 1.03792 0.4554082 -0.7197067 -0.5240474 
-1.036284 0.3615443 0.8475646 0.5137095 -0.7506447 -0.4154938 
-1.276242 0.3535461 0.4418051 0.656559 -0.7202886 -0.2238632 
-1.210999 0.4363515 0.2092973 0.5277205 -0.8451138 -0.08540447 
0.6015166 0.4583351 -1.034932 -0.232183 -0.8881197 0.3966542 
1.177823 0.3533491 -0.6628677 -0.6105347 -0.7144268 0.3418214 
0.8908061 0.4613057 0.786402 -0.3080367 -0.9090776 -0.2805199 
0.5610448 0.4936472 0.8654276 -0.07905701 -0.9905733 -0.1118682 
-0.5919509 0.4983272 0.8108937 0.0083323 -0.9998028 -0.01802622 
-0.5758973 0.4984741 -0.824398 0.02512245 -0.9988107 0.04178551 
0.1027566 0.498752 -0.9973019 0.006620166 -0.9995949 0.02768057 
0.6183298 0.4920519 -0.8393134 -0.09663107 -0.9861434 0.134847 
1.188493 0.4603543 -0.1255742 -0.4382409 -0.8977706 0.04419196 
0.7581305 0.4572287 0.2677694 0.3619935 -0.9215386 0.1404542 
-0.2316602 0.4977551 0.96506 -0.01262666 -0.9983525 0.05597093 
-0.9013165 0.4976217 0.4366367 0.0008283881 -0.9999995 -0.0006301875 
-0.9158274 0.4981842 -0.4071748 -0.02976037 -0.9994927 -0.01134751 
-0.6693494 0.4604174 -0.4603175 -0.3158714 -0.9237925 -0.2164088 
0.8997353 0.4968415 -0.4215208 0.04167188 -0.9988464 -0.02386523 
0.6441322 0.4523211 0.470978 0.336356 -0.9092592 0.2451784 
-0.06559346 0.4612652 0.811684 -0.03062821 -0.9220747 0.385798 
-0.760494 0.4509149 0.22878 -0.488707 -0.8613546 0.1386856 
-0.6491699 0.3536201 -0.04702085 -0.7304535 -0.6812079 -0.04892354 
-0.3277014 0.3522751 -0.5582458 -0.3792412 -0.6756637 -0.6321824 
-0.06464148 0.1914086 -0.5367742 -0.09784302 -0.4273878 -0.8987582 
0.4914956 0.3525665 -0.421471 0.5442353 -0.7102691 -0.4464591 
0.4854375 -0.004179507 0.1343594 0.9638936 -0.02317635 0.2652773 
-0.5355223 0.1915779 0.07358903 -0.8948133 -0.432164 0.1119981 
-0.4936904 0.001128567 -0.08780654 -0.9785543 -0.04745968 -0.2004472 
-0.5348904 0.1938234 -0.07876527 -0.9288826 -0.359354 -0.08967617 
-0.4348762 0.1857418 -0.3189734 -0.7537319 -0.4090614 -0.5143511 
-0.2277651 0.1924695 -0.4922843 -0.3534048 -0.391189 -0.8497507 
0.3860494 0.001105372 -0.3199864 0.7669168 -0.04550586 -0.6401311 
0.5095336 -0.1920729 0.1794016 0.856277 0.3856704 0.3435811 
0.5385823 -0.190687 0.05237164 0.9191846 0.3841814 0.08662825 
0.171288 0.001689789 0.4712569 0.3512368 -0.003067068 0.9362817 
-0.1290265 -0.001940635 0.4867094 -0.283699 -0.0305676 0.9584261 
-0.412984 -0.002138072 0.2878066 -0.8054994 -0.004800865 0.5925772 
-0.5060344 -0.1896115 -0.1851636 -0.848482 0.4184723 -0.3239744 
-0.3583702 -0.004899445 -0.3517559 -0.716864 0.002440366 -0.6972087 
-0.04629325 -0.1921282 -0.5400625 -0.07821654 0.3648928 -0.9277583 
0.2712278 -0.1929714 0.4674316 0.5262412 0.3921009 0.7545377 
0.1161686 -0.3531797 0.6375604 0.1005786 0.7245734 0.6818192 
0.2999721 -0.1851785 -0.448281 0.4800294 0.4452202 -0.7558776 
0.2682678 -0.4619337 -0.7671713 0.1142739 0.9385875 -0.3255689 
0.5591491 -0.3523929 -0.3262306 0.5967351 0.733927 -0.3244355 
0.2204944 -0.4602082 0.7806705 0.1026645 0.9239922 0.3683727 
0.4165774 -0.4957296 0.895503 0.03052452 0.9976417 0.06147613 
-0.0807001 -0.4957654 0.9794366 -0.01392487 0.9931456 0.1160517 
-0.2285224 -0.4621221 0.7846885 -0.1016607 0.9261244 0.3632612 
-0.7605693 -0.4605121 0.2756478 -0.3573156 0.9229789 0.1429527 
-0.7939566 -0.4579668 0.1322548 -0.4151528 0.9073156 0.06653353 
-0.8127642 -0.4614192 -0.01443536 -0.345358 0.9384202 -0.009768089 
-0.9691369 -0.4957649 -0.1529815 -0.1027053 0.99463 -0.01275781 
-0.9267506 -0.4978776 -0.3760156 -0.02625648 0.9995515 -0.01440091 
-0.2005707 -0.4619569 -0.7913048 -0.09918901 0.9275301 -0.3603465 
-0.1027335 -0.4954149 1.02054 0.00989934 0.9918248 -0.1272226 
-0.5560293 -0.4978933 0.8334187 -0.02862396 0.9991744 0.02883421 
-1.116355 -0.4617031 -0.4051901 0.2942347 0.9490889 0.1124998 
0.2920403 -0.462294 -1.150467 -0.09285218 0.9275825 0.3618966 
0.4160323 -0.4925004 -0.9531474 -0.07348239 0.9875249 0.1392654 
0.7662631 -0.4927816 -0.7006161 -0.09454114 0.9902968 0.1018539 
0.9580758 -0.4971896 -0.3105596 -0.006938774 0.9999332 0.009247285 
0.6660591 -0.3536758 1.175663 -0.3430035 0.7080907 -0.6172165 
-0.6845335 -0.3511961 1.167443 0.3598447 0.6861389 -0.6322383 
-1.273863 -0.3500913 0.4570624 0.6389093 0.7298819 -0.2430378 
-0.6065558 -0.4418571 -1.058967 0.2555281 0.8553454 0.4506547 
-0.08637749 -0.4597086 -1.194614 0.01725757 0.9143869 0.4044734 
0.2249516 -0.3741981 -1.302758 -0.08461253 0.7989475 0.5954189 
1.302929 -0.3737442 -0.2256866 -0.596572 0.7952179 0.1083072 
1.34288 -0.3517373 0.1327965 -0.7336637 0.6770197 -0.0581557 
1.436177 -0.192628 0.2578128 -0.9198845 0.3599013 -0.1558321 
0.9178914 -0.1898204 1.134323 -0.571683 0.3796535 -0.7273527 
0.2416484 -0.3522688 1.329746 -0.1287588 0.7397718 -0.6604233 
0.2544962 -0.2048044 1.429319 -0.1525552 0.4637576 -0.8727289 
-1.035085 -0.3538888 0.8687969 0.5620762 0.6872864 -0.4601173 
-1.178548 -0.3500804 0.6645613 0.6479751 0.6762496 -0.3504496 
-1.438245 -0.1927223 0.2418865 0.9146881 0.383312 -0.1281312 
-0.9360354 -0.1964849 -1.117467 0.5957618 0.3877297 0.7033731 
-0.7302905 -0.1905968 -1.264742 0.4593382 0.3540446 0.8146539 
-0.2475493 -0.1912398 -1.438794 0.1303119 0.3836823 0.9142247 
0.0008211524 -0.3384039 -1.361947 0.003552706 0.6569326 0.7539409 
-1.296933 0.0003588703 0.7496858 0.8582892 0.03023468 -0.5122748 
-1.26146 -0.1930353 0.7331048 0.7780704 0.4217162 -0.465577 
0.1788036 -0.1907926 -1.444958 -0.09875136 0.3828499 0.9185174 
1.435876 0.1923526 0.2562419 -0.8990282 -0.4039441 -0.169049 
1.293157 -0.02351461 0.7490926 -0.855619 0.1504747 -0.4952509 
0.9497762 0.0004871004 1.156849 -0.6229395 0.03398437 -0.7815315 
0.5053222 0.1920459 1.369024 -0.347818 -0.3723388 -0.8604571 
-0.4998955 0.0001267321 1.410889 0.3226728 0.03714266 -0.9457815 
-1.36585 0.1905897 0.5143024 0.8475215 -0.4173886 -0.327863 
-1.497057 -0.001327366 -0.005355 0.9989413 0.04343521 -0.01515366 
-1.11535 0.1897489 -0.9422767 0.7093246 -0.3767336 0.5957603 
-0.7309778 0.1880705 -1.265328 0.4889725 -0.3736041 0.7882423 
-0.2478 0.1726111 -1.445487 0.1655495 -0.2972648 0.9403334 
0.2685446 0.1795838 -1.440413 -0.172171 -0.3004172 0.93814 
0.01513963 0.009071497 -1.495651 -0.04590245 -0.1000534 0.9939227 
0.95061 0.003730938 -1.156465 -0.6258147 -0.05038923 0.7783424 
1.357661 0.208007 -0.506595 -0.8104557 -0.4959493 0.3117628 
1.450554 0.2038016 0.02880745 -0.9019433 -0.4312362 -0.02310202 
1.319392 0.278417 0.4813959 -0.7871345 -0.5380234 -0.3015795 
1.170267 0.3540053 0.6744034 -0.6398828 -0.6843325 -0.3496271 
0.007318634 0.3511192 1.353774 -0.000179646 -0.7051307 -0.7090774 
-0.6777471 0.3518219 1.170629 0.3523475 -0.7098849 -0.6098481 
-1.042736 0.3375198 -0.8770396 0.5716847 -0.6505135 0.5000088 
-1.17201 0.3514659 -0.6762568 0.6033462 -0.7088646 0.3653553 
1.242931 0.2204187 -0.7294434 -0.7375253 -0.5082143 0.4447186 
1.329204 0.3506618 -0.2614821 -0.7196964 -0.6782088 0.1485593 
0.6167777 0.4640679 1.003853 -0.1674604 -0.9305244 -0.3257014 
0.4657704 0.3573976 1.264949 -0.249693 -0.6985089 -0.6706257 
0.236384 0.3519985 1.332058 -0.1146719 -0.6745813 -0.7292396 
-0.2969961 0.4622195 1.152933 0.1095406 -0.927927 -0.3563038 
-1.013047 0.3747979 -0.8485316 0.4499785 -0.8087334 0.378774 
-0.5891275 0.4607823 -1.035358 0.1900817 -0.9146848 0.3566801 
-0.2489142 0.3700147 -1.303587 0.1182213 -0.7964991 0.5929696 
-0.1919801 0.4638029 -1.163048 0.05677716 -0.9510576 0.3037529 
0.4744768 0.353642 -1.264213 -0.2481758 -0.7232258 0.6444791 
0.7727486 0.4570473 -0.9148576 -0.2852458 -0.9010997 0.3265796 
0.9961047 0.4980372 0.1249607 0.02699321 -0.9996356 -1.218848e-05 
1.024194 0.4646837 0.5969938 -0.3486361 -0.916378 -0.1967344 
0.7374534 0.4618166 0.9313747 -0.2335917 -0.9266539 -0.2945295 
0.5423096 0.4960413 0.8234853 0.06591471 -0.9943911 0.08271342 
0.356183 0.4980745 0.9376925 -0.002769431 -0.9999928 -0.002570723 
0.01274337 0.4978996 1.008976 0.003421536 -0.999715 -0.02362634 
-1.173442 0.4638626 0.1031493 0.3084386 -0.9508895 -0.02597664 
-1.061409 0.4658706 -0.4937647 0.2563101 -0.9589964 0.1209594 
0.5718769 0.4959228 -0.8050259 0.04773401 -0.9958202 -0.07786904 
0.3295444 0.4980666 -0.9446524 -0.01356621 -0.9990034 0.04252261 
0.9258321 0.4987343 0.3760611 0.02534453 -0.9996563 0.006710066 
0.7402795 0.4833089 0.5297641 0.1583263 -0.9800749 0.1199411 
0.4030985 0.4566884 0.6895762 0.2181276 -0.9116138 0.3483974 
-0.3118936 0.4543212 0.7370732 -0.1516923 -0.9185883 0.3649451 
-0.8317177 0.4658299 -0.07027332 -0.2425225 -0.9699042 -0.02164677 
-0.7576658 0.4605848 -0.2862395 -0.3519479 -0.9283674 -0.1194432 
-0.2720875 0.4977415 -0.9661655 -0.008730975 -0.9993665 -0.03450419 
0.07372681 0.4599974 -0.809327 0.03145966 -0.9140812 -0.4043094 
0.3670038 0.4637972 -0.7382205 0.1192156 -0.9537747 -0.2758651 
0.7572492 0.4481862 -0.2293979 0.479935 -0.8680751 -0.1269173 
0.7949677 0.4518234 0.0701038 0.4460189 -0.8946711 0.02511615 
0.6259889 0.3521281 0.170366 0.6460209 -0.7389166 0.1914661 
0.55022 0.3691991 0.3885603 0.4594984 -0.8145621 0.3540477 
0.2248876 0.3492703 0.6050982 0.2323669 -0.7026927 0.6724795 
0.3702495 0.3458863 0.5303981 0.4515933 -0.6648898 0.5949665 
-0.1518383 0.3439651 0.6224898 -0.1588555 -0.7009453 0.6952989 
-0.4138633 0.349889 0.4951551 -0.4655558 -0.6590353 0.5907032 
-0.5031843 0.3554516 0.4123496 -0.518962 -0.7378333 0.4316023 
-0.6395569 0.3530194 0.1049242 -0.6957606 -0.7061026 0.1316673 
-0.796526 0.4524278 -0.05456202 -0.4685507 -0.8831336 -0.02313292 
-0.4502632 0.4591893 -0.6741474 -0.2184202 -0.9116809 -0.3480381 
0.05428244 0.3530786 -0.6483793 0.0477368 -0.6797363 -0.7319015 
0.5672027 0.3560466 -0.3231756 0.5901593 -0.7445924 -0.3119204 
0.6083636 0.3519472 -0.2183807 0.6879011 -0.6799527 -0.2538828 
0.5226041 0.3376152 0.3660231 0.6493672 -0.6347056 0.4188928 
0.06912421 0.1918751 0.536235 0.1368849 -0.4211075 0.8966221 
0.04632336 0.3516445 0.647695 0.04399538 -0.7052305 0.7076119 
-0.3276952 0.1919672 0.4298354 -0.5269852 -0.3501723 0.774381 
-0.3456811 0.1919252 -0.4149098 -0.5747823 -0.385238 -0.7219536 
0.2704653 0.1935593 -0.4685287 0.4410762 -0.3885211 -0.8090137 
0.36971 0.3460666 -0.5258411 0.4234703 -0.6994786 -0.5756758 
0.3836592 0.1942803 -0.3841637 0.644398 -0.3859015 -0.6601752 
0.4666952 0.1932591 -0.2718236 0.7936196 -0.3881439 -0.4685214 
0.5399293 0.1914434 -0.04349416 0.9436245 -0.3254296 -0.06056808 
0.3135427 0.193283 0.442017 0.5416071 -0.3921884 0.7435388 
-0.05362669 0.1931515 0.5397503 -0.09610766 -0.3827894 0.9188229 
-0.4129774 0.1935955 0.3488908 -0.6929184 -0.4131237 0.5909254 
-0.5012715 -0.005119462 0.006005671 -0.9962641 0.08384455 0.02068897 
0.2888882 -0.0001308408 -0.4114356 0.5634643 0.02091507 -0.8258756 
0.501388 0.006387909 -0.03922031 0.9970629 0.04054596 -0.0649752 
0.4300812 -0.1909756 0.330837 0.7110835 0.4283126 0.5575918 
-0.2911127 0.002762066 0.410064 -0.5756628 0.0001539935 0.8176872 
-0.3143367 -0.190768 0.4407395 -0.5556492 0.4018527 0.7278519 
-0.3481809 -0.1918555 -0.4123249 -0.5780764 0.3844377 -0.7197468 
-0.216197 0.004169539 -0.4549774 -0.4403586 0.02680598 -0.8974218 
0.1360656 -0.1882412 -0.5225183 0.2568908 0.3877161 -0.885259 
-0.02974587 -0.1835148 0.5375096 -0.07911859 0.3576337 0.9305044 
-0.4450482 -0.1953204 0.3109069 -0.7828696 0.3933104 0.4821017 
-0.5222304 -0.1948553 0.1470888 -0.9049422 0.3555445 0.2338116 
-0.625896 -0.353647 0.1801152 -0.6924586 0.6930192 0.2005628 
-0.6482105 -0.3535476 -0.001374708 -0.683313 0.7300119 -0.01288857 
-0.6276466 -0.35223 -0.1601862 -0.6831046 0.7049243 -0.1909187 
-0.5657642 -0.3520079 -0.31423 -0.6517701 0.6726101 -0.3504161 
0.3174618 -0.3512875 -0.5631741 0.3643622 0.7009434 -0.613122 
0.4123069 -0.1863799 -0.3465366 0.7182173 0.3161232 -0.6198629 
0.6281301 -0.3513133 -0.1602359 0.7054695 0.6787356 -0.2040364 
0.7653989 -0.4617143 0.2728783 0.356387 0.9248708 0.1326738 
-0.3723622 -0.3510584 0.5295925 -0.4028669 0.6887062 0.6028118 
-0.7002622 -0.4609247 -0.4058684 -0.3568825 0.9138086 -0.1938782 
-0.633185 -0.4597341 -0.5008538 -0.265381 0.9372265 -0.2262287 
-0.4598984 -0.3488995 -0.4558639 -0.4962099 0.7278038 -0.473368 
0.3994119 -0.4577449 -0.6983669 0.2276523 0.8940161 -0.385888 
0.7025105 -0.4601149 -0.4003581 0.3589298 0.9075375 -0.2180485 
0.7922814 -0.461842 -0.1851215 0.3933924 0.9138348 -0.10074 
0.9186647 -0.4977911 0.4049869 -0.006948401 0.9999706 -0.003241709 
0.1565882 -0.4963238 0.9745208 0.009791571 0.9971332 0.07502978 
-0.4674471 -0.4609686 -0.6671059 -0.2143149 0.9240507 -0.3165428 
-0.5864342 -0.4979932 -0.8133409 -0.007589297 0.9999712 0.000206033 
-0.3632915 -0.4972817 -0.9329267 -0.01578144 0.9991342 -0.0384934 
0.07192787 -0.4600639 -0.8089677 0.02804369 0.9155354 -0.4012588 
0.220734 -0.4978898 -0.9813499 0.002589618 0.999937 0.01092495 
0.8520041 -0.4971437 0.5434321 -0.03894486 0.998961 -0.02366986 
1.035356 -0.4589391 0.5953353 -0.3559803 0.9132587 -0.1980823 
0.2769006 -0.4925923 1.00068 -0.03451523 0.9913831 -0.1263657 
0.1971149 -0.4617964 1.170373 -0.04824941 0.9261327 -0.3740993 
-0.4067301 -0.4602339 1.120251 0.1370011 0.9242872 -0.3562639 
-1.173343 -0.4605024 0.20502 0.3440012 0.9376361 -0.05001721 
-1.177157 -0.4610648 -0.1797868 0.4225802 0.9041081 0.06336041 
-0.1705938 -0.4985639 -0.9994594 0.01548865 0.9991449 0.03833573 
1.018958 -0.495491 -0.03642137 -0.1571767 0.9875119 0.01075692 
1.329149 -0.3541176 0.2419005 -0.6888422 0.7115952 -0.1383067 
1.029892 -0.3534228 0.8739267 -0.5201134 0.7270374 -0.4482174 
-0.2201543 -0.3522701 1.334213 0.1282512 0.6572852 -0.7426492 
-1.26486 -0.4134976 0.007184606 0.5604529 0.8281827 -0.002438839 
-1.268524 -0.3546131 -0.462535 0.6149544 0.7584118 0.2159688 
-0.7776545 -0.4608161 -0.9006941 0.2487334 0.925424 0.2858709 
-0.9022748 -0.3427538 -1.014178 0.5227426 0.6319643 0.5721549 
-0.2316023 -0.3394625 -1.341491 0.1337509 0.6585614 0.7405455 
0.6772382 -0.3575032 -1.15965 -0.3570442 0.7049674 0.6128136 
0.9660809 -0.4088777 -0.827243 -0.4140367 0.8372956 0.3570851 
1.25464 -0.3609902 0.4804772 -0.6254296 0.7435217 -0.2366714 
-1.360959 -0.3399922 0.00139172 0.7555676 0.6549774 0.01105307 
-1.339758 -0.338187 -0.2472499 0.7605814 0.6319538 0.1488305 
-1.109592 -0.1954558 -0.944258 0.6893589 0.4160134 0.5930574 
1.340591 -0.3393364 -0.2370239 -0.7495805 0.6442473 0.1519034 
1.371469 -0.1984317 -0.4932418 -0.8574058 0.4199188 0.2975288 
1.457288 -0.1936965 -0.003111063 -0.9223897 0.3861507 0.009208295 
0.5138797 -0.03504623 1.400979 -0.3384483 0.1320335 -0.9316759 
-0.008427848 -0.1907054 1.459078 -0.001125726 0.3926624 -0.919682 
-0.5043607 -0.1906199 1.370552 0.32265 0.407468 -0.8543225 
-1.141828 -0.002350808 0.9685871 0.7464377 0.007154098 -0.6654169 
-1.475186 -0.005066969 0.2598346 0.9847531 0.006982816 -0.173818 
-1.264256 -0.1861573 -0.7296771 0.7898228 0.3752871 0.4851182 
0.009767296 -0.1902763 -1.459834 -0.02856429 0.383337 0.9231668 
1.475173 -0.001610159 0.2621001 -0.9802749 -0.03610848 -0.1943123 
-1.437437 0.1787344 0.2739284 0.9081019 -0.3697028 -0.1966494 
-1.436876 0.1897413 -0.260096 0.919119 -0.3440654 0.1919359 
1.439157 0.1905778 -0.2444729 -0.9082602 -0.3927059 0.1443796 
1.352592 0.3525569 -0.0006358376 -0.7342921 -0.6786341 0.01646032 
1.258529 0.193672 0.7360018 -0.7803355 -0.434871 -0.4494039 
-1.177298 0.3464011 0.6751049 0.6506873 -0.6612561 -0.3732916 
0.8825409 0.3528342 1.023043 -0.4726422 -0.7094786 -0.5227327 
-0.5997585 0.4607104 1.02945 0.2177347 -0.9110284 -0.3501699 
-1.336686 0.3442145 0.2455525 0.7385182 -0.6632952 -0.120956 
-1.349749 0.3546584 0.008318041 0.6623207 -0.7492176 -0.002086161 
-1.216811 0.4322861 -0.2117747 0.5217803 -0.8490797 0.08251754 
-1.0335 0.4604658 0.5929743 0.3559871 -0.9116064 -0.2055407 
1.036804 0.462776 -0.5727443 -0.3065218 -0.9398866 0.150524 
-0.5217359 0.4612322 0.6204658 -0.2596927 -0.9124877 0.3161103 
-0.9992997 0.4987374 -0.09501239 0.03846263 -0.9992597 0.0008559686 
0.5102122 0.4616825 0.630942 0.2264546 -0.9392259 0.2580177 
0.2147538 0.4595141 0.7806242 0.09284992 -0.9224022 0.3749042 
0.4407387 0.1926497 0.3145211 0.7482411 -0.35931 0.5577021 
-0.5081598 0.1931154 -0.1842813 -0.8814322 -0.3455856 -0.3219439 
-0.1809079 -0.1771718 0.5045005 -0.3344033 0.3152854 0.888127 
-0.445746 -0.1899002 -0.3066809 -0.7542821 0.3843296 -0.5323057 
0.554538 -0.3489117 0.3253555 0.619585 0.7041826 0.3467583 
0.4077817 -0.4624704 0.7062526 0.1695614 0.9395823 0.2973786 
-0.00773159 -0.4609574 0.8103051 0.00445632 0.923415 0.3837772 
-0.6592072 -0.459478 0.4686705 -0.2537085 0.9480941 0.1917016 
-0.1870031 -0.4609064 1.175564 0.06301134 0.8992858 -0.4327986 
-0.9068127 -0.498649 0.4373678 0.05027098 0.9984446 -0.02410683 
0.9852276 -0.4636649 -0.6581731 -0.3002061 0.930599 0.2094322 
1.184395 -0.4627061 0.04382627 -0.4037342 0.9146134 -0.02193227 
1.171779 -0.3526893 0.6739055 -0.6499936 0.6587375 -0.3789106 
0.4648342 -0.4619979 1.096293 -0.1534249 0.9147445 -0.3737691 
0.00346997 -0.3567743 1.348603 -0.01501751 0.7137427 -0.700247 
-0.4696997 -0.363838 -1.250952 0.2321499 0.7816213 0.5789427 
0.4602199 -0.3640948 -1.254726 -0.2118555 0.7713849 0.6000689 
1.113684 -0.4613293 -0.4183314 -0.3477723 0.9266434 0.142781 
-1.123565 -0.1915619 0.9306276 0.7297191 0.3459314 -0.5897809 
-1.459392 -0.1904734 -0.01186349 0.9390568 0.3431479 0.02054111 
-1.035118 -0.3570796 -0.8606302 0.4970364 0.753396 0.4305222 
0.9334652 -0.1923551 -1.122422 -0.6067374 0.318232 0.7284217 
1.265668 -0.1905673 -0.728052 -0.8224921 0.3436789 0.4532015 
-0.2570284 -0.186934 1.438606 0.1654782 0.3165762 -0.9340217 
-0.7548248 -0.0004769849 1.293668 0.4993793 -0.0005829633 -0.8663833 
0.2776884 -0.1904839 -1.432396 -0.1862307 0.4210836 0.8876974 
-0.2516879 0.1931789 1.437336 0.1328533 -0.3805453 -0.9151696 
-0.9565939 0.001897936 -1.151736 0.6327804 -0.02617179 0.7738889 
-0.7543509 -0.0005011389 -1.292868 0.4844005 -0.03578716 0.8741141 
-0.8846717 0.3167378 -1.055967 0.5111346 -0.591015 0.6240535 
-0.6823493 0.3220739 -1.192317 0.3872385 -0.5992948 0.7006369 
0.4929514 0.1903848 -1.374604 -0.3201504 -0.3796576 0.8679653 
0.9353956 0.2001352 -1.113605 -0.591817 -0.4148588 0.6911186 
1.119485 0.1888776 -0.9387108 -0.7142108 -0.3916509 0.580097 
1.030649 0.3543663 -0.8722737 -0.5493292 -0.6879496 0.4743025 
1.058708 0.3537042 0.8383003 -0.5562903 -0.7088581 -0.4336603 
-0.6800863 0.3591407 -1.156325 0.3502246 -0.7490416 0.5623872 
-0.4240263 0.4531288 -1.12531 0.1445531 -0.8849385 0.4427057 
0.1997899 0.4601695 -1.175056 -0.07180648 -0.9117534 0.4044127 
-0.004397727 0.4619091 1.189104 0.01234142 -0.9087942 -0.4170622 
0.8630397 -0.3520207 1.041021 -0.4745861 0.6581657 -0.5844536 
-0.6464224 -0.46263 0.9976401 0.1985581 0.9361615 -0.2901317 
-0.02017241 -0.3707733 -1.325436 0.01766249 0.7829146 0.6218784 
0.4752448 -0.3272815 -1.285089 -0.2756822 0.6025052 0.7489906 
0.8758821 -0.3267971 -1.053512 -0.5093519 0.6054886 0.6115099 
1.435292 -0.1942009 -0.2538896 -0.8967981 0.4197146 0.1399747 
1.265596 -0.1917547 0.7248476 -0.7987153 0.3877123 -0.4601446 
0.974638 -0.1918442 1.083118 -0.6407687 0.3791521 -0.6675771 
-1.401227 0.002303086 0.5288281 0.9349991 -0.06607994 -0.3484396 
-1.438198 -0.1901831 -0.2523403 0.9094496 0.3822715 0.1636156 
-0.002517143 -0.03477028 -1.492039 0.02308067 0.1394755 0.9899565 
1.499238 0.005613016 0.000861984 -0.9992197 -0.03679362 -0.01436276 
0.7508536 0.001215918 -1.295751 -0.4984605 0.0003356666 0.8669124 
1.401485 -0.0006186908 -0.5276384 -0.9287921 0.002926974 0.3705896 
-1.365613 0.2068479 -0.4886692 0.8284935 -0.480767 0.2871612 
-0.9434384 0.1869539 -1.115292 0.5979493 -0.3729199 0.709498 
0.2517976 0.4631056 1.16017 -0.08405221 -0.9173133 -0.3891934 
-0.2351658 -0.3741922 -1.300018 0.122305 0.7891631 0.601883 
1.1566 -0.3655481 -0.665077 -0.5321707 0.7866322 0.3130564 
1.121858 -0.1887249 0.9355814 -0.7259706 0.382505 -0.5715388 
0.2586586 -0.09070536 1.459909 -0.1689233 0.1934985 -0.9664488 
-0.9701949 -0.001770723 1.140845 0.6457796 0.005978982 -0.7635005 
-1.37227 -0.1904185 0.498937 0.8679668 0.3830861 -0.3160359 
1.295557 0.01343214 0.7488432 -0.8591213 -0.1129433 -0.4991536 
0.927198 0.2058809 1.114914 -0.5504428 -0.4633054 -0.6945221 
0.262738 0.1902695 1.435542 -0.1889972 -0.3850933 -0.9033179 
-0.006341241 -0.002359688 1.497592 0.01462275 0.0198133 -0.9996967 
-0.2583919 0.002801414 1.474626 0.1897717 -0.04319991 -0.9808774 
-0.937858 0.1895241 1.120071 0.5981291 -0.3716011 -0.7100382 
-1.266342 0.1873738 0.7261813 0.8057103 -0.3663414 -0.4654298 
-1.475784 0.0007739712 -0.2549768 0.9897956 -0.0008704954 0.1424922 
-1.460036 0.1912166 0.007496605 0.9253846 -0.3790077 -0.004060472 
-1.299036 -0.0003239635 -0.7464594 0.8728788 -0.02477953 0.4873074 
-1.26578 0.1879604 -0.7290113 0.8033889 -0.4087939 0.4329594 
-0.5100399 -0.005090927 -1.407375 0.3415267 0.009102054 0.939828 
-0.009917626 0.0184695 -1.494727 0.05484258 -0.08989052 0.9944406 
0.2605752 -0.01913213 -1.472215 -0.1589645 0.1015748 0.9820453 
0.7277101 0.1886179 -1.266564 -0.4636547 -0.3826492 0.799127 
1.136956 0.005733372 -0.9751306 -0.7532243 -0.03209235 0.6569804 
1.380251 0.1737101 -0.486524 -0.9105844 -0.2712914 0.3118285 
1.3317 0.3528055 0.2387161 -0.6921676 -0.7143766 -0.1028111 
1.277099 0.3529016 0.4438488 -0.6620851 -0.7144428 -0.2263072 
-0.4970823 0.1865454 1.374046 0.3101556 -0.3518644 -0.8831732 
-1.08323 0.2653432 0.9073963 0.6423391 -0.5480222 -0.5357912 
-0.4682946 0.3612014 -1.255206 0.2442399 -0.7303394 0.6379273 
-0.02921642 0.1902783 -1.457869 0.02891726 -0.3809259 0.9241533 
0.2369591 0.3507113 -1.332014 -0.1228419 -0.6712137 0.7310145 
0.6848483 0.3371282 -1.1788 -0.3880501 -0.6642751 0.6388707 
1.258002 0.3660856 -0.4519264 -0.6157374 -0.7561463 0.2216081 
1.146437 0.4631695 0.3010717 -0.3389028 -0.9378052 -0.07527592 
0.6877605 0.3592473 1.156107 -0.3676717 -0.7196034 -0.5890573 
-0.476482 0.3513129 1.26578 0.2669872 -0.6785856 -0.6842803 
-1.203611 0.4518709 -0.01855003 0.4819049 -0.8761889 0.007800705 
-1.038943 0.4533294 -0.6047815 0.4173141 -0.8750792 0.2451232 
-0.9137501 0.4623709 -0.7521187 0.254936 -0.943787 0.2104134 
-0.2101349 0.4366922 -1.210191 0.08376954 -0.8506627 0.5189949 
0.8595077 0.3479098 -1.046397 -0.4289196 -0.7259005 0.5376769 
0.9167477 0.4596567 -0.7623638 -0.2993461 -0.9229084 0.2421406 
-1.12002 0.4614421 0.4017717 0.3419815 -0.9331929 -0.1104523 
-0.7725437 0.4981095 -0.6409319 0.03309658 -0.9992092 0.02203775 
-0.7466042 0.4597495 -0.9285295 0.2809799 -0.8984186 0.3374825 
-0.7002765 0.462375 0.4145767 -0.3262642 -0.9291768 0.1737305 
0.8299361 0.4686185 -0.1460894 0.2693908 -0.9622266 -0.03935107 
-0.6080841 0.3522033 -0.2216183 -0.6671021 -0.7071164 -0.234438 
0.5193772 0.1878879 0.1490991 0.8639042 -0.4407275 0.2437806 
0.1839809 0.1921643 0.5078173 0.3387503 -0.3635609 0.8677971 
-0.4848035 -0.002092389 0.1328641 -0.965206 -0.02389819 0.2603966 
-0.04225766 -0.005128803 -0.5007917 -0.09557036 -0.06696643 -0.9931676 
0.1296192 0.0006699101 -0.4863542 0.2522202 -0.008223714 -0.967635 
0.5077116 0.193137 -0.1881926 0.8599603 -0.4222484 -0.2866614 
0.4721301 0.001495451 -0.1686097 0.9428505 -0.03298309 -0.3315797 
-0.5423652 -0.1959246 0.001946353 -0.9035988 0.4269124 0.03542884 
-0.2272399 -0.1888953 -0.4906402 -0.3533058 0.4199764 -0.8359395 
0.6277089 -0.3518926 0.1650447 0.681187 0.710053 0.1783509 
-0.05154109 -0.3197566 0.6220804 -0.05537655 0.5999701 0.7981036 
0.8107517 -0.4613095 0.08297859 0.379516 0.924741 0.02866721 
0.6718034 -0.4605515 0.4533081 0.2883034 0.9357995 0.2028801 
0.04457665 -0.3536067 -0.6491827 0.05509908 0.6786715 -0.7323722 
0.4616575 -0.3522016 -0.4560947 0.514084 0.7036361 -0.4905242 
0.9913419 -0.4981419 0.1458063 -0.006627174 0.9999774 -0.001123865 
0.5203106 -0.4599447 0.6186931 0.2668733 0.9090578 0.3199885 
-0.4753487 -0.4600987 0.6575453 -0.2335371 0.9138714 0.3321136 
0.8395682 -0.4985317 -0.5502945 0.01322868 0.9998683 -0.009402854 
0.5792721 -0.4952214 0.8388001 -0.07429031 0.9897949 -0.1216027 
-0.367522 -0.4983802 0.9300574 0.0008190979 0.9999996 0.0002637719 
-0.73321 -0.4983889 0.6883552 0.03054684 0.9989674 -0.03363112 
-1.040373 -0.4557551 0.5969282 0.3949785 0.8907441 -0.2248708 
-0.9217779 -0.4585513 0.755877 0.2852527 0.9247997 -0.2517468 
-0.973621 -0.4631757 -0.6769683 0.3630188 0.9023272 0.2324286 
0.74137 -0.4620072 -0.9270661 -0.2395557 0.931052 0.2752367 
1.155421 -0.4608355 0.2794735 -0.3609222 0.9275836 -0.09655946 
1.349465 -0.3536909 -0.03098334 -0.6979014 0.7153857 0.0340161 
0.9260579 -0.4621433 0.7424822 -0.2655331 0.9389477 -0.2187909 
0.7751265 -0.4590933 0.9077536 -0.2582699 0.9137005 -0.3137645 
-0.8736499 -0.3528446 1.030786 0.4367992 0.7395888 -0.5120693 
-1.306089 -0.3711726 -0.2286203 0.6059113 0.7903444 0.09070453 
-1.176261 -0.3536554 -0.6649612 0.6464812 0.6675155 0.3694388 
-0.507526 -0.4662322 -1.056458 0.1231543 0.9591809 0.2545685 
0.8641403 -0.3649784 -1.017667 -0.3969367 0.7832779 0.4784526 
1.018701 -0.3579659 -0.8767416 -0.5465317 0.6976319 0.4632633 
1.256658 -0.3625106 -0.4605861 -0.6348082 0.7393428 0.2244792 
-0.7269647 -0.1871972 1.267342 0.4633096 0.3782625 -0.8014123 
-1.366584 -0.1927224 -0.5105569 0.8526456 0.4073313 0.3272261 
-0.6801187 -0.3603315 -1.154946 0.3240156 0.7722526 0.5464795 
-0.4943726 -0.1922023 -1.373364 0.2896703 0.3842005 0.8766305 
0.2229405 -0.3409977 -1.34125 -0.1255046 0.630847 0.7656897 
1.188012 -0.3287877 -0.679838 -0.6875213 0.6095405 0.3946831 
1.119219 -0.1973313 -0.9354421 -0.704774 0.4139304 0.5761557 
1.365086 -0.1939538 0.5123221 -0.8490317 0.4144017 -0.3277447 
-1.412886 -0.001605123 -0.4950713 0.9506267 0.00413022 0.3103092 
-0.2576616 -0.01544219 -1.472967 0.1728241 0.05862571 0.9832065 
1.300248 0.001066992 -0.7418675 -0.8555375 0.03905724 0.5162656 
1.474382 -0.001273504 -0.2632752 -0.9816307 0.03419548 0.1877014 
0.7336128 -0.1897515 1.262861 -0.4758586 0.3546711 -0.8048397 
0.4952931 -0.1896753 1.373442 -0.3113495 0.3931643 -0.8651493 
-0.9341398 -0.193283 1.120018 0.5948244 0.3840761 -0.7061654 
-0.9850204 0.4974903 0.1974287 -0.0006598575 -0.9999811 -0.006113162 
0.7761014 0.4970234 -0.6475355 -0.01227424 -0.9999099 0.005444968 
0.6586577 -0.4982028 0.7513288 0.009643658 0.9998224 0.01618872 
-0.9946147 -0.4984488 0.1287765 -0.05049348 0.998687 0.008643208 
-0.8164951 -0.4984609 -0.5863389 0.02088846 0.9996612 0.01552897 
3 408 171 387 
3 94 334 436 
3 223 224 38 
3 215 225 216 
3 107 41 40 
3 34 441 41 
3 207 35 441 
3 102 228 227 
3 36 43 234 
3 38 5 237 
3 5 38 224 
3 116 235 111 
3 44 119 442 
3 247 246 46 
3 247 248 246 
3 113 446 120 
3 449 448 250 
3 264 126 445 
3 128 342 8 
3 59 264 266 
3 51 268 267 
3 135 131 345 
3 13 138 345 
3 140 266 267 
3 14 268 275 
3 497 459 344 
3 463 138 460 
3 285 144 295 
3 145 463 292 
3 470 350 159 
3 162 291 353 
3 147 467 301 
3 307 487 297 
3 351 385 487 
3 319 310 83 
3 310 167 83 
3 364 415 173 
3 19 78 176 
3 366 394 181 
3 182 394 366 
3 414 424 183 
3 416 370 391 
3 187 22 418 
3 174 189 420 
3 429 403 23 
3 19 177 23 
3 198 23 177 
3 199 198 404 
3 365 24 191 
3 85 192 430 
3 90 89 422 
3 393 1 323 
3 181 394 368 
3 26 193 368 
3 368 193 181 
3 182 369 368 
3 423 369 21 
3 21 87 423 
3 424 86 87 
3 370 425 184 
3 373 371 372 
3 428 420 208 
3 429 209 328 
3 24 200 378 
3 24 378 191 
3 329 200 192 
3 329 89 30 
3 90 333 30 
3 213 437 92 
3 331 332 431 
3 3 431 332 
3 194 432 25 
3 28 434 27 
3 28 27 377 
3 377 205 33 
3 93 205 426 
3 426 435 93 
3 373 436 206 
3 196 101 427 
3 101 196 325 
3 207 34 428 
3 217 207 428 
3 208 217 428 
3 210 29 96 
3 395 378 212 
3 105 336 3 
3 376 32 202 
3 32 223 98 
3 223 32 204 
3 377 216 99 
3 215 216 100 
3 108 102 218 
3 29 218 217 
3 218 337 108 
3 219 211 338 
3 220 109 103 
3 110 440 37 
3 336 105 221 
3 221 222 236 
3 223 38 237 
3 226 41 441 
3 227 441 35 
3 231 229 219 
3 229 108 337 
3 219 230 231 
3 37 236 110 
3 111 236 442 
3 39 46 225 
3 41 239 114 
3 239 226 240 
3 443 241 339 
3 47 252 232 
3 112 245 45 
3 115 339 49 
3 252 125 7 
3 50 116 445 
3 447 246 255 
3 248 249 121 
3 256 115 123 
3 53 124 7 
3 451 260 261 
3 446 129 261 
3 343 122 257 
3 130 12 257 
3 131 453 13 
3 341 55 263 
3 58 453 55 
3 268 127 269 
3 57 286 456 
3 458 273 281 
3 137 463 145 
3 295 286 287 
3 133 62 287 
3 281 288 289 
3 282 145 290 
3 147 499 467 
3 467 499 302 
3 302 284 476 
3 461 151 356 
3 151 71 356 
3 350 297 159 
3 352 162 66 
3 16 347 292 
3 17 15 293 
3 300 474 308 
3 474 294 301 
3 359 475 467 
3 302 67 359 
3 303 359 67 
3 381 157 170 
3 355 157 148 
3 349 397 306 
3 479 397 356 
3 71 158 479 
3 479 356 71 
3 66 493 152 
3 315 299 362 
3 316 362 299 
3 165 154 401 
3 17 308 166 
3 388 358 308 
3 309 301 481 
3 481 475 319 
3 303 68 167 
3 168 70 483 
3 304 170 169 
3 320 170 484 
3 305 383 73 
3 312 485 479 
3 402 175 18 
3 169 389 489 
3 421 178 363 
3 171 408 20 
3 82 393 323 
3 182 367 21 
3 183 489 414 
3 184 415 84 
3 370 84 391 
3 372 417 22 
3 418 392 491 
3 420 419 174 
3 189 76 326 
3 190 420 189 
3 77 403 328 
3 403 19 23 
3 429 328 403 
3 199 0 191 
3 191 0 365 
3 327 90 422 
3 327 408 179 
3 369 375 368 
3 88 425 86 
3 94 195 187 
3 419 428 101 
3 374 95 208 
3 95 374 328 
3 92 330 331 
3 331 431 92 
3 431 213 92 
3 1 2 25 
3 25 332 1 
3 25 2 194 
3 201 433 432 
3 432 194 201 
3 202 375 423 
3 434 204 376 
3 434 203 27 
3 203 87 27 
3 93 435 206 
3 427 334 94 
3 208 29 217 
3 29 208 95 
3 197 96 209 
3 103 212 200 
3 437 495 104 
3 3 214 105 
3 433 439 98 
3 98 439 202 
3 204 28 99 
3 99 223 204 
3 28 377 99 
3 33 93 100 
3 100 206 436 
3 34 107 334 
3 218 102 217 
3 210 211 219 
3 338 211 212 
3 31 104 440 
3 104 495 37 
3 105 222 221 
3 105 106 222 
3 105 438 106 
3 98 223 237 
3 99 216 225 
3 215 39 225 
3 107 34 41 
3 228 4 227 
3 102 108 229 
3 335 233 42 
3 234 335 36 
3 36 440 43 
3 440 110 43 
3 111 235 236 
3 442 236 222 
3 106 44 442 
3 45 106 237 
3 237 5 112 
3 224 238 5 
3 224 46 238 
3 46 39 247 
3 114 40 41 
3 4 226 227 
3 4 443 250 
3 231 339 241 
3 230 243 242 
3 242 444 230 
3 243 232 252 
3 252 242 243 
3 47 232 42 
3 116 50 235 
3 340 118 442 
3 45 119 44 
3 120 245 112 
3 113 120 5 
3 246 48 46 
3 114 239 249 
3 249 248 114 
3 448 240 4 
3 250 443 115 
3 443 339 115 
3 6 49 339 
3 124 6 444 
3 252 47 125 
3 253 126 258 
3 126 253 50 
3 116 118 445 
3 118 117 254 
3 118 340 117 
3 340 119 8 
3 245 120 261 
3 261 128 245 
3 48 447 446 
3 446 113 48 
3 48 246 447 
3 255 246 248 
3 248 121 255 
3 249 9 121 
3 249 449 9 
3 49 257 122 
3 341 263 125 
3 265 264 445 
3 254 450 265 
3 265 445 254 
3 51 254 117 
3 127 51 8 
3 260 342 128 
3 261 129 451 
3 447 262 129 
3 10 271 9 
3 449 11 10 
3 10 9 449 
3 257 12 343 
3 130 53 54 
3 53 453 131 
3 267 266 450 
3 51 127 268 
3 60 56 451 
3 132 270 57 
3 132 457 270 
3 134 457 10 
3 10 272 134 
3 52 272 11 
3 343 455 273 
3 273 452 343 
3 455 343 12 
3 459 455 12 
3 135 54 131 
3 131 13 345 
3 274 59 460 
3 266 140 139 
3 267 268 14 
3 275 268 269 
3 277 276 275 
3 275 269 277 
3 286 144 60 
3 57 278 133 
3 270 457 278 
3 279 61 457 
3 134 280 279 
3 272 52 280 
3 281 273 455 
3 455 288 281 
3 497 288 455 
3 136 497 344 
3 146 460 346 
3 348 346 139 
3 139 498 348 
3 498 140 141 
3 499 143 275 
3 283 144 285 
3 133 278 62 
3 63 62 61 
3 280 151 461 
3 280 454 151 
3 458 281 469 
3 469 350 458 
3 352 462 290 
3 146 464 380 
3 348 466 464 
3 476 284 285 
3 476 285 295 
3 65 148 149 
3 149 62 150 
3 149 150 468 
3 350 469 297 
3 307 297 469 
3 352 291 162 
3 15 154 465 
3 300 308 17 
3 301 467 475 
3 396 70 354 
3 355 484 157 
3 313 470 159 
3 353 315 163 
3 170 320 169 
3 383 478 486 
3 486 478 485 
3 311 384 312 
3 175 385 398 
3 398 18 175 
3 492 493 314 
3 400 494 317 
3 411 319 83 
3 167 366 83 
3 417 186 360 
3 491 313 390 
3 75 76 321 
3 326 76 402 
3 77 18 78 
3 403 77 78 
3 177 19 79 
3 80 81 404 
3 405 0 81 
3 81 0 404 
3 405 365 0 
3 85 421 363 
3 407 363 400 
3 85 363 407 
3 407 400 317 
3 322 387 318 
3 411 83 181 
3 181 83 366 
3 413 21 367 
3 88 185 184 
3 186 416 391 
3 371 416 186 
3 418 491 324 
3 325 188 419 
3 189 326 190 
3 374 326 77 
3 429 23 198 
3 404 198 177 
3 421 85 430 
3 192 85 407 
3 20 422 407 
3 20 408 422 
3 91 327 179 
3 410 331 330 
3 410 1 331 
3 1 393 2 
3 82 412 393 
3 2 412 194 
3 194 412 181 
3 394 182 368 
3 26 368 375 
3 375 369 423 
3 184 425 88 
3 205 416 426 
3 416 205 370 
3 426 416 371 
3 22 195 372 
3 195 373 372 
3 196 324 325 
3 419 101 325 
3 419 420 428 
3 190 208 420 
3 190 374 208 
3 198 199 395 
3 191 378 395 
3 191 395 199 
3 192 200 430 
3 437 91 92 
3 330 92 91 
3 1 332 331 
3 193 26 201 
3 433 201 439 
3 439 375 202 
3 202 423 376 
3 203 434 376 
3 86 27 87 
3 33 205 93 
3 373 94 436 
3 428 34 101 
3 95 209 29 
3 96 29 209 
3 211 210 96 
3 395 211 197 
3 96 197 211 
3 212 211 395 
3 329 97 200 
3 103 200 97 
3 329 30 97 
3 31 97 30 
3 333 437 104 
3 336 495 213 
3 3 336 213 
3 433 438 214 
3 438 433 98 
3 202 32 98 
3 376 204 32 
3 377 33 216 
3 33 100 216 
3 100 436 496 
3 215 100 496 
3 334 496 436 
3 102 227 35 
3 102 35 217 
3 217 35 207 
3 29 210 218 
3 210 337 218 
3 219 337 210 
3 109 212 103 
3 220 103 97 
3 220 97 335 
3 335 97 31 
3 335 31 36 
3 31 440 36 
3 440 104 37 
3 236 37 221 
3 221 37 495 
3 106 438 98 
3 106 98 237 
3 99 224 223 
3 225 224 99 
3 496 39 215 
3 496 40 39 
3 496 107 40 
3 226 441 227 
3 34 207 441 
3 228 229 241 
3 228 102 229 
3 219 229 337 
3 231 241 229 
3 219 338 230 
3 230 338 243 
3 338 109 243 
3 232 243 109 
3 232 220 42 
3 220 335 42 
3 233 335 234 
3 43 110 235 
3 110 236 235 
3 44 106 45 
3 112 45 237 
3 225 46 224 
3 114 247 40 
3 39 40 247 
3 4 240 226 
3 228 443 4 
3 241 443 228 
3 339 231 251 
3 230 444 231 
3 444 251 231 
3 47 233 244 
3 42 233 47 
3 234 253 233 
3 244 233 253 
3 50 253 43 
3 234 43 253 
3 43 235 50 
3 116 111 118 
3 340 442 119 
3 119 45 245 
3 5 120 112 
3 48 113 238 
3 5 238 113 
3 238 46 48 
3 247 114 248 
3 239 240 249 
3 249 240 448 
3 250 448 4 
3 256 250 115 
3 339 251 6 
3 251 444 6 
3 242 7 444 
3 7 124 444 
3 252 7 242 
3 244 258 125 
3 244 125 47 
3 244 253 258 
3 126 50 445 
3 254 445 118 
3 8 119 128 
3 119 245 128 
3 446 261 120 
3 448 449 249 
3 122 123 115 
3 49 122 115 
3 257 49 130 
3 49 6 130 
3 124 53 6 
3 130 6 53 
3 53 7 263 
3 125 263 7 
3 258 341 125 
3 259 341 258 
3 264 259 126 
3 450 254 51 
3 117 8 51 
3 342 127 8 
3 128 261 260 
3 446 447 129 
3 255 262 447 
3 262 255 132 
3 132 255 271 
3 121 9 271 
3 449 256 11 
3 256 123 11 
3 52 123 452 
3 123 122 452 
3 452 122 343 
3 54 12 130 
3 54 53 131 
3 263 453 53 
3 453 263 55 
3 341 259 55 
3 274 55 259 
3 58 55 274 
3 59 259 264 
3 59 274 259 
3 264 265 266 
3 265 450 266 
3 450 51 267 
3 342 269 127 
3 277 269 342 
3 342 260 277 
3 451 56 260 
3 277 260 56 
3 129 60 451 
3 456 60 129 
3 262 456 129 
3 456 262 57 
3 262 132 57 
3 271 457 132 
3 271 10 457 
3 11 272 10 
3 452 454 52 
3 12 54 459 
3 344 459 54 
3 344 54 135 
3 453 58 13 
3 138 13 58 
3 460 58 274 
3 460 138 58 
3 346 460 59 
3 266 139 59 
3 346 59 139 
3 141 140 267 
3 141 267 14 
3 277 283 276 
3 277 56 283 
3 144 283 56 
3 56 60 144 
3 286 60 456 
3 133 286 57 
3 270 278 57 
3 61 278 457 
3 134 279 457 
3 272 280 134 
3 454 280 52 
3 458 454 273 
3 455 459 497 
3 344 135 136 
3 345 137 282 
3 345 282 135 
3 138 137 345 
3 463 137 138 
3 146 463 460 
3 348 464 346 
3 140 498 139 
3 498 141 142 
3 14 142 141 
3 142 14 143 
3 275 143 14 
3 276 499 275 
3 284 499 276 
3 285 284 283 
3 286 295 144 
3 133 287 286 
3 278 61 62 
3 61 461 63 
3 461 279 280 
3 458 151 454 
3 350 296 458 
3 289 288 471 
3 471 497 472 
3 288 497 471 
3 497 136 462 
3 352 472 462 
3 136 290 462 
3 282 290 136 
3 352 290 291 
3 291 290 145 
3 137 145 282 
3 347 291 145 
3 347 145 292 
3 380 463 146 
3 292 463 380 
3 465 466 348 
3 294 293 64 
3 498 142 64 
3 147 64 143 
3 142 143 64 
3 294 64 147 
3 147 143 499 
3 156 69 295 
3 148 156 287 
3 295 287 156 
3 149 148 287 
3 287 62 149 
3 65 149 468 
3 63 150 62 
3 468 150 349 
3 461 150 63 
3 349 150 461 
3 296 71 151 
3 151 458 296 
3 350 71 296 
3 289 351 307 
3 471 472 298 
3 379 472 152 
3 352 152 472 
3 299 353 347 
3 16 299 347 
3 292 380 153 
3 292 153 16 
3 164 466 465 
3 17 154 15 
3 300 17 293 
3 300 294 474 
3 467 302 359 
3 67 302 155 
3 67 155 482 
3 482 68 67 
3 303 67 68 
3 69 156 396 
3 170 304 381 
3 381 396 156 
3 381 156 157 
3 305 355 65 
3 148 65 355 
3 468 349 306 
3 468 306 477 
3 477 306 478 
3 350 470 71 
3 470 311 158 
3 160 313 159 
3 297 487 160 
3 351 298 398 
3 398 385 351 
3 386 298 379 
3 398 298 386 
3 492 152 493 
3 163 66 162 
3 493 66 163 
3 163 162 353 
3 299 315 353 
3 16 316 299 
3 316 153 480 
3 153 473 494 
3 172 165 401 
3 154 17 401 
3 401 17 166 
3 166 308 358 
3 388 308 309 
3 319 475 72 
3 310 303 167 
3 168 68 70 
3 482 354 68 
3 169 483 304 
3 70 304 483 
3 320 484 173 
3 305 382 355 
3 74 382 73 
3 73 383 360 
3 477 478 383 
3 397 485 478 
3 397 479 485 
3 312 361 485 
3 470 313 384 
3 175 487 385 
3 487 175 75 
3 80 79 314 
3 362 406 405 
3 178 316 363 
3 363 480 494 
3 172 171 357 
3 171 317 357 
3 387 401 318 
3 358 409 180 
3 488 481 411 
3 168 483 413 
3 414 489 389 
3 414 389 185 
3 186 391 360 
3 360 391 73 
3 486 417 360 
3 392 361 312 
3 317 171 20 
3 322 179 387 
3 82 488 411 
3 376 423 203 
3 378 200 212 
3 333 104 31 
3 338 212 109 
3 221 495 336 
3 232 109 220 
3 442 222 106 
3 118 111 442 
3 340 8 117 
3 259 258 126 
3 271 255 121 
3 452 273 454 
3 135 282 136 
3 346 464 146 
3 283 284 276 
3 279 461 61 
3 284 302 499 
3 402 75 175 
3 177 79 80 
3 365 406 421 
3 409 410 180 
3 323 488 82 
3 412 82 411 
3 21 413 183 
3 183 413 489 
3 371 417 372 
3 22 490 392 
3 324 491 390 
3 189 174 76 
3 22 187 195 
3 427 187 196 
3 429 198 197 
3 431 3 213 
3 432 433 214 
3 476 295 69 
3 396 381 304 
3 306 397 478 
3 164 357 494 
3 164 172 357 
3 303 72 359 
3 70 68 354 
3 73 382 305 
3 160 75 321 
3 487 75 160 
3 492 176 161 
3 399 314 493 
3 178 362 316 
3 406 362 178 
3 358 180 166 
3 367 366 168 
3 415 364 74 
3 174 188 390 
3 76 174 321 
3 76 75 402 
3 18 176 78 
3 323 409 488 
3 184 84 370 
3 421 430 24 
3 422 89 407 
3 422 408 327 
3 91 322 330 
3 369 182 21 
3 370 205 425 
3 373 435 371 
3 196 187 324 
3 328 209 95 
3 429 197 209 
3 333 327 91 
3 26 439 201 
3 27 425 377 
3 239 41 226 
3 11 123 52 
3 497 462 472 
3 293 15 348 
3 293 498 64 
3 356 349 461 
3 298 351 289 
3 380 473 153 
3 473 466 164 
3 465 165 164 
3 301 309 474 
3 155 476 69 
3 477 305 65 
3 397 349 356 
3 159 297 160 
3 494 480 153 
3 310 72 303 
3 364 382 74 
3 312 479 311 
3 390 160 321 
3 386 161 176 
3 493 163 399 
3 399 81 314 
3 405 81 399 
3 480 363 316 
3 171 172 401 
3 481 319 411 
3 169 320 389 
3 415 185 389 
3 74 84 415 
3 490 417 486 
3 392 490 361 
3 390 321 174 
3 18 77 402 
3 402 77 326 
3 176 79 19 
3 19 403 78 
3 80 404 177 
3 365 405 406 
3 421 406 178 
3 407 317 20 
3 387 179 408 
3 180 410 318 
3 410 322 318 
3 323 410 409 
3 411 181 412 
3 366 367 182 
3 424 414 185 
3 185 415 184 
3 424 185 88 
3 371 186 417 
3 490 22 417 
3 418 22 392 
3 390 188 324 
3 419 188 174 
3 374 190 326 
3 374 77 328 
3 404 0 199 
3 24 365 421 
3 192 407 89 
3 179 322 91 
3 330 322 410 
3 410 323 1 
3 2 393 412 
3 194 181 193 
3 183 87 21 
3 183 424 87 
3 88 86 424 
3 426 371 435 
3 195 94 373 
3 427 94 187 
3 418 324 187 
3 395 197 198 
3 200 24 430 
3 329 192 89 
3 90 30 89 
3 327 333 90 
3 437 333 91 
3 25 214 3 
3 332 25 3 
3 214 25 432 
3 193 201 194 
3 439 26 375 
3 87 203 423 
3 204 434 28 
3 27 86 425 
3 377 425 205 
3 206 435 373 
3 101 334 427 
3 30 333 31 
3 437 213 495 
3 438 105 214 
3 93 206 100 
3 107 496 334 
3 34 334 101 
3 256 449 250 
3 469 281 289 
3 466 380 464 
3 465 348 15 
3 498 293 348 
3 469 289 307 
3 471 298 289 
3 379 298 472 
3 152 352 66 
3 291 347 353 
3 380 466 473 
3 165 465 154 
3 294 300 293 
3 309 308 474 
3 301 294 147 
3 302 476 155 
3 354 155 69 
3 482 155 354 
3 69 396 354 
3 304 70 396 
3 148 157 156 
3 484 170 157 
3 468 477 65 
3 311 479 158 
3 158 71 470 
3 487 307 351 
3 492 379 152 
3 492 161 379 
3 161 386 379 
3 16 153 316 
3 473 164 494 
3 165 172 164 
3 388 309 481 
3 301 475 481 
3 359 72 475 
3 319 72 310 
3 168 167 68 
3 364 173 484 
3 484 382 364 
3 355 382 484 
3 477 383 305 
3 360 383 486 
3 486 485 361 
3 384 311 470 
3 313 160 390 
3 398 386 18 
3 176 18 386 
3 492 79 176 
3 79 492 314 
3 80 314 81 
3 405 399 315 
3 163 315 399 
3 362 405 315 
3 400 363 494 
3 357 317 494 
3 387 171 401 
3 166 318 401 
3 318 166 180 
3 358 388 409 
3 481 488 388 
3 388 488 409 
3 168 366 167 
3 367 168 413 
3 483 169 489 
3 483 489 413 
3 415 320 173 
3 415 389 320 
3 391 84 73 
3 73 84 74 
3 361 490 486 
3 312 384 491 
3 312 491 392 
3 384 313 491 
3 188 325 324 
