ply
format ascii 1.0
comment VCGLIB generated
element vertex 502
property float x
property float y
property float z
property float nx
property float ny
property float nz
element face 1000
property list uchar int vertex_indices
end_header
0.5162051 -0.6106655 0.5025303 -0.8090249 -0.3681601 -0.4581886 
0.5999993 -0.1043557 -0.1958091 -0.8169093 0.4161956 -0.3993001 
0.4727701 -0.4305684 -0.58077 -0.7878917 0.370046 0.4922322 
-0.1462616 -0.404913 -0.9465393 0.8146123 0.5709748 -0.1019544 
0.7103387 0.02839118 -0.5495549 -0.9178171 0.3344919 0.2138385 
0.6849602 -0.007418192 -0.6333599 -0.7746545 0.586876 0.2355567 
-0.09897611 -0.7096116 0.2610251 0.9921684 0.09036408 -0.08623426 
0.4898671 0.6915684 -0.2125443 -0.5994808 -0.7693357 -0.2207837 
0.07316407 -0.009341721 0.22599 0.2388995 0.2343705 -0.9423362 
-0.1524287 -0.635294 0.4293457 0.3488491 -0.2862004 0.892409 
-0.1511757 -0.4120182 0.1344851 0.7822949 0.1169386 -0.6118335 
0.5737945 0.1092245 -0.9751461 0.09408218 0.005459207 0.9955495 
-0.1409222 -0.08141342 -0.9203181 0.01410832 -0.03212294 0.9993844 
0.4994407 -0.2252877 -0.7697477 -0.952628 0.05247984 -0.299576 
0.5382217 0.6553341 -0.4386635 -0.7604145 -0.6478187 0.04583319 
0.006414556 -0.8048251 0.5109913 0.4519327 0.8423839 -0.2935067 
0.7290695 0.09721747 -0.6387814 -0.9368596 0.2709804 0.2210514 
-0.3266227 -0.346184 -0.9659079 0.6734992 0.694168 0.2540267 
0.5353476 -0.1695043 -0.9708666 0.3218193 -0.2496202 0.9133029 
0.2450763 -0.3368729 0.2171494 -0.3774417 -0.5252439 -0.7626642 
0.02724203 -0.6778691 -0.8746579 0.3079915 0.7057223 -0.6380418 
0.1280658 0.2422977 -0.9854367 0.02171413 0.2295154 0.9730628 
0.4716401 -0.4960254 0.0441842 -0.9502409 -0.1813789 -0.2532666 
0.3664837 -0.9276314 0.3382398 -0.09571233 0.9817501 -0.1643349 
-0.09291674 -0.1945283 0.1371216 0.615624 -0.09059162 -0.7828156 
0.3259696 0.497153 -0.9671237 -0.1379371 -0.1740436 0.9750293 
-0.3745267 -0.7250101 0.4862461 0.2172229 0.3660609 0.9048832 
-0.2586166 0.03334534 -0.03535135 0.8788785 0.08544029 -0.4693319 
0.1433587 -0.5432652 0.583782 -0.2404818 0.2305669 -0.9428719 
-0.01404649 -0.8797027 -0.3053102 0.4326047 0.8799496 0.1963212 
0.2582551 -0.9632373 0.5168437 -0.1365944 0.8276343 -0.5443927 
0.6266832 0.1849055 -0.9465163 -0.8972601 -0.2472039 0.3658068 
0.04439058 -0.3421651 0.7622514 -0.6722564 0.1867933 -0.7163656 
0.7515512 -0.05141469 -0.3330421 -0.9436207 0.3042086 -0.1305267 
-0.1733237 -0.1035085 0.06876321 0.7239156 0.05630433 -0.6875871 
-0.4081159 -0.1862483 -0.4243398 0.5677475 0.8098248 0.1478061 
-0.3618436 0.05647423 0.8809894 0.9718872 0.2230496 0.07539345 
-0.07455381 0.7463943 -0.2192796 0.4961316 -0.8225437 -0.2779844 
0.1239471 -0.4101124 0.4533877 -0.4596652 -0.8284292 0.3200205 
-0.2693307 0.3781558 -0.9439095 0.7613018 -0.3106717 0.5691245 
0.5188222 -0.1304695 -0.5653387 -0.7719656 0.5862986 0.2456077 
-0.2075303 0.6350951 -0.5886061 0.7315854 -0.6710178 0.1204903 
-0.2067699 -0.146285 -0.9220477 -0.3680891 -0.06372287 0.9276044 
-0.008662946 -0.7152506 0.6068956 -0.3349215 0.2460914 -0.909542 
-0.7215173 -0.6602855 0.8430113 0.6623163 0.7117439 0.2340038 
0.4694265 0.6004658 -0.8089445 -0.6430698 -0.6559694 0.3951778 
0.2762981 -0.5492757 -0.9109597 -0.07340509 0.7762044 -0.6261936 
-0.06984093 -0.2382717 0.5456122 0.4717215 -0.237736 0.8490939 
0.5501469 -0.725441 -0.2257443 -0.8837737 0.4496224 -0.1295522 
-0.4745194 0.02082117 -0.5044909 0.9826612 -0.1104248 0.148941 
0.3508754 0.7160136 -0.05595526 -0.3235861 -0.8487376 -0.4182541 
-0.3358174 0.4676777 -0.6150109 0.9165884 -0.3849301 0.1081414 
0.09623848 -0.8782004 -0.01198453 0.3690219 0.9000237 0.2319055 
0.05538116 0.7501126 -0.9102764 0.3599098 -0.411649 0.8372635 
0.05057708 -0.5860174 0.5685058 0.4092622 0.1587967 -0.8984922 
0.6329874 0.4639341 -0.7025396 -0.817226 -0.510696 0.2670791 
0.01245663 -0.7125883 -0.9701115 0.2624358 0.9627754 0.06473839 
0.541206 -0.7535833 -0.02100498 -0.4519538 0.1531519 0.8787959 
-0.4591092 0.1795636 -0.3665122 0.9659056 -0.2376043 -0.1028138 
-0.03895758 -0.5098907 -0.8129784 0.5958139 0.589999 -0.5448917 
0.2549283 -0.8979788 -0.3514372 -0.1182341 0.8944536 0.4312464 
-0.4778901 -0.08163986 -0.4606416 0.9375676 0.3100086 0.157676 
-0.6131737 -0.5838539 0.7046057 -0.06926756 -0.9970433 0.03326811 
0.6187559 -0.6808819 0.379301 -0.7547745 -0.5479404 -0.3606618 
0.1114501 -0.3375071 0.5403605 -0.8144574 -0.5731658 0.09022298 
-0.206504 -0.02343938 0.7014259 0.8090371 0.1992493 0.5529545 
-0.1424967 -0.2970286 0.6926762 0.8991827 0.4258614 0.1005606 
-0.05742422 -0.5209591 0.3025541 0.8986336 -0.3783927 -0.2219835 
-0.1658888 0.4685606 0.05445803 0.7868316 -0.388773 -0.4793241 
0.5003002 0.2128803 0.1334939 -0.7535219 -0.04012825 -0.656197 
-0.4168417 0.2300822 -0.5263635 0.9588928 -0.2209687 0.1780376 
0.03969849 0.2112041 0.2624196 0.2667378 0.05589148 -0.9621471 
-0.09614504 -0.5918386 0.4437386 0.3465821 -0.8498921 0.3969436 
0.6686405 -0.8750178 0.250916 -0.8248606 0.5601825 -0.07616232 
0.4615507 0.5822188 0.025173 -0.6819338 -0.5485882 -0.4837534 
0.5564321 -0.2881538 -0.1485827 -0.9673402 0.01191186 -0.2532013 
-0.1802138 0.5891333 -0.08521701 0.7652804 -0.4849295 -0.4233076 
-0.1114257 -0.5521706 -0.9885996 0.8156321 0.334871 0.4718111 
-0.7350032 -0.6314517 0.6813177 0.8363258 0.440241 0.3267217 
0.1891157 -0.639698 -0.6514086 0.003194037 0.376523 0.9264018 
0.5005826 0.08350097 0.1197441 -0.8032687 0.145719 -0.5775165 
-0.3362771 0.09162407 0.8982841 -0.05751926 -0.8561441 -0.5135258 
-0.2576912 0.09924015 0.7420227 -0.05259618 -0.965404 0.2553993 
0.30482 -0.9338871 -0.2397089 -0.3392284 0.9277145 0.1557885 
0.5948868 -0.225189 -0.9732931 -0.3864083 0.2973132 0.8730943 
0.224347 0.211421 0.2738712 -0.06404799 0.03113473 -0.997461 
-0.3638272 0.3380569 -0.7409821 0.9105603 -0.2332054 0.3413141 
0.7598746 0.1011863 -0.4006285 -0.9880733 0.05505636 -0.1438051 
-0.107769 -0.01195112 0.6270236 0.02233787 -0.4846896 0.874401 
0.6352365 -0.8129101 0.05626565 -0.721204 0.2372447 0.6508301 
0.5588174 -0.5630478 0.1369567 -0.6743948 -0.6937893 0.2526818 
0.4290032 -0.427043 0.09055429 -0.8248821 -0.5233508 -0.2137135 
0.2446537 -0.8966655 -0.01948635 -0.1740202 0.9837474 0.04425056 
0.4191285 -0.453916 -0.6242806 -0.4612623 0.7561994 0.4641117 
0.1867549 -0.1463665 0.1991232 -0.07142305 0.01849336 -0.9972747 
-0.004529836 -0.5122225 -0.6527429 0.4561502 0.7168775 0.52727 
0.5170738 0.02384913 -0.9125996 0.4480566 -0.005175287 0.8939902 
0.2479406 0.8735213 -0.8507915 -0.2024707 -0.5761274 0.7918857 
-0.2962611 -0.2497509 -0.8222209 0.4378466 0.4700553 -0.76638 
0.5892197 -0.1989307 -0.1596015 -0.96349 0.1813113 -0.1970107 
0.1723214 0.6193542 -0.9748264 -0.04255532 -0.1859362 0.9816399 
0.1896462 0.09204341 0.2596493 0.01650494 0.1772783 -0.9840224 
-0.5320707 -0.7127209 0.7102402 0.4250702 0.8177082 0.3881606 
0.7770229 0.1758771 -0.4626086 -0.9969265 0.01592483 0.0767083 
-0.2189134 -0.2435231 -0.4505309 0.8004866 0.4875264 0.3486249 
0.5175574 -0.3334341 -0.7681504 -0.9823439 0.04539576 -0.1814931 
0.224122 -0.1814311 -0.9824645 0.03605883 -0.3876229 0.9211125 
0.5536435 -0.2620992 -0.5992571 -0.9572875 -0.2394823 0.1620151 
-0.5134817 -0.6860419 0.5021672 0.2875819 -0.08302671 0.9541506 
-0.1214513 -0.4135671 -0.9891867 0.2901968 0.3102847 0.9052675 
-0.5652827 -0.5979931 0.7563972 -0.2096708 -0.8811023 -0.4239067 
-0.2186332 -0.009387635 0.988797 -0.5491816 -0.6418906 -0.535141 
0.5251028 0.4483439 -0.004389028 -0.807534 -0.2318257 -0.542352 
0.4259248 0.7639522 -0.8125848 -0.817706 -0.3400571 0.4644545 
-0.01818934 -0.2418835 0.7061604 -0.7738465 -0.6008211 -0.2004385 
0.3050416 0.8001454 -0.5078899 -0.6639759 -0.5605496 -0.4948941 
0.5660679 -0.2869014 -0.9002631 -0.9825917 0.1085589 -0.1507598 
0.7443832 0.2674067 -0.6245447 -0.9492894 -0.2579887 0.1796988 
-0.05924328 -0.6439604 -0.90224 0.7348835 0.5455354 -0.4029111 
0.4342069 -0.9630215 0.2371666 -0.09026689 0.9680817 -0.2338155 
-0.2991877 0.1265941 -0.9700327 0.7741379 -0.1262629 0.620297 
0.5441177 0.4701596 -0.9502628 -0.5547687 -0.5466826 0.627192 
-0.172509 -0.7760872 0.577709 0.08050576 0.9851175 0.1518629 
-0.1452043 -0.3261687 -0.9874684 -0.03685413 -0.1908612 0.980925 
0.3302779 0.9569764 -0.7066451 -0.5524613 -0.7964908 0.2457418 
-0.04991441 -0.7925589 -0.4605654 0.5001146 0.687955 0.5259309 
0.5777901 0.0711587 -0.1105599 -0.8172605 0.120135 -0.5636071 
-0.0585477 0.7969835 -0.7833393 0.8870204 -0.3074961 0.3444429 
0.5188568 -0.7839101 0.5062535 -0.5912473 0.177986 -0.7866051 
-0.6253887 -0.6463009 0.5543469 0.5846295 -0.06925687 0.8083389 
0.4080257 0.4942877 0.1527178 -0.5507538 -0.4339025 -0.713021 
0.2536505 0.9659035 -0.7544573 -0.1214549 -0.8954138 0.428349 
0.04162523 0.3899284 0.2449026 0.3169049 -0.2728835 -0.9083534 
0.176653 -0.9518177 0.5005011 0.406639 0.8236895 -0.3951966 
0.02515085 -0.4491537 0.3642141 0.6110401 -0.7761156 -0.155803 
-0.4015008 0.2410851 -0.6445768 0.9659418 -0.2026108 0.1609516 
0.2290223 0.998683 -0.5373749 -0.1897704 -0.9601279 -0.2052845 
-0.03403493 -0.4342906 0.2287991 0.6488039 -0.3198897 -0.6904522 
-0.03080237 -0.3016787 0.817407 -0.1831889 0.4999822 -0.8464394 
-0.1942762 0.3151135 -0.9881682 -0.1022083 0.02991497 0.9943131 
-0.004830746 -0.5065228 0.569757 0.8329462 0.4891994 -0.2586205 
-0.1277203 0.7177114 -0.5755162 0.5691428 -0.7991292 0.1935691 
-0.2402272 -0.2102319 -0.9746318 -0.4391535 -0.2090954 0.873741 
0.4278379 0.6495658 -0.7818966 -0.8748308 -0.3919093 0.2847426 
0.3925075 0.1659901 0.2266328 -0.5355172 0.07401263 -0.841275 
-0.22194 -0.618135 -0.2983613 0.9438606 0.330328 -0.003277621 
-0.4231283 0.03260422 -0.700757 0.9483641 0.03712451 0.3150038 
0.646746 0.5309157 -0.4113299 -0.7813581 -0.6131732 0.1161825 
-0.2764175 -0.008930573 0.9845553 0.5485252 0.2789868 -0.7882174 
0.2459911 -0.1159677 -0.9275416 0.03337869 -0.2808334 0.959176 
0.4726962 -0.1405544 -0.9201621 0.1256327 -0.2079583 0.970036 
-0.2406653 -0.1945204 -0.03763083 0.8761588 0.1160193 -0.4678517 
-0.2149217 -0.2705978 0.01889709 0.8831909 -0.04015581 -0.4672915 
-0.08000371 -0.449153 -0.7419744 0.8455074 0.5268279 0.08700431 
-0.185446 0.1550152 0.08305302 0.7671649 0.07062224 -0.6375505 
0.1029268 -0.6998599 -0.9891487 -0.0858153 0.340133 0.9364536 
0.3305318 0.6984426 -0.9079862 -0.429699 -0.3169822 0.8455064 
0.3487751 -0.4821986 0.5497563 -0.3056935 -0.8081523 -0.5034296 
-0.1410648 -0.0627365 0.9489633 -0.7104331 -0.4014049 -0.5780649 
0.4456854 -0.5635313 -0.5785488 -0.5632905 0.2609463 0.7839713 
-0.04372777 -0.869351 -0.2381298 0.5505018 0.834182 -0.03298824 
0.2074111 -0.8117758 -0.5092826 -0.1098348 0.7676742 0.6313578 
-0.7282267 -0.592895 0.8867595 -0.09008527 -0.7623793 -0.6408296 
0.501039 0.3281202 -0.9732727 0.3375878 0.2242083 0.9142019 
0.5694393 -0.1790646 -0.3384108 -0.8463195 0.5015812 0.1793313 
0.6848423 0.3530316 -0.7403628 -0.8685321 -0.3312855 0.3686488 
0.7036546 0.3824426 -0.3546699 -0.9151829 -0.3858476 -0.1164555 
0.749016 0.2727342 -0.315983 -0.969277 -0.2020902 -0.1402203 
0.4247613 -0.5032501 0.3565556 -0.6730978 -0.6292981 -0.3884884 
0.6771332 -0.05314739 -0.2016286 -0.569629 0.4626256 -0.6793383 
0.6999379 -0.7015258 0.05958408 -0.9067436 -0.009811045 0.4215683 
-0.2152236 -0.7734188 0.679482 -0.2712125 0.8571044 -0.4379678 
0.5916594 -0.4165831 -0.8685291 -0.8473939 -0.08859346 -0.5235215 
0.02140676 -0.8366867 0.009313592 0.6375169 0.7695397 0.03716104 
0.2729655 0.5180359 0.1910279 -0.1310066 -0.5134917 -0.8480351 
-0.1275711 0.5807801 0.006232685 0.6863883 -0.5208561 -0.5075235 
0.5837137 0.1576767 -0.03499582 -0.9762539 0.04165969 -0.2125861 
-0.1597785 0.6563441 -0.1931543 0.6977932 -0.6504716 -0.2999521 
0.06922606 -0.925072 0.3129586 0.3979806 0.877595 -0.2672797 
-0.7254694 -0.6594208 0.9170167 0.5306943 0.2708084 -0.8031354 
0.4934206 -0.2212894 -0.006679943 -0.8416383 0.05502567 -0.5372311 
-0.4090154 0.3298652 -0.4657407 0.9367864 -0.3455201 0.05520097 
0.2465899 -0.6793251 -0.6250151 -0.2442365 0.4934577 0.8347743 
0.1849477 -0.441105 0.4996997 -0.5843603 -0.7857779 -0.2026728 
-0.2960031 0.4368498 -0.2066736 0.8318984 -0.298123 -0.4680467 
0.0372489 -0.7622322 0.5698909 0.01473066 0.5676016 -0.8231716 
0.7227286 -0.1024595 -0.3587015 -0.6843563 0.729092 -0.009020929 
0.3823719 -0.3872693 -0.9789974 -0.02715567 -0.02018149 0.9994275 
0.6681576 -0.6151077 0.1396464 -0.6836768 -0.7297156 0.01005819 
-0.1942798 -0.6391304 -0.4551846 0.8170644 0.3648784 0.4463962 
-0.4960707 -0.7231678 0.8285633 -0.4378393 -0.1401325 -0.8880651 
0.5576018 -0.3790997 -0.9733604 -0.3996688 -0.02439003 0.9163351 
-0.2992375 0.5345243 -0.3832441 0.8399311 -0.5256689 -0.134863 
0.6062121 -0.5455995 -0.8654913 -0.749869 0.5148021 -0.4155422 
-0.3188568 -0.6317488 0.4757406 0.2292411 -0.4493427 0.8634464 
0.05067825 0.2622686 -0.9792594 0.2167902 0.3612334 0.9069247 
0.5592701 -0.3929428 -0.4682302 -0.9406154 -0.004543969 0.3394438 
0.4219052 0.3119429 -0.9099475 -0.01583362 0.3429865 0.9392069 
0.1229679 -0.9266688 -0.1396824 0.2485504 0.953961 -0.1678726 
0.1210595 0.4484686 -0.9634714 -0.0626903 -0.02489055 0.9977226 
-0.1222362 -0.3495806 -0.8277336 0.7367644 0.5500722 -0.3931906 
-0.3345936 0.4959823 -0.5342319 0.8340247 -0.5491877 0.05287499 
0.5788786 0.5634443 -0.6509399 -0.8222639 -0.5279031 0.2126036 
0.5499028 -0.1919423 -0.397297 -0.9839658 -0.04979192 0.1712662 
0.1602456 0.7302573 -0.03119858 -0.01950851 -0.8421201 -0.538937 
-0.2917095 0.0474133 -0.137186 0.8592317 0.06213236 -0.5077998 
-0.3817933 -0.2319457 -0.9702673 0.8219002 0.07640621 0.5644839 
-0.188264 -0.5591031 -0.5011886 0.7509792 0.111081 0.6509157 
0.09102293 0.814382 -0.4916424 0.5418075 -0.66561 -0.5132329 
-0.0798761 -0.6776325 0.3744279 0.9365781 0.05435115 0.3462189 
0.06036128 -0.2904527 -0.9855568 0.07680806 -0.2836429 0.955849 
0.1475289 0.3147919 -0.9718612 -0.03211904 -0.08735787 0.9956591 
-0.1428691 0.3622536 0.1470859 0.628631 -0.2557138 -0.7344614 
0.484256 -0.7464281 -0.07595069 -0.8700116 0.4787176 0.1179382 
0.5664073 -0.3122055 -0.3087669 -0.9978792 -0.05026572 0.04135755 
0.6127687 0.42076 -0.08737468 -0.8440553 -0.1768501 -0.5062556 
-0.1366915 0.04909534 0.6920173 -0.5949371 -0.8027086 -0.04133715 
-0.007841701 0.7897535 -0.2714347 0.3157911 -0.9433481 -0.1018356 
0.6539865 0.3295304 -0.1604483 -0.6803833 -0.1708371 -0.7126663 
-0.2585506 -0.5093951 -0.1951985 0.9779689 0.2058227 -0.03484111 
-0.1412303 -0.2527748 0.6263531 0.8599634 0.1249861 0.4948146 
0.1056828 -0.4846044 -0.987501 -0.0317466 -0.02693296 0.999133 
0.4067657 -0.422363 0.2731225 -0.4617066 -0.7930382 -0.3973883 
0.1385592 -0.8599353 0.5560336 0.2396949 0.421769 -0.8744469 
0.6910248 -0.07005509 -0.9643517 -0.4182213 -0.05523334 0.9066643 
-0.3716797 0.1800617 -0.7936205 0.8818098 -0.1049505 0.4597791 
0.1081142 -0.673206 -0.8510618 -0.1382788 0.7177388 -0.6824442 
-0.5334666 -0.6246399 0.5599906 0.1650639 -0.8294742 0.5335977 
0.05182945 0.9282281 -0.7672107 0.3957106 -0.7474408 0.5336155 
-0.3374982 -0.1487236 -0.616545 0.4843412 0.8319105 0.2708108 
-0.03733638 -0.1587683 0.1607865 0.334723 -0.03920671 -0.9415006 
-0.2029455 0.007239993 0.06209619 0.7643003 0.1081757 -0.6357225 
-0.0803488 -0.7055224 0.408779 0.6221257 0.4368489 0.6497097 
-0.07652645 -0.1175446 -0.9261812 0.02806148 -0.02405244 0.9993168 
-0.6227181 -0.7855008 0.8792822 0.128854 0.8462641 -0.5169467 
-0.215996 0.4193822 -0.05111657 0.8706003 -0.2422748 -0.4282033 
0.1020784 0.2763661 0.276647 0.09747814 -0.03056453 -0.9947683 
0.2674882 0.2452267 -0.9727514 -0.2499856 0.3064485 0.9184751 
0.129013 -0.4272611 0.6364729 -0.83442 -0.1068395 -0.5406743 
0.6456732 0.4732611 -0.5705301 -0.8119648 -0.5533258 0.1858599 
-0.4131266 -0.07965948 -0.6214706 0.7757097 0.5205773 0.3567545 
0.1337829 -0.3720507 0.2742752 0.1409476 -0.6628528 -0.7353639 
0.01096985 0.7878116 -0.4860745 0.3529787 -0.9341379 0.05284285 
-0.0892511 -0.1368407 0.7215896 -0.7534075 -0.4192566 -0.506558 
0.7098346 -0.7070009 0.1581215 -0.9944171 -0.1050829 -0.009598184 
-0.2345359 0.254521 0.05663166 0.886081 -0.0474521 -0.4610951 
-0.01548185 -0.9031237 0.155193 0.7338716 0.6732937 0.09004488 
0.4939562 -0.6287957 0.004106151 -0.9337381 -0.2213245 0.2813337 
0.6199846 -0.02880749 -0.7664638 -0.8039414 0.3948198 -0.4447421 
-0.2409764 0.6101572 -0.4510373 0.7422883 -0.6692877 0.03259175 
0.6403829 0.4653402 -0.2651332 -0.8852801 -0.3442889 -0.3126409 
0.5911911 0.5346584 -0.532904 -0.7960743 -0.5887733 0.140042 
0.4460837 -0.555014 -0.9753264 -0.02475791 -6.949242e-05 0.9996935 
-0.3266495 -0.2851043 -0.9910652 0.137292 0.1040627 0.9850492 
-0.3854924 -0.7225816 0.6202651 0.2717301 0.9396787 0.2077662 
-0.3106662 -0.1321507 -0.200575 0.6762557 0.4431054 -0.588503 
-0.1409104 -0.5837427 0.06773848 0.8134634 0.3443474 -0.468724 
0.7101973 0.03616454 -0.189255 -0.7544447 0.1918322 -0.627705 
0.7275568 -0.1136031 -0.9141183 -0.9907922 0.09708167 0.09437194 
-0.1484651 -0.3141714 -0.8100967 0.497295 0.4863682 -0.7184314 
0.4219326 -0.1673352 -0.92708 0.01929873 -0.3888512 0.9210984 
-0.7601966 -0.5627719 0.785408 0.6119545 -0.7904583 0.02622143 
0.2700857 -1.003514 0.2232601 -0.01775388 0.975615 -0.2187698 
-0.2439722 0.5845245 -0.2353185 0.8288746 -0.5103846 -0.2290732 
0.05496563 -0.4978188 0.6533328 0.08488946 0.6734777 -0.7343171 
0.3083683 0.9248881 -0.4870642 -0.5488151 -0.43197 -0.7156843 
-0.3247432 0.4913172 -0.7082428 0.8106767 -0.5143957 0.2796435 
-0.01274758 -0.6156773 -0.6210983 0.4263471 0.3977876 0.8123997 
0.2879588 0.3407121 0.2665771 -0.2386607 -0.1818104 -0.9539319 
-0.4904328 -0.8040953 0.7867234 -0.183008 0.8814532 -0.4353715 
0.5529625 -0.09442331 -0.04164721 -0.8800085 0.159216 -0.4474767 
0.6282327 -0.8978088 0.06258608 -0.7417722 0.4856368 0.4625267 
0.1055724 -0.5117235 -0.6846309 -0.2260801 0.876928 0.4241288 
0.2349188 -0.4274531 -0.7164747 -0.07750113 0.8611184 0.5024627 
-0.2529069 0.3164884 -0.1148002 0.9376355 -0.06290725 -0.3418806 
-0.2764764 0.08324708 0.7325265 0.5615517 -0.2789169 0.7790155 
0.4561085 -0.255356 -0.9741978 0.009106443 -0.1105254 0.9938316 
-0.730774 -0.5782115 0.6939015 0.4188647 -0.7786832 0.4671241 
0.1960153 0.8156294 -0.4691494 -0.07475874 -0.7017978 -0.7084427 
0.4099062 -0.940993 0.4168636 -0.2047046 0.9755273 -0.08026596 
-0.03624701 0.8885921 -0.6326329 0.8597981 -0.4513317 -0.2388449 
-0.2077977 -0.3430046 -0.4950395 0.9179448 0.1903134 0.3480779 
0.6365129 0.07584445 -0.8126563 -0.9895852 0.04160114 0.1378062 
-0.2302219 -0.392342 -0.4019316 0.908137 0.00633858 0.4186253 
0.2974732 -0.4640718 -0.6703927 -0.2671419 0.7114044 0.6500299 
0.7521486 0.02980675 -0.3940898 -0.9907291 0.1298181 0.04003976 
-0.2148163 -0.6928235 0.435864 0.2080137 0.4400783 0.8735339 
-0.1214053 -0.3172873 -0.7706951 0.9524478 0.2355008 -0.1933457 
-0.3199039 -0.7457649 0.5140492 0.1438661 0.9429663 0.3001953 
-0.2104831 0.4349542 -0.9598749 0.3212069 -0.5264223 0.7872139 
-0.3407524 0.1046023 0.8268507 0.6528404 -0.7199122 0.2356395 
-0.1329703 -0.07434054 0.9090823 -0.6010147 -0.7794726 0.1766455 
0.09415976 -0.1914061 -0.9288697 0.2056669 -0.3774284 0.9029114 
0.1820736 -0.4142387 0.3761078 -0.09820476 -0.9653844 -0.2416381 
-0.09158599 -0.3281556 0.7834095 0.5255449 0.6778433 -0.5141314 
0.557685 0.01218115 -0.01437079 -0.9142531 0.1785713 -0.3636668 
-0.3951612 -0.5767683 0.5923653 0.07699274 -0.9837668 0.1620958 
0.3614363 0.2292 -0.9185106 -0.1657667 0.1305257 0.9774889 
-0.309245 0.1110552 -0.8853623 0.9214177 -0.1758259 0.3465181 
0.2940161 -1.001745 0.1280342 -0.08298613 0.9818776 0.170381 
0.004434938 0.2236283 -0.9171997 0.1608556 0.2553777 0.9533666 
0.558545 -0.5478432 -0.08665388 -0.9094149 0.08969495 -0.4061027 
0.4840423 -0.8787293 0.4747169 -0.4913323 0.6414685 -0.5891612 
0.2628758 -0.5704787 0.5919494 -0.0413646 -0.1513019 -0.9876217 
0.7162318 0.2252242 -0.1847964 -0.8117144 -0.121272 -0.5713256 
-0.2434313 0.4982106 -0.8198584 0.6311195 -0.6122823 0.4762338 
0.3894648 0.3897609 -0.972653 0.0003893061 0.1117252 0.9937391 
0.3483263 -0.6657599 0.591755 -0.1505198 0.03859539 -0.9878533 
0.489593 -0.1323585 -0.722677 -0.8100072 0.5243375 -0.2625998 
0.4069767 -0.8009174 0.5629984 -0.3411849 0.284968 -0.8957601 
-0.3151749 -0.6124188 0.7116701 -0.203165 -0.75435 -0.6242437 
0.5345079 -0.9370364 0.3267619 -0.2564685 0.9268927 -0.2740327 
0.1723101 0.1524755 -0.9213912 0.03910793 0.3187232 0.9470407 
0.5758941 -0.9598543 0.1823366 -0.4846258 0.857491 -0.1727629 
0.7356158 0.3120057 -0.4628844 -0.9683062 -0.2492953 0.01532795 
0.398994 -0.8441028 -0.3836396 -0.3754438 0.8142533 0.4427568 
0.2434999 -0.9524722 0.3375364 0.05378662 0.9977054 -0.04112227 
0.2555158 -0.9775122 0.055758 -0.06961986 0.7873227 0.6125978 
0.6722325 -0.07571683 -0.480276 -0.6160168 0.7244133 0.309433 
-0.7730539 -0.6070209 0.8495397 0.9726281 0.1055721 -0.2070003 
-0.3301383 -0.08720813 -0.7914636 0.9027073 0.4302537 0.001209638 
0.184393 -0.7470238 0.5923239 0.05377771 0.1251415 -0.9906804 
-0.01009455 -0.5794057 0.4950451 0.618708 -0.6818436 -0.3902433 
-0.02324962 0.5466703 -0.9198655 0.651548 -0.3213136 0.6871994 
0.6960281 0.3876704 -0.245051 -0.831367 -0.4383131 -0.3416293 
-0.05322846 0.02245075 0.1775363 0.4965876 0.1799854 -0.8491207 
0.5362735 -0.3587774 -0.04290736 -0.8515822 -0.04921342 -0.521906 
0.7112419 0.1917923 -0.7458332 -0.9181145 -0.02201423 0.3957034 
-0.2584313 -0.07048552 0.8682173 0.7829812 0.6129563 -0.1059482 
0.3909764 0.9086299 -0.6430269 -0.8144038 -0.5792532 -0.03481626 
-0.3558387 -0.2240236 -0.861626 0.8388709 0.2300761 -0.4933161 
0.6695446 0.1368825 -0.1408347 -0.4857388 0.06485005 -0.8716951 
0.1183826 1.001106 -0.6390726 0.2945127 -0.953979 0.05644805 
-0.06253507 -0.7745113 0.580498 -0.06477278 0.9328172 -0.3544809 
-0.233015 -0.6158256 0.6778838 -0.3308421 -0.7348245 -0.592095 
0.1865011 -0.4979179 0.5756848 -0.3462579 -0.3469988 -0.8716062 
0.4173075 -0.6222466 -0.8563609 0.04969341 0.8389095 -0.5419976 
-0.07997954 0.1310991 0.2086333 0.5495853 0.1372615 -0.8240845 
-0.09354077 -0.5616856 0.134325 0.9142672 0.08281071 -0.3965577 
0.3738014 -0.2615893 0.1586448 -0.6214206 -0.01223586 -0.7833816 
0.2392101 -0.4319586 -0.8206056 -0.2486836 0.8867938 -0.3895553 
0.6991478 0.3376435 -0.6508923 -0.904252 -0.3776119 0.199343 
0.1161294 0.9605045 -0.4872435 0.3155985 -0.5328668 -0.7851437 
-0.03191327 -0.8454798 -0.07996267 0.5374835 0.7946911 -0.2820951 
0.4143063 0.7550559 -0.3854646 -0.5084512 -0.8610863 0.00279201 
0.3319235 -0.4654685 0.3817692 -0.3423941 -0.9060637 -0.2486262 
-0.1939148 0.5869582 -0.7760729 0.5061799 -0.7131037 0.4850414 
-0.06913202 -0.2938966 0.2055748 0.4870548 -0.2321586 -0.8419502 
0.280399 -0.9392139 -0.1498503 -0.1852751 0.9693239 -0.1615065 
0.1051147 -0.7141792 0.585673 0.04429549 0.04088875 -0.9981814 
0.5293463 0.5898174 -0.119203 -0.7484202 -0.5083973 -0.4259102 
-0.06922739 0.4801407 -0.928903 0.3201703 -0.604795 0.7291873 
-0.4464981 -0.1433541 -0.3125525 0.7473838 0.5764902 -0.3302675 
-0.4387645 -0.0218129 -0.2166113 0.7116107 0.0909123 -0.6966672 
-0.3013194 -0.218431 -0.3154773 0.7331171 0.6758791 -0.07567561 
0.4413108 -0.5506645 0.557366 -0.4727838 -0.255109 -0.8434423 
-0.2384827 0.2077008 0.02006469 0.9312723 -0.05284509 -0.3604711 
0.3630905 -0.3729092 0.1437475 -0.7263108 -0.4654125 -0.5058299 
0.5527279 -0.9901034 0.1242145 -0.2843963 0.9556269 0.07678577 
0.3841216 0.5928423 -0.8960006 -0.5859262 -0.4363286 0.6828674 
-0.2782851 0.1963666 -0.1275589 0.8001291 -0.1431124 -0.5825053 
-0.5891055 -0.7356543 0.8832089 -0.4043372 -0.05694526 -0.9128355 
-0.06923296 -0.1365015 0.8910521 -0.7725373 -0.1810705 -0.6086047 
0.4832215 -0.8012785 -0.3345872 -0.6990533 0.6671716 0.2573064 
0.5929078 0.3779729 -0.9464344 -0.9132981 -0.2514274 0.3204231 
0.3912306 0.3606937 0.2223691 -0.5649504 -0.1823497 -0.8047233 
-0.1217906 -0.5825372 0.5305816 -0.09429571 -0.9866367 -0.1328774 
0.5353454 -0.5203633 0.2041487 -0.7636303 -0.6236486 -0.1671259 
-0.1927659 -0.0363193 0.871534 -0.7383742 -0.6742349 -0.01452285 
0.01047467 -0.4698474 0.4491354 0.9600827 -0.1419732 0.2410078 
0.5108293 -0.9525235 0.03009561 -0.1129483 0.6064122 0.7870876 
-0.2596551 -0.2892939 -0.3115114 0.9345956 0.1883558 0.3017502 
-0.2578348 -0.577397 0.6230764 -0.1262052 -0.9530438 -0.2752814 
0.4080534 0.7305798 -0.6334212 -0.8057929 -0.5866222 -0.08106983 
0.0965158 -0.8617964 -0.4374863 0.1501354 0.8461032 0.511438 
-0.03362785 0.5538532 0.1174523 0.4381866 -0.5278255 -0.7275938 
-0.1642018 -0.7566977 -0.2133062 0.8101307 0.5672224 -0.1481455 
-0.1595358 -0.7593299 -0.3222394 0.6949502 0.6988098 0.1694376 
-0.05721542 0.7612859 -0.4065261 0.4248627 -0.9017652 0.07944304 
-0.1370719 0.402114 -0.9813245 0.039173 -0.09651034 0.9945608 
0.383845 -0.4699583 -0.7797928 0.09894101 0.8332791 -0.5439271 
0.1079559 -0.5201692 -0.7784842 -0.2744089 0.809042 -0.5197603 
0.3389896 0.6198651 0.09476923 -0.2748179 -0.7061938 -0.652507 
-0.2520692 -0.3535267 -0.8878303 0.3931241 0.8015719 -0.4504841 
-0.3511727 -0.007616244 -0.8183661 0.9309664 0.1277865 0.3420121 
-0.05158564 0.7349434 -0.6798476 0.8688744 -0.4944712 -0.02357063 
0.1028488 -0.3526483 0.641462 -0.8280055 -0.5418918 -0.1440843 
-0.2464213 -0.7030327 0.7406619 -0.4217573 -0.07814261 -0.9033353 
-0.3458522 -0.03692007 -0.9457591 0.9535572 -0.1202315 0.2761758 
-0.09675588 -0.7579444 0.4749858 0.3287477 0.8781638 0.3474958 
0.4005309 -0.7595719 -0.4935613 -0.4302208 0.6586455 0.61733 
0.1576903 -0.9163427 0.3882787 0.3889917 0.8979979 -0.2056339 
0.4809301 -0.5468445 0.4948267 -0.6892748 -0.711185 -0.1382612 
-0.5654463 -0.7895544 0.8031634 0.4457889 0.7712692 0.4543303 
0.08413348 0.4999872 0.1993625 0.1415958 -0.5125891 -0.8468785 
0.05805073 -0.4087393 0.4301964 0.2930347 -0.6874819 0.6644542 
0.5294343 -0.6256366 -0.9746624 -0.3612815 0.6571561 0.6615298 
0.7060054 -0.0683718 -0.8381376 -0.8589369 -0.04615379 -0.5099974 
0.566628 -0.3152339 -0.4736404 -0.9771385 0.160071 0.1399202 
-0.05735352 -0.5645638 0.38558 0.8705605 -0.4788253 -0.1133612 
0.4385955 -0.006430536 0.152667 -0.6058601 0.2910112 -0.7404364 
0.1186331 0.6223754 0.1117358 0.07884946 -0.6833543 -0.7258165 
-0.2788516 0.3840003 -0.8754541 0.9134058 -0.2573154 0.3154024 
-0.3529847 -0.5911959 0.5314663 0.1824238 -0.8620743 0.4728101 
0.4270231 0.8229493 -0.6414925 -0.942901 -0.06436209 -0.3267954 
0.1529379 -0.6988764 -0.9566308 -0.4776101 0.8779126 0.0340292 
0.5087637 0.6744938 -0.6290181 -0.640013 -0.7313458 0.2356199 
0.1244943 -0.9714534 0.08229946 0.3064041 0.9243364 0.2274179 
-0.02327379 -0.6271412 0.5655595 -0.1480088 -0.6236871 -0.7675336 
0.2683076 -0.5600706 -0.9840727 -0.1846597 0.4752789 0.8602388 
-0.180476 -0.07556246 0.9618117 0.03701639 0.521468 -0.8524675 
-0.2776465 -0.1152798 -0.07684596 0.9248747 0.1371901 -0.3546629 
0.5466848 -0.5421291 -0.8088672 -0.4046697 0.3068621 -0.8614396 
0.1213541 -0.9329188 -0.2774465 0.1112833 0.9769441 0.1821985 
-0.2089522 -0.5817659 -0.077479 0.902827 0.335599 -0.2688435 
0.3783129 -0.6426781 -0.9762384 0.2530302 0.7110785 0.6560054 
0.7444024 0.1777773 -0.5703469 -0.9878563 0.05205709 0.1463905 
-0.2647236 -0.4483996 -0.1471497 0.9768714 0.08349655 -0.1968518 
-0.1068244 0.6894886 -0.1010105 0.573516 -0.7268732 -0.3778028 
-0.1886462 -0.6424349 -0.1169723 0.8794641 0.4175119 -0.2285316 
0.5936423 0.291526 -0.8809094 -0.9270959 -0.2188879 0.3042717 
0.4001499 -0.4964895 0.4422709 -0.5535173 -0.8319452 -0.03854594 
-0.09502021 0.2951857 -0.9128103 -0.04946471 0.3920394 0.9186177 
-0.2667227 -0.1546428 -0.7742836 0.5352357 0.7296849 -0.4255382 
0.6135845 0.5397087 -0.2098745 -0.8665201 -0.442334 -0.2312651 
-0.2279353 -0.421059 -0.03563032 0.9119688 0.1465636 -0.3831867 
-0.5081034 -0.7146186 0.5153314 0.3394326 0.830198 0.4422182 
0.6016322 -0.5780286 -0.2408877 -0.9880135 0.1321018 -0.07986601 
0.483348 -0.1656209 -0.6810226 -0.9878403 -0.09632959 0.1220338 
0.09698554 0.807391 -0.2469922 0.09878101 -0.9921862 -0.07621525 
0.2739995 0.1184758 -0.9263916 -0.01886469 -0.03745511 0.9991202 
0.5681974 -0.5654944 -0.4345517 -0.8861493 0.2309313 0.4017587 
-0.405133 0.2234993 -0.2035557 0.7661105 -0.2231722 -0.6027179 
0.3286954 0.1146902 0.2488537 -0.2699969 0.1764482 -0.9465557 
0.5761726 0.2630808 -0.0933975 -0.8998662 -0.02379464 -0.4355165 
-0.02742336 0.4252403 -0.9800904 0.04437019 -0.191548 0.9804798 
0.6880773 -0.1786878 -0.960138 -0.7053114 0.4871909 0.5149571 
0.5686747 0.4619228 -0.8115587 -0.8579648 -0.4508516 0.2462303 
0.6031124 -0.4204736 -0.3039539 -0.98992 -0.1253279 0.06596576 
0.5498899 0.648935 -0.2580237 -0.7440987 -0.6451181 -0.1736086 
0.04023359 -0.8522516 0.418364 0.5579414 0.7742699 -0.2986763 
-0.03743947 -0.3399864 0.5004935 0.6437667 -0.09689938 0.7590619 
-0.6611895 -0.669831 0.6119814 0.4564269 0.8538123 0.2503581 
0.4860646 -0.4050343 -0.7710915 -0.6873356 0.6392028 -0.3449487 
-0.4817258 0.01692223 -0.3091381 0.982725 -0.001794764 -0.1850629 
-0.2431002 0.005856502 -0.9853301 -0.1941466 0.003400461 0.9809666 
0.3119094 0.7856874 -0.2170154 -0.2754725 -0.9389382 -0.2061797 
-0.04748784 0.2556609 0.2243937 0.5660276 -0.03402402 -0.8236839 
-0.1528912 0.2085556 -0.9206477 -0.3751569 0.07967114 0.9235311 
0.1115751 -0.3040287 0.2407496 0.1563494 -0.2841889 -0.9459342 
0.6278155 -0.5159699 -0.9621782 -0.9501377 -0.003717495 0.3118084 
-0.07720657 -0.7217028 0.04937499 0.8604028 0.469838 -0.1973811 
0.4654631 -0.690251 -0.5043688 -0.615447 0.4654744 0.6360492 
0.4822152 -0.5892313 0.3465587 -0.723878 -0.6806852 -0.1125546 
-0.2499806 0.04305597 0.8440588 -0.7417949 -0.601069 -0.2974162 
-0.261712 -0.3599823 -0.1912789 0.9905034 0.1209387 -0.06539862 
-0.1088792 -0.2214962 -0.6999475 0.941085 0.3092758 0.1367756 
0.4631518 0.4246444 0.1272598 -0.823338 -0.2471723 -0.5109017 
-0.04007482 -0.7847905 0.3950971 0.8080941 0.5890532 -0.0005338285 
0.1806789 0.3754618 0.2634516 0.005475975 -0.2736804 -0.9618051 
0.5547791 0.3808982 -0.9730422 -0.249801 -0.1086089 0.9621869 
-0.06925948 0.6073986 -0.8054399 0.7190263 -0.5150717 0.4665857 
-0.2668033 0.1339822 -0.001926959 0.9030699 0.001899316 -0.4294894 
0.4170648 -0.8266305 -0.007804987 -0.3209442 0.7378408 0.5937894 
0.05790651 0.5171897 -0.9762912 0.1845724 -0.1615866 0.9694446 
0.636318 -0.8009375 0.383761 -0.7715187 0.2188653 -0.597375 
0.2092462 0.5001016 -0.956992 -0.01008113 0.0465987 0.9988628 
-0.1344479 -0.1994416 -0.7700623 0.6259288 0.5634935 -0.5391552 
0.5619192 -0.5868369 0.2182385 -0.6657203 -0.6639957 -0.3404793 
-0.5027107 -0.5809335 0.6564555 0.07269029 -0.9967982 0.03330871 
-0.001469 -0.09785327 0.6345295 -0.8271568 -0.5541989 -0.09314039 
0.4096654 -0.860607 -0.1522217 -0.6141015 0.7744668 -0.1519233 
0.7429172 0.1034565 -0.2283353 -0.9655122 0.03412869 -0.2581114 
0.5759457 -0.03802654 -0.9734561 0.2664046 -0.03187071 0.9633343 
-0.1448615 -0.2019335 -0.6632527 0.4449504 0.8774629 0.1791039 
0.6543136 -0.2100108 -0.8640288 -0.6718863 0.5990736 -0.4355222 
0.4074293 -0.4430419 -0.7236565 -0.340244 0.938673 -0.05592014 
0.02107212 -0.2069042 0.5575275 -0.3810603 -0.5495806 0.7434745 
0.7094063 -0.8035769 0.2593144 -0.9592588 0.122257 -0.2547074 
0.3913107 -0.1355201 0.1253185 -0.5879877 0.0402019 -0.8078703 
0.6973311 0.4476097 -0.4019475 -0.9335957 -0.3482406 -0.08442514 
-0.1077615 -0.4614431 -0.8765368 0.8665317 0.2947375 -0.402806 
0.08768047 0.7709408 -0.1074715 0.1360077 -0.9184066 -0.3715254 
-0.1988969 -0.6880653 -0.3859461 0.8779688 0.4571677 0.142016 
0.2328507 -0.2055764 0.2113417 -0.2476892 -0.2384551 -0.9390363 
0.02694139 0.643299 0.06888347 0.2999953 -0.738556 -0.6037697 
-0.09362987 -0.2670795 -0.9216872 -0.08605547 -0.3961031 0.9141645 
-0.377391 0.3661782 -0.2619211 0.8663652 -0.4232072 -0.2651547 
0.08844148 -0.7088922 -0.598938 0.1577596 0.62113 0.767665 
-0.4282188 -0.7998121 0.7232472 0.2123407 0.8953916 0.3913889 
-0.2542957 -0.4922429 -0.3795068 0.9689542 0.08696453 0.231441 
0.2654727 -0.8625905 0.568406 0.001553703 0.3435712 -0.9391254 
-0.1870718 0.7065535 -0.3115726 0.6403381 -0.7585059 -0.1209798 
0.6581745 -0.6706624 0.03404189 -0.4918464 -0.396934 0.7749391 
-0.1404717 -0.374133 -0.6438798 0.9426084 0.1569809 0.2946973 
0.5571768 0.2364543 0.04387295 -0.9165278 -0.1056013 -0.3857788 
0.1815051 -0.2971321 -0.9714954 -0.04285949 0.01230934 0.9990053 
-0.1139604 -0.4652566 -0.578367 0.8083954 0.3828675 0.4471122 
0.3197305 0.799624 -0.3689472 -0.2348536 -0.9710254 -0.04419812 
0.5811296 -0.4152036 -0.1741849 -0.9608155 -0.1034091 -0.2571771 
0.3779829 -0.9695889 0.09744271 -0.09307596 0.9335462 0.3461623 
-0.2646312 0.456453 -0.1135521 0.8684303 -0.1970779 -0.4549606 
3 443 172 412 
3 132 459 236 
3 332 280 228 
3 211 195 21 
3 127 323 53 
3 387 190 310 
3 84 191 116 
3 248 282 397 
3 190 269 234 
3 347 94 449 
3 370 500 358 
3 73 313 311 
3 155 56 405 
3 242 429 378 
3 25 359 156 
3 339 357 19 
3 463 57 213 
3 359 25 121 
3 95 153 497 
3 184 263 501 
3 344 498 115 
3 184 274 360 
3 381 59 95 
3 152 425 417 
3 28 335 303 
3 417 414 219 
3 194 403 227 
3 62 227 469 
3 411 27 231 
3 495 69 457 
3 156 113 97 
3 252 191 276 
3 431 438 196 
3 94 433 400 
3 449 484 241 
3 442 426 129 
3 239 147 251 
3 34 151 231 
3 386 238 32 
3 213 471 463 
3 55 239 251 
3 468 168 367 
3 166 324 250 
3 485 482 204 
3 340 273 380 
3 68 235 175 
3 320 240 229 
3 97 124 131 
3 361 179 162 
3 26 286 9 
3 370 57 463 
3 490 219 145 
3 240 35 229 
3 280 127 228 
3 130 382 74 
3 249 492 263 
3 220 441 47 
3 209 6 399 
3 200 481 3 
3 435 195 211 
3 411 151 455 
3 167 314 103 
3 246 178 407 
3 0 453 63 
3 87 167 103 
3 489 122 254 
3 312 430 297 
3 110 310 190 
3 437 202 45 
3 103 4 285 
3 282 31 397 
3 349 185 43 
3 264 294 138 
3 188 63 468 
3 154 231 27 
3 160 343 198 
3 244 170 73 
3 496 106 210 
3 69 365 457 
3 171 333 122 
3 282 5 16 
3 467 98 423 
3 362 138 410 
3 364 420 437 
3 55 437 420 
3 262 119 500 
3 31 258 397 
3 305 351 346 
3 467 287 259 
3 289 379 351 
3 439 350 7 
3 220 47 65 
3 279 311 23 
3 7 14 439 
3 324 304 218 
3 120 139 39 
3 73 271 313 
3 305 402 39 
3 60 83 315 
3 323 127 461 
3 394 459 132 
3 208 280 342 
3 9 232 209 
3 22 301 247 
3 99 164 214 
3 68 175 375 
3 64 477 38 
3 133 491 30 
3 244 188 170 
3 365 69 144 
3 6 246 451 
3 15 133 391 
3 145 219 414 
3 200 59 481 
3 306 460 25 
3 341 165 327 
3 64 38 183 
3 218 126 434 
3 23 316 279 
3 186 164 1 
3 498 278 115 
3 447 132 71 
3 182 159 284 
3 343 160 376 
3 101 94 8 
3 318 40 164 
3 65 66 220 
3 3 77 109 
3 168 453 421 
3 115 265 404 
3 373 143 406 
3 124 265 136 
3 448 139 445 
3 325 8 230 
3 364 31 420 
3 478 73 465 
3 431 427 438 
3 55 202 437 
3 259 383 98 
3 93 284 159 
3 306 25 466 
3 191 450 116 
3 195 300 312 
3 328 65 36 
3 253 123 142 
3 356 274 245 
3 82 81 290 
3 131 228 97 
3 268 144 433 
3 418 177 37 
3 334 366 408 
3 57 247 213 
3 299 317 407 
3 55 251 202 
3 266 41 51 
3 409 155 405 
3 313 358 119 
3 252 187 415 
3 17 109 123 
3 207 490 189 
3 57 271 89 
3 362 410 158 
3 441 369 395 
3 251 14 202 
3 58 353 444 
3 48 363 471 
3 312 21 195 
3 249 263 192 
3 112 130 74 
3 402 266 86 
3 452 159 182 
3 30 279 316 
3 207 267 95 
3 325 231 337 
3 425 414 417 
3 108 227 129 
3 24 230 347 
3 424 215 350 
3 76 501 263 
3 22 326 499 
3 249 201 41 
3 262 500 299 
3 252 276 187 
3 298 388 120 
3 209 458 6 
3 374 161 488 
3 317 500 463 
3 20 226 56 
3 192 181 201 
3 249 141 378 
3 467 456 287 
3 462 154 27 
3 172 116 450 
3 481 118 77 
3 295 176 126 
3 21 237 211 
3 89 73 170 
3 173 451 246 
3 341 117 239 
3 88 477 470 
3 322 54 408 
3 309 128 302 
3 144 268 365 
3 497 283 207 
3 150 96 297 
3 26 194 108 
3 73 89 271 
3 87 472 167 
3 501 235 274 
3 330 206 388 
3 336 193 396 
3 392 0 355 
3 121 437 45 
3 451 173 343 
3 146 61 240 
3 312 12 233 
3 458 389 15 
3 7 344 14 
3 178 246 440 
3 111 291 158 
3 23 311 119 
3 94 484 449 
3 260 106 276 
3 362 386 32 
3 453 468 63 
3 351 461 346 
3 136 342 332 
3 427 499 438 
3 140 294 264 
3 94 347 230 
3 236 85 101 
3 99 1 164 
3 385 141 461 
3 163 460 306 
3 448 422 139 
3 356 245 154 
3 262 178 391 
3 310 334 387 
3 228 131 332 
3 39 139 289 
3 261 319 78 
3 442 102 254 
3 211 199 435 
3 71 101 8 
3 249 378 492 
3 259 287 200 
3 416 117 327 
3 48 431 363 
3 59 118 481 
3 371 455 490 
3 429 208 278 
3 448 12 300 
3 383 259 200 
3 62 277 227 
3 288 122 389 
3 215 112 350 
3 389 232 286 
3 324 166 167 
3 270 180 479 
3 257 169 331 
3 475 308 248 
3 333 185 15 
3 199 466 464 
3 296 403 366 
3 239 117 480 
3 88 216 275 
3 337 71 8 
3 29 160 198 
3 141 242 378 
3 125 29 374 
3 208 342 278 
3 81 36 290 
3 418 76 177 
3 370 271 57 
3 40 428 203 
3 495 80 69 
3 428 107 203 
3 184 501 274 
3 101 433 94 
3 15 440 458 
3 359 121 45 
3 206 17 253 
3 224 84 436 
3 383 200 3 
3 468 90 188 
3 394 401 174 
3 216 82 275 
3 269 387 171 
3 351 323 461 
3 322 72 399 
3 475 116 13 
3 7 50 446 
3 352 353 255 
3 469 296 372 
3 182 284 79 
3 183 335 238 
3 339 484 479 
3 326 357 339 
3 215 250 218 
3 269 393 234 
3 283 371 490 
3 7 350 74 
3 106 292 210 
3 494 287 456 
3 254 102 489 
3 433 101 85 
3 302 30 309 
3 177 76 263 
3 222 345 293 
3 152 347 10 
3 102 44 393 
3 363 390 315 
3 126 218 331 
3 118 59 20 
3 133 15 223 
3 291 362 158 
3 367 168 222 
3 107 428 13 
3 491 223 321 
3 428 308 13 
3 164 186 318 
3 186 33 4 
3 279 302 311 
3 237 306 211 
3 43 333 171 
3 108 129 426 
3 421 392 157 
3 476 93 443 
3 244 73 478 
3 119 262 23 
3 431 452 363 
3 118 56 77 
3 82 216 81 
3 494 281 497 
3 475 397 258 
3 284 380 273 
3 221 496 210 
3 29 377 160 
3 352 444 353 
3 188 90 493 
3 167 166 314 
3 12 312 300 
3 255 205 411 
3 169 33 186 
3 317 299 500 
3 230 24 325 
3 183 345 157 
3 216 454 81 
3 55 165 341 
3 222 293 19 
3 0 63 465 
3 105 443 398 
3 35 354 104 
3 192 184 487 
3 117 341 327 
3 276 496 187 
3 292 149 233 
3 479 180 339 
3 53 228 127 
3 75 180 99 
3 450 191 396 
3 112 434 457 
3 61 49 444 
3 114 291 368 
3 336 380 412 
3 373 404 143 
3 271 358 313 
3 37 177 492 
3 270 479 400 
3 401 204 382 
3 217 429 482 
3 501 76 235 
3 441 395 47 
3 181 192 487 
3 110 162 62 
3 431 2 159 
3 196 438 214 
3 493 57 89 
3 423 229 474 
3 424 350 439 
3 388 298 384 
3 223 491 133 
3 359 143 113 
3 471 83 348 
3 258 224 436 
3 488 125 374 
3 406 344 373 
3 198 92 348 
3 44 319 179 
3 321 349 303 
3 40 203 164 
3 267 189 125 
3 366 334 372 
3 52 407 317 
3 251 147 14 
3 198 348 413 
3 7 446 344 
3 443 105 172 
3 19 357 222 
3 15 391 440 
3 460 163 11 
3 305 266 402 
3 224 11 473 
3 430 233 149 
3 6 451 338 
3 179 319 162 
3 295 80 176 
3 456 467 474 
3 67 399 6 
3 207 283 490 
3 146 49 61 
3 329 113 404 
3 464 435 199 
3 103 314 416 
3 430 150 297 
3 480 117 314 
3 312 297 237 
3 462 205 360 
3 339 180 326 
3 354 352 255 
3 113 124 97 
3 306 466 199 
3 495 176 80 
3 79 267 488 
3 114 368 243 
3 148 410 328 
3 360 205 353 
3 406 202 14 
3 137 449 241 
3 341 239 55 
3 393 44 234 
3 138 32 264 
3 405 46 409 
3 96 197 297 
3 185 349 223 
3 386 183 238 
3 424 250 215 
3 4 16 5 
3 8 94 230 
3 101 71 236 
3 78 44 102 
3 469 310 110 
3 483 419 376 
3 295 126 270 
3 164 203 214 
3 429 278 498 
3 286 288 389 
3 447 71 337 
3 380 284 476 
3 123 253 17 
3 189 483 125 
3 332 342 280 
3 428 40 308 
3 360 274 356 
3 331 218 304 
3 221 210 109 
3 363 452 390 
3 104 371 283 
3 277 129 227 
3 193 336 412 
3 379 289 139 
3 419 414 256 
3 144 400 433 
3 330 320 423 
3 71 132 236 
3 66 140 369 
3 293 345 183 
3 489 171 122 
3 363 83 471 
3 417 219 455 
3 84 276 191 
3 167 304 324 
3 136 131 124 
3 352 61 444 
3 258 436 475 
3 437 121 364 
3 65 328 66 
3 398 107 105 
3 75 214 499 
3 386 362 291 
3 355 309 307 
3 176 495 434 
3 120 388 445 
3 107 13 105 
3 189 490 145 
3 426 442 254 
3 70 51 181 
3 117 416 314 
3 471 348 92 
3 407 262 299 
3 68 212 245 
3 480 424 147 
3 306 199 211 
3 239 480 147 
3 379 139 422 
3 425 256 414 
3 128 465 302 
3 385 461 127 
3 218 250 324 
3 175 76 418 
3 75 499 326 
3 157 335 183 
3 255 353 205 
3 245 235 68 
3 371 104 354 
3 178 440 391 
3 60 374 413 
3 464 100 53 
3 337 154 447 
3 187 496 221 
3 242 208 429 
3 17 383 109 
3 400 80 295 
3 174 401 382 
3 401 394 375 
3 307 309 491 
3 390 452 182 
3 436 84 475 
3 135 86 51 
3 381 95 272 
3 497 153 494 
3 7 74 50 
3 48 213 247 
3 252 415 396 
3 183 38 293 
3 402 120 39 
3 246 407 52 
3 196 398 2 
3 421 453 392 
3 111 368 291 
3 416 16 4 
3 217 37 492 
3 374 29 413 
3 201 181 51 
3 272 340 381 
3 129 78 442 
3 48 427 431 
3 241 293 134 
3 197 163 306 
3 53 100 97 
3 102 442 78 
3 129 277 78 
3 195 435 379 
3 434 495 457 
3 225 384 298 
3 415 187 409 
3 137 338 10 
3 231 154 337 
3 119 311 313 
3 64 470 477 
3 209 399 72 
3 163 96 11 
3 482 50 204 
3 221 109 155 
3 100 156 97 
3 0 465 128 
3 42 142 486 
3 15 389 333 
3 266 346 41 
3 462 356 154 
3 148 81 111 
3 130 174 382 
3 31 364 460 
3 477 88 47 
3 150 18 96 
3 376 377 483 
3 316 23 262 
3 320 384 240 
3 386 291 114 
3 358 271 370 
3 131 136 332 
3 472 87 285 
3 116 172 105 
3 423 474 467 
3 304 167 472 
3 446 498 344 
3 249 41 141 
3 399 369 322 
3 151 34 152 
3 72 403 9 
3 444 49 58 
3 259 98 467 
3 475 248 397 
3 283 281 104 
3 82 290 275 
3 216 470 243 
3 24 347 152 
3 63 244 478 
3 448 445 42 
3 272 273 340 
3 500 370 463 
3 62 261 277 
3 404 373 115 
3 112 215 434 
3 307 303 355 
3 196 214 398 
3 294 140 66 
3 288 286 26 
3 132 375 394 
3 60 413 83 
3 482 429 446 
3 387 43 171 
3 376 160 377 
3 70 58 49 
3 90 91 22 
3 59 381 226 
3 200 153 59 
3 170 188 493 
3 158 410 111 
3 95 267 79 
3 343 173 52 
3 322 369 140 
3 493 247 57 
3 98 330 423 
3 265 278 342 
3 471 92 463 
3 109 210 123 
3 244 63 188 
3 33 169 257 
3 473 84 224 
3 222 357 367 
3 357 91 367 
3 155 109 77 
3 123 210 486 
3 93 476 284 
3 185 223 15 
3 391 316 262 
3 161 390 182 
3 161 374 60 
3 161 315 390 
3 31 224 258 
3 462 27 205 
3 464 53 323 
3 111 81 454 
3 13 116 105 
3 255 411 354 
3 466 100 464 
3 113 143 404 
3 365 268 130 
3 385 242 141 
3 162 319 261 
3 402 86 298 
3 353 432 360 
3 66 328 294 
3 459 174 268 
3 392 453 0 
3 181 58 70 
3 441 220 369 
3 9 194 26 
3 306 237 197 
3 263 492 177 
3 51 86 266 
3 384 146 240 
3 448 42 12 
3 346 461 141 
3 282 16 327 
3 417 455 152 
3 25 100 466 
3 118 20 56 
3 338 67 6 
3 330 17 206 
3 22 91 326 
3 406 143 45 
3 500 119 358 
3 325 24 34 
3 229 423 320 
3 45 202 406 
3 367 91 90 
3 5 318 4 
3 468 453 168 
3 85 236 459 
3 186 4 318 
3 327 420 282 
3 416 327 16 
3 484 94 479 
3 396 193 450 
3 216 243 454 
3 287 153 200 
3 456 474 104 
3 448 300 422 
3 482 446 50 
3 454 368 111 
3 345 222 168 
3 410 294 328 
3 361 234 179 
3 329 265 124 
3 64 114 470 
3 262 407 178 
3 115 373 344 
3 90 22 247 
3 322 408 366 
3 278 265 115 
3 419 256 451 
3 260 149 106 
3 133 30 316 
3 226 20 59 
3 45 143 359 
3 135 225 86 
3 109 383 3 
3 157 355 303 
3 126 169 1 
3 445 139 120 
3 29 198 413 
3 285 87 103 
3 394 174 459 
3 415 46 336 
3 74 350 112 
3 372 310 469 
3 170 493 89 
3 35 104 229 
3 18 260 276 
3 9 403 194 
3 24 152 34 
3 181 487 58 
3 22 499 301 
3 11 224 31 
3 447 212 132 
3 471 213 48 
3 207 189 267 
3 349 321 223 
3 483 189 145 
3 141 41 346 
3 429 498 446 
3 284 273 79 
3 403 296 469 
3 137 134 67 
3 378 217 492 
3 354 411 455 
3 359 113 156 
3 473 18 84 
3 157 345 421 
3 212 447 245 
3 219 490 455 
3 345 168 421 
3 17 98 383 
3 225 298 86 
3 78 319 44 
3 116 475 84 
3 351 464 323 
3 277 261 78 
3 221 155 409 
3 65 88 275 
3 443 412 380 
3 395 477 47 
3 485 204 401 
3 265 342 136 
3 216 88 470 
3 343 52 198 
3 273 272 79 
3 232 9 286 
3 146 135 70 
3 157 392 355 
3 470 114 243 
3 378 429 217 
3 483 377 125 
3 31 460 11 
3 98 17 330 
3 289 305 39 
3 281 283 497 
3 289 351 305 
3 460 121 25 
3 54 28 349 
3 260 150 430 
3 321 303 307 
3 34 231 325 
3 424 480 250 
3 376 451 343 
3 326 91 357 
3 387 269 190 
3 227 403 469 
3 484 339 19 
3 147 424 14 
3 408 43 387 
3 451 256 338 
3 54 349 408 
3 301 48 247 
3 489 393 269 
3 419 451 376 
3 457 130 112 
3 5 282 248 
3 253 142 445 
3 36 65 275 
3 65 47 88 
3 233 12 42 
3 494 104 281 
3 420 327 165 
3 334 310 372 
3 46 381 340 
3 56 226 405 
3 6 458 246 
3 140 264 54 
3 475 13 308 
3 301 499 427 
3 474 229 104 
3 426 26 108 
3 445 388 206 
3 240 61 35 
3 142 42 445 
3 352 354 35 
3 315 83 363 
3 184 432 487 
3 396 191 252 
3 37 217 482 
3 19 293 241 
3 66 369 220 
3 162 190 361 
3 10 347 137 
3 403 72 366 
3 26 426 288 
3 134 395 369 
3 311 302 73 
3 330 388 320 
3 473 11 96 
3 37 482 418 
3 44 179 234 
3 449 137 347 
3 270 1 99 
3 450 193 172 
3 486 292 233 
3 292 106 149 
3 491 309 30 
3 207 95 497 
3 122 288 254 
3 28 54 264 
3 126 176 434 
3 235 245 274 
3 232 458 209 
3 408 349 43 
3 288 426 254 
3 462 360 356 
3 214 75 99 
3 260 18 150 
3 156 100 25 
3 346 266 305 
3 275 290 36 
3 405 226 46 
3 292 486 210 
3 162 261 62 
3 413 348 83 
3 335 28 238 
3 60 315 161 
3 269 171 489 
3 338 137 67 
3 21 312 237 
3 2 93 159 
3 212 68 375 
3 400 295 270 
3 31 282 420 
3 85 268 433 
3 263 184 192 
3 472 285 33 
3 303 335 157 
3 135 146 225 
3 234 361 190 
3 489 102 393 
3 203 107 398 
3 256 10 338 
3 135 51 70 
3 257 304 472 
3 163 197 96 
3 375 132 212 
3 122 333 389 
3 72 9 209 
3 297 197 237 
3 5 308 40 
3 395 38 477 
3 366 72 322 
3 276 106 496 
3 380 476 443 
3 125 488 267 
3 287 494 153 
3 205 27 411 
3 395 134 293 
3 5 248 308 
3 460 364 121 
3 382 204 50 
3 329 404 265 
3 309 355 128 
3 182 488 161 
3 81 148 36 
3 30 302 279 
3 241 134 137 
3 90 247 493 
3 465 63 478 
3 432 353 58 
3 36 148 328 
3 49 146 70 
3 352 35 61 
3 396 415 336 
3 218 434 215 
3 14 344 406 
3 326 180 75 
3 1 270 126 
3 194 227 108 
3 123 486 142 
3 33 285 4 
3 14 424 439 
3 264 32 28 
3 40 318 5 
3 48 301 427 
3 435 351 379 
3 95 59 153 
3 445 206 253 
3 454 243 368 
3 145 419 483 
3 18 276 84 
3 46 340 380 
3 140 54 322 
3 268 174 130 
3 431 159 452 
3 166 250 480 
3 0 128 355 
3 491 321 307 
3 380 336 46 
3 293 38 395 
3 180 270 99 
3 411 231 151 
3 120 402 298 
3 4 103 416 
3 485 418 482 
3 419 145 414 
3 443 2 398 
3 317 463 92 
3 1 169 186 
3 447 154 245 
3 80 400 144 
3 430 149 260 
3 192 201 249 
3 182 79 488 
3 74 382 50 
3 146 384 225 
3 233 42 486 
3 173 246 52 
3 399 67 134 
3 92 52 317 
3 208 385 280 
3 69 80 144 
3 96 18 473 
3 190 162 110 
3 2 443 93 
3 195 422 300 
3 152 10 425 
3 235 76 175 
3 379 422 195 
3 458 232 389 
3 320 388 384 
3 53 97 228 
3 456 104 494 
3 51 41 201 
3 316 391 133 
3 410 148 111 
3 410 138 294 
3 246 458 440 
3 3 481 77 
3 19 241 484 
3 385 127 280 
3 386 114 64 
3 469 110 62 
3 399 134 369 
3 465 73 302 
3 196 2 431 
3 85 459 268 
3 455 151 152 
3 165 55 420 
3 208 242 385 
3 381 46 226 
3 58 487 432 
3 198 52 92 
3 203 398 214 
3 430 312 233 
3 351 435 464 
3 90 468 367 
3 64 183 386 
3 46 415 409 
3 257 472 33 
3 412 172 193 
3 303 349 28 
3 155 77 56 
3 479 94 400 
3 366 372 296 
3 480 314 166 
3 438 499 214 
3 175 485 375 
3 113 329 124 
3 387 334 408 
3 238 28 32 
3 304 257 331 
3 337 8 325 
3 375 485 401 
3 418 485 175 
3 371 354 455 
3 377 29 125 
3 221 409 187 
3 79 272 95 
3 126 331 169 
3 457 365 130 
3 184 360 432 
3 138 362 32 
3 185 333 43 
3 256 425 10 
