ply
format ascii 1.0
comment VCGLIB generated
element vertex 498
property float x
property float y
property float z
property float nx
property float ny
property float nz
element face 1000
property list uchar int vertex_indices
end_header
0.4350006 -0.02147908 -0.7172999 0.9301612 0.3312933 0.1582555 
-0.5435998 -0.01622035 0.3895354 0.3765149 -0.760084 -0.5296309 
0.5306922 0.2011003 0.8736829 -0.1924771 0.7449074 0.6388 
0.4200691 -0.05557442 -0.2489351 -0.9299635 0.24192 0.2768441 
-0.4921098 0.2913627 0.4317308 -0.7400165 0.3800152 -0.5549451 
0.7825665 0.1352883 -0.4718405 -0.648502 -0.5834559 -0.4889013 
0.2020827 0.2455895 -0.4624088 -0.4211828 0.9047129 0.06402932 
-0.579335 -0.04741614 0.7106924 0.5014953 0.8643216 -0.0380868 
-0.4075025 -0.05937749 -0.0212145 -0.1802819 0.9207596 0.3459771 
0.04138787 0.3087779 -0.1347771 0.7138554 0.6359261 -0.293272 
-0.7137927 0.2104565 0.496843 0.1841134 0.9733933 -0.1364105 
0.3532186 0.3518758 0.5536141 0.3052175 -0.9388969 -0.1591064 
0.6997694 0.0444122 -0.3981443 -0.02773399 0.6839426 -0.7290086 
-0.9467075 0.1013058 0.1617299 0.4227019 0.7987594 -0.4281432 
0.3941509 -0.4221623 -0.5194748 0.5126796 0.8568354 -0.05470602 
-0.2954461 -0.002185391 0.8771606 -0.2053774 -0.03885744 0.9779112 
0.2811197 0.2310995 -0.9511013 -0.4017985 0.8125374 0.4223043 
-0.9274548 0.2125206 0.6412435 0.5821682 0.7034882 -0.4076574 
-0.3158077 -0.01302356 0.1986621 -0.8056266 0.5851226 0.09272269 
0.281847 0.2855111 0.1293251 0.4328811 -0.771242 -0.4666903 
-0.3574139 -0.07041781 0.8994453 0.2956367 0.8246103 0.4823038 
-0.3189698 -0.06927757 0.5050649 -0.4060424 0.852851 -0.3282908 
0.5850891 0.003471707 -0.03034629 -0.6745422 0.6863804 0.2717993 
0.4954041 0.2100873 -0.5899345 0.02894517 -0.9988334 -0.03865246 
0.3149229 0.362728 0.2997978 0.5500772 -0.8350886 -0.006503054 
0.1507984 0.3066368 -0.4271954 -0.004509284 -0.9604556 0.2783968 
0.7299457 -0.01243318 -0.5599162 -0.3604782 0.9327373 0.007522951 
0.5545248 0.2041833 -0.480316 -0.3944277 -0.900644 -0.1823933 
0.01785125 0.1806273 0.4055743 0.4017958 0.02023759 -0.9155056 
-0.7355358 0.2140994 0.5661672 -0.1696836 0.9842411 -0.04976865 
0.1232764 0.3450132 -0.3669806 0.02432002 -0.9299467 0.3668894 
-0.8366065 0.2795047 0.8463435 0.8070188 0.4386091 -0.3954021 
-0.03987696 -0.050525 0.2647846 0.1445754 0.8876901 -0.4371546 
0.8046865 -0.1167876 0.4836052 -0.05820012 0.906934 0.4172332 
-0.7788148 0.2812163 0.9526197 0.8770378 -0.01791087 -0.4800874 
-0.9024747 0.2210362 -0.07474212 0.09552594 -0.9943249 0.04682956 
-0.314212 0.2684353 0.1828081 -0.1824747 -0.7231413 -0.6661605 
0.7149926 0.08148138 -0.6968562 -0.7234327 0.04983549 0.688594 
0.3882523 -0.3036002 -0.8311284 -0.9971606 -0.07521337 -0.003718621 
-0.727604 0.2252024 0.2907755 0.7678687 0.6349382 0.0850364 
0.8061678 0.02317373 0.463212 -0.224944 -0.8568505 0.4639046 
-0.4343548 0.02115799 0.437353 0.3618877 -0.8910663 -0.2739308 
0.8937383 -0.1483875 0.537967 -0.2153759 0.9575899 0.1914025 
-0.8030873 0.2671283 0.5333326 0.6115912 -0.6690292 0.4223226 
0.5626581 -0.0137272 -0.7773111 -0.1966663 0.6332421 0.7485498 
-0.9167701 0.2194066 0.4395568 0.4557022 -0.8897565 0.02586309 
-0.6406349 0.08724216 0.007235873 0.6728384 0.4309481 0.6013088 
-0.9989927 0.1106152 0.0733147 0.8815497 0.4521298 -0.1358265 
0.4609843 -0.08691037 0.4343611 0.3323836 0.6883716 -0.6447215 
-0.8792101 0.2674534 0.6260222 0.6444441 -0.7554327 0.1183774 
0.763506 0.02429465 -0.4501711 -0.4155085 0.7859297 -0.4578944 
0.3674199 -0.2825174 -0.6340564 -0.9612198 -0.2639624 -0.07987738 
0.1396427 0.2836809 -0.7327349 -0.2562427 -0.9662103 0.02788196 
0.2432503 0.2684377 -0.09057564 0.3023661 0.8333138 0.4627774 
-0.5192038 0.2871129 0.9548002 -0.8466732 -0.156565 -0.5085588 
-0.5194826 -0.02307804 0.6016055 0.8743833 -0.2559074 0.4122685 
-0.8917634 0.1537399 0.1130335 -0.3263567 0.1168704 0.9379939 
0.3147209 -0.1729361 -0.6478357 0.6350927 -0.7659473 0.09990926 
0.3407809 -0.176347 -0.7241927 -0.6391413 -0.7591838 -0.1230382 
0.6295801 -0.0226941 0.4602965 0.2890279 -0.8952321 -0.3391497 
-0.6478571 0.06981105 0.2038854 0.7001127 -0.03521381 -0.7131636 
0.3878722 -0.2059136 0.1784146 -0.3616428 0.2018932 -0.9101943 
-0.642463 0.3895022 0.2700671 0.2815421 -0.9589009 0.03526002 
0.3813501 -0.043358 -0.7684854 0.8672487 -0.2676215 -0.4198316 
0.4003084 0.1581423 -0.9025204 -0.4918044 -0.5828871 0.6468161 
0.2193111 0.2309887 -0.6998729 -0.7129029 0.6866126 -0.1425924 
0.662551 0.1148088 -0.4009129 -0.3212155 -0.7117462 -0.6246903 
0.5760219 0.0006766586 0.3963286 -0.05116628 -0.99762 0.04621961 
0.769319 -0.05084358 0.3932219 -0.4268234 0.09711 0.8991059 
0.02073653 0.3533562 -0.1645785 0.7346572 0.6215818 -0.2718728 
-0.5099447 0.3750917 0.4102316 -0.4110801 -0.8494816 -0.3307478 
-0.8226766 0.09522517 0.1763446 -0.04951609 0.9670942 0.2495534 
-0.3096902 0.1931427 0.2521923 0.2286438 -0.5888589 -0.7752208 
0.3849755 -0.2750348 -0.292145 -0.9814149 -0.1390137 0.1322874 
0.1870301 0.2837171 -0.5271124 -0.1861042 -0.9535356 0.2369286 
0.5904358 0.06225923 0.1857793 -0.7608981 0.3937802 -0.5157242 
0.3856684 0.2231332 0.6914935 -0.124385 0.9919936 0.02184327 
-0.9227366 0.1611413 0.2119901 -0.5556641 0.3047781 -0.7735295 
0.2541063 -0.03444826 0.3644148 0.6481028 -0.4060799 -0.6442529 
-0.6045457 0.01460527 -0.03274452 0.617669 0.3388233 0.7097068 
0.5438329 0.1477804 -0.7925589 -0.3814156 -0.6027814 0.70084 
0.8586643 -0.08192237 0.4699675 -0.4540392 0.4077629 0.7921982 
-0.6147688 0.1553833 -0.08057478 0.4962563 0.126327 0.8589361 
0.4626629 0.2456944 0.8481614 -0.7062258 0.4785388 0.5217717 
0.6504139 0.1889619 -0.7112545 -0.4341275 -0.7418879 0.5110145 
0.3976235 0.359188 0.3888806 -0.02653553 -0.9995542 -0.01368846 
-0.6717456 0.08116271 0.0813713 0.8527345 0.4715455 0.2246971 
0.07192076 0.3018351 0.2934278 -0.1150143 -0.8931212 -0.4348634 
0.1180064 0.3667846 -0.2571914 0.1690554 -0.9832693 0.06783632 
0.736795 0.1201028 -0.6708409 -0.5989195 -0.6277589 0.4972065 
-0.1366237 0.1696489 0.3248097 0.3529872 -0.2830204 -0.8917956 
0.6328976 0.0643269 0.009142915 -0.9644682 0.2595925 0.04912145 
0.08972892 0.4029341 0.05407451 0.4223147 -0.7292449 -0.5383793 
0.6390076 0.2577624 0.8927514 -0.8255005 0.3577462 0.4365395 
0.3842636 0.2015203 0.5671011 -0.04909623 0.9915119 -0.1203901 
0.4297627 -0.06718355 -0.5351039 0.4481875 0.8799121 -0.1577425 
0.3182113 0.1567387 0.4341192 -0.2878985 -0.4677646 -0.83565 
0.6191468 0.3434527 0.9013873 -0.824579 -0.3053582 0.4762625 
0.9924006 -0.07776824 0.5465052 -0.8394015 0.3983322 0.3697792 
0.3102415 0.08824472 -0.5449944 0.9470592 -0.1577713 0.2796198 
0.3933735 0.0540109 0.325789 -0.3672329 0.3559761 -0.8593143 
-0.5351195 0.3759895 0.2910813 -0.1736169 -0.9839653 0.04086018 
0.9683431 -0.07863483 0.6123835 -0.471506 0.1614702 -0.8669541 
0.2984481 0.274937 -0.4074757 -0.5907018 0.5562674 0.5844982 
-0.7882506 0.1340823 0.006606413 0.5422596 0.7673651 -0.3422066 
0.3178785 -0.2488715 -0.1661999 0.9399964 0.3363563 -0.05719405 
-0.7286419 0.2698171 0.09475238 0.9181798 -0.004553375 0.3961378 
-0.2389531 -0.01849479 0.07787859 0.0294189 0.9973294 0.06684759 
-0.2606986 0.02126049 0.1764164 -0.07144824 0.7643942 -0.6407782 
0.8173661 0.05259508 0.5728707 0.399834 -0.5036904 -0.7657864 
-0.4200383 0.3083059 -0.05619474 0.01400661 -0.6843455 0.7290233 
-0.05018558 -0.07506283 0.1387314 0.06222915 0.9955597 0.0706296 
-0.5987196 -0.09403954 0.1739363 0.3453448 0.9349111 0.08172088 
0.4106888 -0.3801923 -0.2627106 -0.7040452 0.6903192 -0.1666732 
-0.582202 0.3801161 0.9541429 -0.2785962 -0.5082802 -0.8148838 
0.4169452 -0.02359857 -0.4643975 0.2426097 0.9511783 -0.1907888 
0.4456096 -0.05165814 -0.647614 0.6554044 0.7051365 0.2706062 
-0.3972731 -0.1291947 0.3254813 -0.1322087 0.990989 -0.02149056 
-0.920684 0.2187897 0.3270408 0.3222826 -0.9333283 -0.1582161 
-0.5263788 0.359906 0.07962454 0.02701713 -0.9558298 0.2926766 
-0.609993 -0.06896992 0.2707286 0.5022802 0.8550174 -0.1290737 
0.6133241 -0.03440528 -0.5205491 -0.1800358 0.9047604 -0.3859997 
0.1041444 0.3121936 -0.4081183 -0.09979714 -0.970649 0.2188175 
-0.4334846 -0.01708768 0.924783 0.7159204 0.01473842 -0.6980264 
-0.1564894 0.05919896 0.96299 -0.5467011 -0.8195426 -0.1716616 
0.6082606 0.1841408 -0.5530883 -0.2110561 -0.9498449 -0.2307597 
0.4127791 -0.1472322 -0.6627639 0.005889173 0.99978 0.02013299 
0.3122278 -0.2466445 -0.3185494 0.9902977 0.1386164 -0.009802787 
-0.6523749 0.3304827 0.06857891 0.5295488 -0.7974829 0.2891352 
-0.03613099 0.3743547 -0.1715012 0.9667667 -0.0348472 -0.2532743 
0.283369 -0.0726288 0.3830014 0.4056685 0.8183864 -0.4070342 
0.1617046 0.2488088 -0.9514813 0.3829621 0.7040865 0.5979985 
0.3704441 0.3555987 0.2520363 0.07954297 -0.9964379 0.02800951 
0.4116912 -0.4013089 -0.1360579 -0.07250467 0.9712462 0.2267685 
0.5109239 0.07809003 0.2576279 -0.6120582 0.1964292 -0.766029 
0.3793792 -0.3968529 -0.696376 0.675972 0.7083264 0.2033117 
-0.1648167 0.05799635 0.2586052 0.4169413 0.4893335 -0.7659718 
0.4317052 0.2935642 -0.2907698 -0.8114934 -0.2761281 0.5150067 
0.422511 -0.01699178 0.4134213 0.136387 -0.8748891 -0.4647232 
-0.3865664 -0.02840156 0.7341577 -0.7940409 0.5991682 0.1024524 
0.5823601 0.09344716 -0.1884274 -0.9159682 0.3994926 -0.03752228 
-0.4771096 -0.03757895 -0.05463316 0.2314268 0.7300375 0.6430296 
-0.516952 0.3726089 0.9266114 -0.6592715 -0.6647859 0.351313 
0.584752 0.1727196 -0.1116216 -0.9176927 -0.2315488 0.3228396 
0.4061947 -0.4153132 -0.6571544 -0.8997539 0.4114258 0.1455052 
0.4174978 0.2357784 -0.669477 0.7003977 -0.7018997 -0.1295374 
-0.4811422 -0.07003287 0.04585887 0.05651638 0.9528595 0.2981017 
0.6336198 0.2291235 -0.03299975 -0.868782 -0.3648984 0.3347642 
-0.738336 0.3809737 0.9560665 0.4596503 -0.4210686 -0.7819353 
-0.7617896 0.2090197 -0.05835687 -0.5439121 -0.6484935 0.5325561 
0.3765045 -0.3561392 -0.2352873 0.6346083 0.7682402 -0.08413947 
-0.7265107 0.2406043 0.8750666 0.1123463 0.9893285 0.09277596 
0.7619121 0.0849466 -0.3375766 -0.3129182 0.200048 -0.9284735 
0.3311466 -0.1251405 0.2993724 0.4632616 0.8445659 -0.2685093 
-0.5755598 -0.01623457 0.7337241 0.9164223 -0.2003144 -0.3464741 
0.7742545 0.0687293 0.4935336 -0.0765494 -0.9866743 -0.1435759 
0.6230195 0.09303838 -0.3178824 -0.913331 -0.1760837 -0.3671799 
0.716567 -0.01064452 -0.6810332 -0.8124526 0.4574071 0.361524 
-0.7029976 0.2802107 0.6135026 -0.8695891 0.1049284 -0.4824987 
0.5251284 -0.05995673 0.1104598 -0.5649933 0.6834227 -0.4622943 
0.4145237 0.1752888 -0.4828505 0.5123416 -0.8575311 -0.04633223 
0.222346 0.002092517 0.288954 0.3088278 0.4496326 -0.8381264 
0.4543663 0.3552938 0.4306812 -0.5297826 -0.830321 -0.172909 
0.3753154 0.3078527 0.9142895 0.8013868 -0.5658965 -0.1937538 
0.3836496 -0.2845189 -0.8907249 0.0263732 0.59455 0.8036261 
-0.4131195 0.2864052 0.3363643 -0.8081438 0.3232214 -0.4923734 
-0.3469494 0.02228294 0.9113303 0.109275 -0.983213 -0.1461204 
0.2122739 -0.07619853 0.1990952 0.502687 0.8323779 -0.2333518 
-0.9799359 0.2129999 0.2199431 0.9068475 -0.4004166 0.1315076 
0.5050295 0.2021074 -0.719001 -0.220121 -0.6682708 0.710606 
0.6088544 -0.04565132 -0.7202734 -0.4502315 0.7226166 0.5245159 
0.6956465 0.1634405 -0.5217321 -0.3503871 -0.8706529 -0.3452426 
-0.8253924 0.1658458 0.1932834 -0.1540254 -0.6537936 -0.7408307 
0.368389 0.1979011 0.3919052 -0.05283888 0.6291203 -0.77551 
-0.9249804 0.1179078 -0.01019612 -0.7135048 0.6652398 -0.2199251 
0.4794589 -0.08438283 0.2723609 -0.8786169 0.3533867 0.3211702 
-0.1014745 0.3019837 -0.01927569 -0.02630644 -0.7147865 0.6988478 
-0.2118118 -0.01201909 0.8504866 -0.1169254 -0.0784436 0.9900379 
0.06881304 0.1005352 0.3814345 0.1462256 0.5892956 -0.7945746 
0.3282182 0.3340355 -0.06369972 -0.2466055 -0.9429685 0.2235984 
-0.1340835 -0.0539809 0.9701773 -0.7608101 0.2959075 -0.5775871 
0.318734 0.2820191 0.8438005 0.98461 0.04022753 -0.170073 
-0.9433768 0.2000035 0.5591066 0.9059909 -0.4216726 -0.03705033 
0.4111521 -0.2453908 0.1301964 -0.9271222 0.1789195 -0.3292904 
0.05172311 0.2858693 0.3227996 0.1096004 -0.6747628 -0.7298513 
0.3503728 -0.1620603 -0.8799053 0.4124795 -0.7546169 0.5103078 
-0.8694215 0.1801489 0.3097025 -0.7046769 -0.2976434 0.6440799 
0.2745351 0.2884234 0.4853705 0.9920135 0.1028387 -0.07303026 
-0.4052347 0.03310176 0.552484 0.3198321 -0.9470791 -0.02736291 
0.1102226 0.01462743 -0.05170249 0.2091055 0.5808132 0.7867216 
-0.01267177 0.2856899 -0.6013102 0.5155774 0.8529234 -0.08186391 
0.313186 0.2656806 0.7139744 0.9513578 0.2491007 -0.1812931 
-0.7544824 0.2352218 0.4418814 0.4148289 0.8616841 0.2922627 
-0.8426376 0.116585 0.2292699 0.1560047 0.427606 -0.890402 
-0.7979966 0.2240183 -0.01125203 0.2571149 -0.8960369 -0.361953 
0.4894037 -0.05666724 -0.7171825 0.04753226 0.9978559 -0.04499231 
0.4111603 0.3710692 0.1449424 0.006108823 -0.9990155 0.04394032 
0.6304758 0.143923 0.006688982 -0.9999853 0.002611667 -0.00476512 
0.911612 0.01211646 0.4784039 -0.5801186 -0.414694 0.7010644 
0.5827383 0.05359545 -0.8090485 -0.4968991 0.09672674 0.8624008 
0.1062704 0.2914269 -0.6842191 -0.1845749 -0.9807313 0.06401705 
0.2949006 0.3514179 0.05072047 -0.172798 -0.9846612 -0.02415016 
0.7867425 -0.03458797 0.5816131 0.4758776 -0.004337311 -0.8795009 
0.8403732 0.08384974 -0.5816815 -0.9055793 0.2212218 0.3619215 
0.06764205 0.3347067 -0.3297503 0.03855644 -0.96377 0.2639333 
0.378324 0.1137532 -0.8806018 0.2306818 0.7693945 0.5956661 
0.3329532 -0.2178373 0.03898394 0.9314289 0.2967662 -0.210642 
0.1936287 0.3067261 -0.4902929 -0.07125109 -0.943617 0.3232803 
0.5112164 -0.03782706 -0.4880318 -0.1520402 0.9275667 -0.3413264 
-0.8370299 0.3064134 0.6094007 0.563622 -0.783955 0.2602782 
-0.619962 0.2994502 0.8415852 -0.3430063 -0.1713328 0.9235756 
0.3676372 -0.08243462 -0.8895623 0.3477003 -0.5781186 0.7381623 
-0.1925371 0.1826669 -0.07120925 -0.1062791 -0.2355358 0.9660371 
0.4987211 0.1678529 0.9676144 0.0438738 0.834294 -0.5495713 
-0.4124027 -0.05361795 0.6273857 -0.3116801 0.9498541 -0.02515287 
-0.3445974 -0.03998923 0.8514791 -0.577986 0.7259533 0.3727252 
-0.4029965 -0.04568045 0.8329447 0.008483124 0.9998034 0.01792325 
0.1880775 -0.07240019 -0.006209819 0.3068366 0.8673057 0.3919594 
0.432451 0.1028861 -0.7450362 0.95682 0.2545449 0.1403651 
-0.758743 0.1494612 0.1273941 0.3067814 0.8735871 0.3777972 
0.3331988 -0.114466 0.1302667 0.5726987 0.802719 -0.1663086 
0.3285664 0.0138545 -0.4921486 0.7173315 0.6943688 0.05733687 
0.4670368 -0.0373505 -0.07613651 -0.7050386 0.6761255 0.2139505 
-0.06320262 0.3198139 -0.6266403 0.7744004 -0.5851081 0.2407335 
0.4157178 0.2001221 -0.5417778 0.5435601 -0.8392892 -0.01166065 
0.3816887 -0.003462501 -0.2949604 0.1907088 0.9815543 -0.0134696 
-0.14772 -0.1047511 0.902611 -0.6662688 0.5531994 0.5000563 
0.1814489 0.3763544 0.0009616473 -0.09903795 -0.9861218 -0.1332492 
-0.3586766 0.0514423 0.2440803 -0.6627155 -0.3849587 -0.6423512 
0.02016833 0.3725562 -0.05993941 0.736322 -0.6295471 -0.2479927 
0.09379356 0.2558368 -0.3530985 0.2165472 0.9717243 -0.09412304 
0.3215627 -0.08514763 -0.2720511 0.8391473 -0.529345 0.1250035 
0.4203835 0.1997963 -0.315539 -0.04673919 -0.9474002 0.3166203 
-0.108616 0.319202 0.2425155 0.2308215 -0.8581167 -0.4586473 
0.5776891 0.1442556 0.204854 -0.8094847 0.07677551 -0.5820997 
0.5493304 -0.01588642 0.1043036 -0.7346687 0.6000062 -0.3166298 
-0.8044465 0.2277454 0.5778779 -0.07328399 0.994821 -0.0704321 
-0.9904601 0.1843824 -0.0453295 0.856093 -0.237194 0.4591774 
0.5415404 0.3368616 0.8384143 -0.2139881 -0.2984465 0.9301284 
0.3882309 -0.09340464 -0.2303308 -0.8845827 0.4477647 0.1304618 
0.05301763 0.2441919 -0.703311 0.4600985 0.8874596 0.02692275 
-0.369348 0.007734427 0.6659549 -0.9233592 -0.1070035 -0.368725 
0.2096027 -0.09185151 0.07704071 0.2871039 0.9575965 -0.02408809 
0.1957744 -0.001324084 -0.08448533 0.2988015 0.3711476 0.8791856 
-0.3643823 -0.04828199 0.118181 -0.3904816 0.9204178 -0.01884592 
0.4660406 0.1770946 -0.7212462 0.7519454 -0.3923212 0.5297756 
0.3137732 0.06798977 -0.2725334 0.9794109 0.2018757 -0.000758529 
-0.2929794 0.270308 -0.05138474 -0.1117743 -0.8520337 0.5114149 
-0.9866577 0.1918321 0.06973594 0.5924939 -0.7708042 -0.2341196 
0.1902467 0.1559134 0.4538309 0.008779227 0.08345608 -0.9964728 
0.6485754 -0.05447565 0.540838 0.2350428 -0.1082708 -0.9659359 
-0.7841284 0.1827707 0.6344482 -0.01371539 0.9987792 -0.04745577 
-0.3407528 -0.09850303 0.2865218 -0.556312 0.7763628 0.2962732 
0.4437352 -0.05534926 -0.8123262 -0.6786351 0.4422076 0.5864357 
0.02197714 0.303823 -0.7524333 -0.07013673 -0.9865661 0.1475408 
0.3245198 -0.2813181 -0.7249293 0.9553704 0.238903 0.173761 
0.9513519 0.03080552 0.5928694 -0.6843271 -0.485739 -0.5438328 
0.3732114 0.2638326 0.9644388 0.6265258 0.0936876 -0.7737494 
0.7047452 0.01857724 -0.6180379 -0.7645735 0.5880385 0.2638904 
0.360579 -0.271657 -0.4937334 -0.9754764 -0.2199262 -0.008846826 
-0.4807934 0.07517196 0.2669588 0.1912116 -0.631653 -0.7513007 
-0.9358223 0.09656321 0.07237571 -0.2723427 0.9407525 0.2020255 
0.5785939 0.1617022 -0.4504165 -0.5359378 -0.7851189 -0.3104175 
-0.778145 0.1430579 0.08134193 0.3480766 0.897037 0.2723368 
0.1341009 0.2193266 -0.805558 0.1566427 0.9858935 0.05896619 
0.3396381 0.2584179 -0.1929455 0.3718881 0.9083835 0.1911509 
-0.6922121 0.322684 0.475646 0.387816 -0.9217229 0.005061836 
-0.7638524 0.2773794 0.3726542 0.9662623 -0.219093 0.1354087 
0.6436028 -0.0578411 -0.5764216 -0.3383693 0.9378958 -0.07653569 
0.6062372 0.01329695 -0.4146888 -0.2961655 0.8362086 -0.4615639 
0.5784686 0.09697903 -0.08636713 -0.9057859 0.2489242 0.3429123 
0.4735065 0.4009421 0.9629306 0.3166797 -0.7878007 -0.5282841 
0.1224466 0.3003397 -0.01623764 0.693202 0.4634076 0.5520186 
0.3655175 -0.1804791 -0.3653694 -0.9933354 -0.01091339 0.1147416 
-0.7911674 0.1256245 -0.08367258 -0.4335994 0.6891957 0.5805178 
0.3240207 0.1762965 -0.2458807 0.8559348 -0.4654799 0.225176 
-0.6988042 0.3318489 0.2844183 0.6861488 -0.7249906 0.05990414 
0.109681 0.1521316 0.4477493 0.1922389 0.2092811 -0.958773 
-0.6948073 0.1123765 0.1885106 0.27903 0.424923 -0.8611519 
0.6230836 0.3562842 0.9580429 -0.7038965 -0.5853558 -0.4023537 
-0.7816158 0.3366182 0.8373837 0.2948136 -0.9511835 0.0912964 
0.5704324 0.07014459 -0.3108664 -0.5735244 0.7516639 -0.3256857 
0.6939281 0.1418042 -0.6409481 -0.4750233 -0.8727321 0.1126567 
-0.5364589 -0.0534206 0.434997 0.79493 0.184321 -0.5780244 
0.3675027 -0.1645345 -0.8592359 -0.6114927 -0.790164 0.04144353 
0.5515399 -0.0659644 -0.654319 -0.1053713 0.9546245 0.2785482 
0.6402451 0.2069646 -0.6106898 -0.2875669 -0.9557502 -0.0620228 
0.06766084 0.2144403 0.3794954 0.07957327 -0.7478215 -0.6591139 
0.2507788 0.2846681 -0.4623463 -0.6534252 -0.6467188 0.393434 
0.3423891 -0.1188659 -0.853776 0.5665721 0.817004 -0.1072402 
0.2238128 0.333611 -0.2499345 -0.2634327 -0.9450501 0.1936065 
-0.4340011 -0.1061105 0.4584159 0.1873215 0.9330654 -0.3070827 
0.8402796 -0.1319833 0.6067898 0.2747383 0.6474091 -0.7109011 
-0.804168 0.3149987 0.6665244 0.0335394 -0.9956428 -0.087008 
0.207397 0.1441775 -0.09950203 0.1890715 -0.0403953 0.9811321 
-0.7033396 0.3774856 0.8644789 0.278749 -0.7001129 0.6573742 
0.4970207 0.2778244 0.3604614 -0.8926064 0.3916141 -0.2233658 
0.5517903 0.3157352 0.09940357 -0.6828023 -0.7284945 0.05547019 
0.3251642 0.2084077 -0.9021578 0.6577609 0.1966023 0.7271164 
-0.1861074 -0.1230471 0.9532863 -0.380291 0.8836628 -0.2729812 
0.7837731 -0.1207577 0.5394038 0.5415353 0.7515318 -0.3767486 
-0.8987077 0.1481499 0.3423161 0.1524892 0.9748995 -0.1622283 
-0.6771135 0.2450615 0.8597674 -0.1996561 0.6800362 0.7054702 
-0.2443018 0.05727001 0.8745071 0.1642534 -0.8725716 0.4600431 
0.01151477 0.37545 0.1159738 -0.07480235 -0.9961829 0.04499217 
0.50137 0.3592666 0.2765459 -0.5397295 -0.830528 -0.1375333 
0.6611028 -0.1300022 0.4637567 -0.08458988 0.9364046 -0.3405744 
0.5945507 0.2053528 0.9573604 -0.6018046 0.7925535 0.09843899 
-0.873701 0.2357493 0.5554187 0.3912992 -0.8888756 0.2382962 
0.07832629 0.3003896 0.00207471 0.2249695 -0.5965174 0.7704257 
0.1007267 0.3412412 0.001739463 0.8639315 0.3918562 -0.3163402 
-0.002925282 0.3416793 -0.4198463 -0.09483209 -0.9931321 0.06852505 
0.4071072 -0.009315807 -0.2488773 0.04203333 0.7806081 0.6236058 
0.401275 -0.3406069 -0.2029001 -0.997231 0.07255828 -0.01629857 
-0.2917468 -0.1493667 0.9701312 0.3847214 0.8628872 -0.3277425 
-0.4294636 0.3487075 0.06207312 -0.2797677 -0.9424265 0.1832003 
0.7310708 0.01394491 0.4039986 -0.1176631 -0.7720656 0.6245559 
0.3443953 0.1435429 -0.8396405 0.6908991 -0.587709 -0.4210184 
0.5295289 0.1745676 -0.3612246 -0.3284046 -0.9278987 -0.176506 
0.4500699 0.233255 0.2859095 -0.6389319 0.2777536 -0.7173695 
0.6048339 0.04905691 -0.3797975 -0.5014363 0.5821638 -0.6400366 
0.08693174 0.3410406 -0.1972243 0.109774 -0.9888511 0.1006143 
-0.4113989 0.1547607 -0.1196609 -0.0442825 -0.146192 0.9882646 
0.3503262 -0.2792952 -0.379481 -0.9799045 -0.1529498 0.1280375 
-0.943335 0.1559713 0.1794419 0.8545491 0.3202529 -0.4088815 
0.4416866 0.3357049 0.8654341 0.1036629 -0.8181177 0.5656302 
-0.7760969 0.2305798 0.7328497 -0.2783693 0.9220472 -0.2689601 
-0.6475318 0.1968215 0.9625088 0.1244743 0.6353067 -0.7621624 
0.4885278 0.2077764 -0.4664848 0.1745532 -0.9593146 -0.2219157 
0.4738518 0.2668765 -0.1494895 -0.5285951 -0.7449355 0.4070115 
0.4815112 0.03068046 0.2489974 -0.7694956 0.1374834 -0.6236785 
-0.8304895 0.2288877 0.6664545 0.2829266 0.9434249 -0.1729222 
0.07434674 0.3871667 -0.04250653 0.05846667 -0.9874123 0.1469649 
-0.7574235 0.1826706 0.3836597 -0.7438318 0.2922899 0.6010666 
-0.529016 0.2584742 0.893012 -0.6832128 0.2169625 0.6972429 
0.2412817 0.08007514 0.3483116 -0.006285957 0.7441441 -0.6679896 
0.4404973 0.3391119 0.7041436 -0.527744 -0.8425259 0.107872 
-0.3608364 0.2854626 0.1066936 -0.370752 -0.9282969 -0.02842416 
0.3869842 0.0002921096 -0.614509 0.7934242 0.5619262 0.2339168 
-0.2322473 0.292398 0.1661048 0.2734267 -0.9108728 -0.3091093 
0.4751197 0.3326982 0.04599404 -0.320256 -0.9160981 0.2412476 
0.4601453 -0.07258072 0.1080574 -0.4236544 0.905574 -0.02127744 
0.5959138 0.2484489 0.07211641 -0.8010327 -0.596986 0.04420915 
0.3153195 -0.2743998 -0.5499659 0.9633315 0.2682671 -0.005023117 
0.6117949 -0.05970899 0.3556368 -0.338782 -0.1516768 0.9285585 
0.3318262 -0.1718736 -0.6093851 -0.8500594 -0.5186212 0.09182084 
0.3905004 -0.2066696 -0.8972659 -0.9278647 -0.3055099 0.2138475 
0.4930451 -0.1376899 0.4064583 0.1094048 0.9701244 -0.2165395 
-0.3742357 0.02115207 0.7344937 -0.7842543 -0.59671 0.1699486 
0.3048759 -0.09983218 0.02295865 0.7866316 0.6065806 0.1151988 
0.121287 0.2781686 -0.9183667 0.1248893 -0.909683 0.3960802 
0.1482551 0.3690257 -0.1448041 -0.05700015 -0.9848241 0.1639287 
0.3215105 0.01689022 -0.1084891 0.7454014 0.3118561 0.589171 
-0.9586143 0.1706099 0.4660386 0.8887561 0.4583237 0.007214627 
-0.719101 0.191544 0.09018052 -0.2609617 -0.9651791 0.01812214 
0.7414914 -0.01047943 0.5467418 0.4077788 -0.2773666 -0.8699335 
-0.8555934 0.224737 -0.05812328 0.1215559 -0.9918629 0.03784467 
-0.52143 0.1364601 -0.1068913 0.309074 0.1404932 0.9406035 
0.2649533 0.2562849 -0.9763916 -0.4581095 -0.8194394 0.344463 
0.02032837 0.2835329 -0.8273329 0.7997001 0.2303667 0.5544466 
-0.4444896 -0.1035929 0.1531276 -0.2219332 0.9539267 0.2019149 
-0.9177926 0.237322 0.1654307 0.02463824 -0.8750176 0.4834638 
0.1176031 -0.03121213 0.2606454 -0.1356262 0.8576802 -0.4959741 
-0.8961179 0.1775083 -0.1113171 0.1282979 -0.0740911 0.9889642 
-0.6757432 0.1261661 -0.02489644 0.5958064 0.6229278 0.5069277 
-0.8179267 0.2270931 0.4443813 0.0274957 -0.9357488 0.3515938 
-0.6415328 -0.03328526 0.3638406 0.7042494 -0.3090604 -0.6391514 
0.4102569 0.1970497 0.8426604 0.01087459 0.9998637 0.01242508 
0.3862473 -0.1356853 -0.9129274 -0.05053203 0.3988928 0.9156042 
0.4347074 0.2798986 -0.7035944 0.03714334 -0.7215982 0.6913151 
-0.6881959 -0.01590003 0.2225666 0.9749058 0.1964204 -0.104774 
-0.6477967 0.3199497 0.5295637 -0.3863869 -0.6973565 -0.6036549 
0.3190541 -0.07836901 -0.07761841 0.9400796 0.05929408 0.3357598 
-0.2709548 0.02606429 0.519881 -0.8526254 -0.4377277 -0.2853496 
0.5630288 0.4002408 0.9084707 -0.2378318 -0.8980008 0.3701764 
0.3928988 -0.1175597 0.03291058 -0.8428549 0.5361771 -0.04593385 
0.3206972 -0.1487767 -0.4670995 0.9387528 -0.3376446 0.06884256 
-0.9395228 0.1807422 0.1166028 -0.07077665 -0.9857571 0.1525569 
0.5420622 -0.06088685 -0.6074018 -0.2262891 0.9406748 -0.2528321 
-0.5077392 -0.04890659 0.6748282 0.09959671 0.9944833 -0.03291626 
-0.8271006 0.1894511 0.09414565 0.6020308 -0.1719292 0.7797431 
0.4447625 0.3015406 0.6166125 -0.9983973 -0.05543564 -0.01139538 
-0.04058687 0.3861627 -0.2885554 0.7064729 -0.6229094 0.3359762 
0.3912169 0.2471938 -0.2474378 0.01524174 0.2528942 0.9673739 
0.1527354 0.2383049 -0.0561517 0.3303283 -0.2202417 0.9178109 
-0.4548441 0.03034138 0.7523233 0.1792834 -0.9690604 -0.169645 
0.7204936 -0.1073021 0.4041182 -0.3238562 0.8166699 0.4776687 
0.9159877 0.08494464 0.5896977 -0.2338215 -0.9704126 0.06022488 
0.3346951 0.2470934 0.4220839 0.6455029 0.7555482 -0.1116832 
-0.2848684 0.1566859 0.2811876 0.1148837 0.1444856 -0.9828151 
-0.6182299 0.2959686 -0.01252523 0.4469054 -0.5740798 0.6860817 
0.7945753 0.1708192 -0.5165403 -0.2882846 -0.9404113 -0.1803293 
0.132562 -0.05380771 0.1619921 0.0242212 0.9795478 -0.1997486 
0.4053192 -0.3106753 0.06635991 -0.9687715 0.1787442 -0.1718496 
-0.4382097 -0.03912406 0.5793164 0.2584099 0.9602512 -0.1055558 
-0.7320573 0.27897 0.1693799 0.9725345 -0.1874885 0.1379303 
-0.6672716 -0.01265765 0.07415476 0.7340023 0.5952328 0.3270148 
0.4056492 -0.05374494 0.4607864 0.4074401 0.3056258 -0.8605728 
0.5512253 0.1930502 -0.6637285 -0.2536449 -0.9590551 0.1260069 
-0.4493341 0.04405145 0.6574447 0.05926174 -0.9968814 0.05211017 
0.2979398 -0.07385473 0.3009863 0.3252088 0.9205078 -0.216575 
-0.8042786 0.2379758 0.1151039 0.1424113 -0.9736821 -0.1779388 
-0.643993 0.4370472 0.9508245 -0.1607933 -0.9829332 0.08937547 
0.3988355 0.208314 0.919433 0.540904 0.8406009 -0.02851364 
-0.2539088 -0.05517126 0.3796967 -0.7588684 0.6488958 -0.05525532 
0.2791208 0.337622 -0.1868543 -0.2366949 -0.9566754 0.1695518 
0.5445746 0.2766663 0.8518416 -0.2929508 0.2291818 0.928254 
0.333926 0.02467253 -0.233153 0.6502326 0.7597107 0.006101062 
-0.4151161 -0.00267784 -0.08180647 -0.0882064 0.4756046 0.8752256 
0.1610335 0.3318566 0.08785988 0.2705725 -0.7371177 -0.6192318 
-0.5167456 -0.0839916 0.3497994 0.3421306 0.923601 -0.172939 
0.2430601 0.2783752 0.2471581 0.3582879 -0.8939741 -0.269147 
0.5340611 0.2722633 0.2506046 -0.8708367 -0.09643389 -0.4820208 
-0.06378647 0.340074 -0.4168225 0.9617453 -0.2638884 -0.07354452 
0.436385 0.02748153 0.3308001 -0.289955 -0.8930346 -0.3441154 
0.3303266 0.2518267 -0.1068989 0.6661451 0.1844993 0.7226414 
-0.4475374 0.2047655 0.2206781 -0.432436 0.09653413 -0.8964822 
0.3675773 -0.1497685 -0.1420007 -0.9771571 0.2037116 0.06054432 
0.5895465 0.2211537 0.2294049 -0.8399169 -0.1804312 -0.5118439 
0.279883 0.232512 -0.9234269 -0.8100733 0.5796486 -0.08825398 
-0.351603 0.0372984 0.5987123 -0.06372296 -0.9920952 -0.1081039 
0.5184194 0.02017207 -0.137929 -0.6248372 0.7442915 0.2358152 
0.3660955 -0.1977899 0.003930279 -0.9982075 -0.05804147 0.01459469 
-0.6940142 0.1997356 0.1736815 0.9486085 0.1905555 -0.2526472 
-0.2231201 -0.05018029 0.8709621 -0.1977327 0.5246246 0.8280525 
-0.3849739 0.3368636 0.2670768 -0.7859096 -0.5815908 -0.2099959 
-0.01833905 0.3864005 -0.224194 -0.1358343 -0.9907289 0.002318169 
0.9856498 -0.02853071 0.5448197 -0.9217954 -0.2066777 0.3279901 
0.6055414 0.09586203 -0.7641594 -0.5715196 -0.2293144 0.7878962 
0.4749119 -0.08010371 -0.5725097 0.1080607 0.927039 -0.3590565 
0.4015545 0.3196872 -0.08029082 -0.2837709 -0.9313128 0.2283213 
-0.8104783 0.1637442 0.4783034 -0.2550545 0.9303107 -0.2635701 
-0.9669733 0.1083135 -0.02794898 0.3150177 0.8804448 0.354374 
0.5494584 -0.1181592 0.3502762 -0.2806808 0.8055523 0.5218274 
0.3839497 -0.2670216 -0.117253 -0.9940687 -0.1081155 -0.01176981 
-0.6690564 0.1753626 0.4191261 0.04486075 0.9694599 -0.2411122 
0.6930611 0.1083852 -0.4878382 -0.09247348 -0.8397952 -0.5349698 
0.3167092 0.333711 0.1499355 0.4080522 -0.8710572 -0.2734095 
0.1126518 -0.04083875 0.02429683 0.2396259 0.9417999 0.2357806 
-0.5037351 0.3481303 0.4436277 -0.6754304 -0.2508653 -0.6934409 
-0.9213528 0.1744917 0.567488 0.2227356 0.9018582 -0.3701902 
-0.9829848 0.1824424 0.2808606 0.7996218 0.5003603 -0.332031 
0.4942924 0.01517371 -0.2543713 -0.4198242 0.9053459 -0.06400488 
-0.7122947 0.3165916 0.8537997 -0.3230897 -0.4261643 0.8449835 
-0.2506624 -0.01666383 0.2959172 -0.909329 -0.3004189 0.2878702 
0.3318204 0.1089321 0.4233071 -0.3027624 0.525158 -0.7953263 
0.6267141 0.2516066 0.9662993 -0.5925502 0.1092548 -0.79809 
0.802205 0.007263328 -0.4995469 -0.7573288 0.5624735 -0.331778 
0.4626832 0.01953823 -0.7925255 0.4247346 -0.3365831 0.8404239 
-0.6213354 0.2567593 0.5067593 -0.5776007 0.5005199 -0.64487 
-0.8646851 0.1074311 -0.05678669 0.002025438 0.9924667 -0.1224981 
-0.8582355 0.1763874 -0.02920786 0.02129542 -0.1359229 -0.9904906 
0.2782627 -0.04126635 -0.08905482 0.2683824 0.5390073 0.7983996 
0.4138969 -0.1274819 0.2937197 -0.2593425 0.9423052 0.2116658 
0.4181226 -0.4174312 -0.4542356 -0.9668414 0.2498409 -0.05289031 
0.382425 0.3359392 0.8047256 0.3401659 -0.9385131 -0.05899421 
0.2206182 0.2482497 -0.7046197 -0.842091 -0.535237 -0.06636306 
0.3869329 -0.1057151 0.1743469 -0.6094453 0.7878728 -0.08850383 
-0.3386563 -0.02790738 0.9676518 0.2849624 -0.191571 -0.9392002 
0.5510386 -0.0003524335 -0.3725708 -0.4121852 0.8233544 -0.3901166 
-0.5344403 0.1984539 0.9475752 -0.5720935 0.8143153 0.09797829 
0.4059061 -0.3684627 -0.01855123 -0.7861864 0.5500498 -0.2817021 
-0.1112156 -0.02944061 0.8953487 -0.7807062 0.2504128 0.5725306 
0.3302253 0.3030247 -0.2466397 -0.2773968 -0.9433582 0.1820062 
0.6740062 0.01461544 -0.4552946 -0.1914343 0.9051843 -0.3794658 
-0.01704059 -0.03815771 0.0223791 0.08554164 0.8845443 0.4585456 
0.3898887 0.1429332 0.3731957 -0.6904155 0.07399284 -0.719619 
0.09990191 0.1299373 -0.07712979 0.1738261 -0.07525292 0.9818969 
-0.01472125 -0.02485864 0.3087495 0.1359736 0.6203553 -0.7724445 
0.3864191 -0.3163759 0.07693112 0.4280774 0.7166883 -0.550552 
-0.622159 0.1643539 0.2479115 0.3830879 0.4843377 -0.7865499 
-0.7321026 0.2992892 0.702262 -0.9079143 -0.3630191 0.2095443 
-0.1950942 0.08825953 -0.06768847 -0.09745037 0.25006 0.9633138 
-0.3363928 0.03164158 0.4298781 -0.1334015 -0.9908487 -0.02056737 
-0.5393335 0.1177927 0.2554741 0.1154559 -0.1443342 -0.9827704 
0.5520393 0.1591129 -0.2727861 -0.6726227 -0.732759 0.1031642 
-0.5737478 0.2248024 -0.06487314 0.4202669 -0.4431165 0.7918482 
0.3995908 0.3325347 0.6611044 0.1362069 -0.9904767 -0.02008807 
0.4950617 0.07391055 -0.8121384 0.1133967 0.30978 0.9440221 
-0.03890882 0.3451377 -0.3098524 0.9917066 -0.1246411 -0.03134711 
-0.6633198 0.1969312 0.06511583 0.7482361 -0.4169379 0.5160482 
0.3998486 0.1534364 -0.6339618 0.8477746 -0.4709904 0.2438161 
0.253749 0.3904063 0.1188326 -0.02239189 -0.9454788 -0.324913 
0.3450496 -0.1146925 -0.4167587 -0.5393376 -0.7164678 0.4424803 
0.5151802 0.2797525 -0.08183186 -0.4305456 -0.8658324 0.2548821 
-0.2480814 -0.1282425 0.9035117 -0.07488468 0.7442447 0.6636958 
-0.1169476 0.3570829 0.1025466 0.2467572 -0.9674131 0.05677035 
0.4082805 0.05589549 -0.6922185 0.8943908 -0.0516053 0.4442995 
-0.2259773 0.02823102 -0.03904527 -0.1141035 0.7404896 0.6623108 
0.6975712 -0.08929838 0.5030971 0.09629472 0.8290179 -0.5508689 
0.2277741 0.3838348 -0.04156299 -0.1600558 -0.9861558 0.04334599 
-0.6028868 0.3681901 0.8885525 -0.2744592 -0.6601756 0.6991712 
0.3024265 0.2554065 0.3693264 0.8709971 0.3558578 -0.3387173 
0.02409807 0.3308592 -0.5340328 -0.164839 -0.9819084 0.09318764 
-0.7147167 0.1570954 0.01710945 0.1656476 -0.2445541 0.9553818 
-0.5066745 0.1778738 0.2395133 -0.3844834 0.6189882 -0.6848549 
-0.135668 -0.05243175 0.1973864 0.3996068 0.826351 -0.3968104 
0.2928822 0.2218792 0.3348133 0.2046413 -0.6356931 -0.7443227 
3 255 343 135 
3 396 79 46 
3 125 398 286 
3 177 424 462 
3 476 480 494 
3 455 181 477 
3 458 314 20 
3 193 77 172 
3 421 140 442 
3 174 377 451 
3 334 302 460 
3 102 256 427 
3 37 428 157 
3 197 91 234 
3 224 23 328 
3 318 160 328 
3 486 304 233 
3 228 444 473 
3 218 245 487 
3 277 335 178 
3 278 71 193 
3 391 5 436 
3 147 329 143 
3 357 82 46 
3 58 185 284 
3 186 118 77 
3 468 335 362 
3 67 344 316 
3 26 50 447 
3 340 430 484 
3 458 124 180 
3 416 165 425 
3 285 195 116 
3 459 442 281 
3 480 476 390 
3 317 205 298 
3 275 352 246 
3 6 288 456 
3 84 37 89 
3 361 380 401 
3 177 303 15 
3 49 17 182 
3 68 344 386 
3 446 257 271 
3 86 278 60 
3 166 385 348 
3 66 152 12 
3 84 286 398 
3 93 97 406 
3 261 47 13 
3 251 236 331 
3 496 32 111 
3 217 438 242 
3 406 307 93 
3 315 425 101 
3 87 304 411 
3 79 396 141 
3 74 288 207 
3 448 218 0 
3 179 490 351 
3 403 257 213 
3 302 443 471 
3 12 152 50 
3 184 90 72 
3 123 216 154 
3 80 245 317 
3 287 277 28 
3 122 204 311 
3 329 137 383 
3 203 447 5 
3 42 81 33 
3 54 327 114 
3 312 483 3 
3 130 397 400 
3 197 234 418 
3 380 104 401 
3 33 68 386 
3 304 87 233 
3 354 401 194 
3 459 115 442 
3 483 239 3 
3 319 173 296 
3 317 245 218 
3 321 351 332 
3 83 406 325 
3 485 424 20 
3 152 66 5 
3 322 476 357 
3 78 161 414 
3 171 66 125 
3 217 452 243 
3 155 40 355 
3 290 405 351 
3 231 312 372 
3 5 66 436 
3 52 74 200 
3 166 348 15 
3 456 52 358 
3 110 247 315 
3 404 117 21 
3 310 272 9 
3 444 228 18 
3 113 454 14 
3 83 336 381 
3 318 232 160 
3 220 242 400 
3 136 496 108 
3 292 202 102 
3 117 291 21 
3 227 482 409 
3 100 445 466 
3 36 425 337 
3 472 322 408 
3 97 446 279 
3 165 495 4 
3 424 485 299 
3 485 20 314 
3 482 227 201 
3 220 400 153 
3 300 202 292 
3 420 399 55 
3 254 359 350 
3 437 196 132 
3 397 250 48 
3 117 410 291 
3 144 259 51 
3 399 348 385 
3 473 444 373 
3 188 41 473 
3 396 112 146 
3 189 465 438 
3 409 310 92 
3 465 107 111 
3 322 357 408 
3 20 177 15 
3 271 279 446 
3 170 268 157 
3 394 291 410 
3 441 324 168 
3 405 463 430 
3 250 59 355 
3 468 362 32 
3 289 211 63 
3 153 48 347 
3 259 454 323 
3 462 124 177 
3 172 77 401 
3 480 354 494 
3 217 220 349 
3 416 425 36 
3 252 444 18 
3 171 286 282 
3 266 267 276 
3 269 121 208 
3 275 160 232 
3 371 158 293 
3 111 107 496 
3 100 466 134 
3 167 438 392 
3 449 371 439 
3 440 236 431 
3 223 359 254 
3 204 426 382 
3 263 56 219 
3 178 335 468 
3 173 497 492 
3 313 133 461 
3 396 146 141 
3 414 330 175 
3 488 408 8 
3 228 473 260 
3 9 272 230 
3 290 25 207 
3 435 4 495 
3 417 434 375 
3 261 432 47 
3 144 164 135 
3 383 275 232 
3 278 86 71 
3 323 73 273 
3 164 185 255 
3 99 487 481 
3 426 321 229 
3 233 87 184 
3 381 162 296 
3 83 76 367 
3 413 190 223 
3 272 53 230 
3 184 87 497 
3 330 235 175 
3 208 121 378 
3 91 22 235 
3 327 151 34 
3 441 77 324 
3 422 61 457 
3 343 255 57 
3 340 297 196 
3 478 44 199 
3 300 292 42 
3 191 187 11 
3 440 431 353 
3 129 382 426 
3 452 372 352 
3 179 405 430 
3 98 42 102 
3 201 437 482 
3 385 123 154 
3 415 352 275 
3 56 263 380 
3 270 197 147 
3 55 399 154 
3 116 429 126 
3 148 402 114 
3 163 455 325 
3 341 453 235 
3 67 316 59 
3 469 220 61 
3 95 116 338 
3 192 365 333 
3 348 241 139 
3 1 283 366 
3 375 341 222 
3 333 301 431 
3 459 208 115 
3 153 347 453 
3 247 212 176 
3 149 494 354 
3 30 290 88 
3 183 422 393 
3 457 220 453 
3 126 285 116 
3 39 267 192 
3 491 114 402 
3 20 123 458 
3 448 63 211 
3 193 172 278 
3 149 356 363 
3 254 200 122 
3 100 134 330 
3 422 457 375 
3 458 166 303 
3 411 409 19 
3 352 372 312 
3 59 138 67 
3 290 207 288 
3 163 271 257 
3 368 211 289 
3 205 80 64 
3 371 293 266 
3 120 370 366 
3 265 230 53 
3 332 227 92 
3 62 128 119 
3 185 164 346 
3 115 338 221 
3 295 491 402 
3 437 411 19 
3 44 448 253 
3 253 289 195 
3 346 164 38 
3 303 124 458 
3 250 355 489 
3 469 105 206 
3 440 182 17 
3 287 28 90 
3 132 85 24 
3 497 173 96 
3 443 302 210 
3 51 58 346 
3 105 127 372 
3 251 326 158 
3 333 186 301 
3 194 356 149 
3 168 118 441 
3 295 402 148 
3 343 376 127 
3 214 21 394 
3 422 183 61 
3 243 452 294 
3 491 443 210 
3 454 113 323 
3 216 123 20 
3 326 151 471 
3 180 462 424 
3 65 456 419 
3 339 72 36 
3 210 334 54 
3 110 390 476 
3 1 41 283 
3 413 479 190 
3 95 115 208 
3 383 103 265 
3 467 472 189 
3 69 229 310 
3 336 83 325 
3 474 389 260 
3 423 435 470 
3 327 460 302 
3 318 475 232 
3 332 229 321 
3 475 143 329 
3 124 303 177 
3 105 469 461 
3 308 43 49 
3 203 26 447 
3 102 202 109 
3 127 150 343 
3 361 118 168 
3 50 26 464 
3 280 49 293 
3 32 496 136 
3 385 166 123 
3 395 106 128 
3 157 428 170 
3 282 286 84 
3 443 491 295 
3 280 293 471 
3 119 315 101 
3 434 422 375 
3 0 195 63 
3 258 203 37 
3 242 220 217 
3 114 327 148 
3 473 420 188 
3 417 375 222 
3 479 9 190 
3 83 2 406 
3 472 212 322 
3 115 225 442 
3 51 345 58 
3 391 89 203 
3 398 23 145 
3 423 106 395 
3 295 34 280 
3 306 347 48 
3 379 394 55 
3 265 415 275 
3 246 99 275 
3 458 180 299 
3 433 453 347 
3 309 212 467 
3 260 473 41 
3 122 200 25 
3 75 330 134 
3 24 187 492 
3 427 98 102 
3 395 39 423 
3 370 60 366 
3 463 290 288 
3 66 156 262 
3 414 67 138 
3 459 269 208 
3 153 453 220 
3 381 76 83 
3 470 474 60 
3 114 142 54 
3 321 88 351 
3 214 241 21 
3 294 415 384 
3 174 56 377 
3 360 410 117 
3 98 427 81 
3 30 122 25 
3 259 144 454 
3 260 41 1 
3 54 334 460 
3 340 196 201 
3 140 281 442 
3 417 239 273 
3 58 345 57 
3 348 399 241 
3 313 73 113 
3 26 203 258 
3 204 88 321 
3 197 418 342 
3 7 379 55 
3 204 382 479 
3 105 133 150 
3 328 23 27 
3 251 158 29 
3 130 78 397 
3 72 416 36 
3 470 435 495 
3 283 188 55 
3 158 371 449 
3 35 363 356 
3 27 23 125 
3 105 150 127 
3 449 439 4 
3 69 310 9 
3 484 342 340 
3 162 11 85 
3 305 85 132 
3 401 354 172 
3 324 13 47 
3 142 210 54 
3 52 200 350 
3 428 84 398 
3 291 394 21 
3 204 479 311 
3 406 238 325 
3 176 212 309 
3 364 219 86 
3 168 377 361 
3 129 426 229 
3 170 285 268 
3 429 95 208 
3 129 69 382 
3 276 128 62 
3 46 79 357 
3 40 109 355 
3 106 423 480 
3 409 482 437 
3 384 272 309 
3 237 35 248 
3 32 362 392 
3 256 198 427 
3 306 386 433 
3 312 231 483 
3 151 327 302 
3 38 164 144 
3 261 56 174 
3 215 216 20 
3 176 304 486 
3 279 271 374 
3 90 28 136 
3 137 329 463 
3 365 118 186 
3 97 93 446 
3 88 204 30 
3 0 218 487 
3 277 178 28 
3 398 80 428 
3 90 389 72 
3 210 302 334 
3 237 363 35 
3 37 203 89 
3 365 192 43 
3 378 268 285 
3 34 148 327 
3 7 55 154 
3 497 96 287 
3 488 107 465 
3 31 34 151 
3 141 146 8 
3 331 236 17 
3 438 167 242 
3 443 280 471 
3 352 415 294 
3 131 419 16 
3 419 264 65 
3 481 145 23 
3 397 48 400 
3 62 119 101 
3 299 226 424 
3 280 443 295 
3 264 230 6 
3 269 459 320 
3 382 69 479 
3 339 337 247 
3 436 171 391 
3 328 160 224 
3 2 213 307 
3 338 0 487 
3 462 180 124 
3 448 211 253 
3 422 434 393 
3 331 326 251 
3 317 64 80 
3 184 72 233 
3 146 244 8 
3 380 263 104 
3 65 264 6 
3 489 386 306 
3 9 230 190 
3 191 181 76 
3 268 258 157 
3 112 120 410 
3 49 43 209 
3 451 35 356 
3 394 410 283 
3 109 387 256 
3 440 17 236 
3 35 377 248 
3 263 364 494 
3 285 44 195 
3 125 23 398 
3 198 256 387 
3 255 185 57 
3 119 128 390 
3 337 315 247 
3 261 174 432 
3 273 483 345 
3 269 464 121 
3 2 403 213 
3 10 192 29 
3 406 97 238 
3 452 349 372 
3 95 338 115 
3 288 103 463 
3 492 497 411 
3 226 299 180 
3 199 80 478 
3 186 77 301 
3 324 377 168 
3 229 69 129 
3 468 136 28 
3 349 220 206 
3 419 456 358 
3 324 77 193 
3 235 453 175 
3 15 348 215 
3 325 271 163 
3 366 60 260 
3 445 100 335 
3 396 120 112 
3 356 194 451 
3 319 418 234 
3 308 365 43 
3 253 368 289 
3 437 132 24 
3 217 243 189 
3 70 425 165 
3 452 352 294 
3 181 455 163 
3 300 489 355 
3 222 341 22 
3 141 8 408 
3 445 335 249 
3 480 423 354 
3 457 341 375 
3 40 316 68 
3 173 466 96 
3 46 82 364 
3 438 465 111 
3 190 240 223 
3 104 194 401 
3 158 449 29 
3 56 71 219 
3 37 84 428 
3 116 0 338 
3 40 68 198 
3 90 184 287 
3 26 258 268 
3 16 419 358 
3 269 320 12 
3 137 463 103 
3 273 345 259 
3 490 201 227 
3 254 493 223 
3 262 27 125 
3 311 493 122 
3 80 199 428 
3 360 252 18 
3 404 444 252 
3 318 156 475 
3 293 49 209 
3 490 179 340 
3 33 489 300 
3 413 311 479 
3 409 411 304 
3 192 431 236 
3 381 477 162 
3 218 205 317 
3 214 216 139 
3 335 161 362 
3 276 267 395 
3 70 439 371 
3 226 180 424 
3 314 458 299 
3 432 450 363 
3 389 136 108 
3 468 32 136 
3 126 429 378 
3 15 215 20 
3 297 342 418 
3 71 13 193 
3 143 140 270 
3 494 149 274 
3 450 174 451 
3 128 106 390 
3 322 110 476 
3 316 344 68 
3 259 345 51 
3 32 392 111 
3 423 278 172 
3 283 120 366 
3 378 285 126 
3 140 421 270 
3 212 247 322 
3 332 351 490 
3 458 123 166 
3 242 167 400 
3 474 416 72 
3 433 386 344 
3 187 191 388 
3 484 430 329 
3 453 433 175 
3 150 133 313 
3 221 225 115 
3 44 478 448 
3 96 445 249 
3 109 256 102 
3 92 229 332 
3 192 267 43 
3 274 450 104 
3 59 316 155 
3 10 29 449 
3 368 253 211 
3 198 387 40 
3 30 25 290 
3 466 319 134 
3 473 373 420 
3 488 8 107 
3 371 266 70 
3 376 57 483 
3 329 430 463 
3 250 138 59 
3 114 491 142 
3 222 239 417 
3 60 474 260 
3 363 450 274 
3 85 305 162 
3 364 82 494 
3 452 217 349 
3 83 367 403 
3 58 284 346 
3 176 309 304 
3 413 223 311 
3 60 370 86 
3 438 217 189 
3 40 387 109 
3 393 461 469 
3 41 188 283 
3 435 10 449 
3 336 455 477 
3 67 414 344 
3 113 150 313 
3 489 306 48 
3 287 249 277 
3 307 213 446 
3 366 260 1 
3 145 245 369 
3 383 265 275 
3 403 163 257 
3 369 398 145 
3 237 432 363 
3 389 228 260 
3 131 350 359 
3 436 66 171 
3 218 448 478 
3 276 62 266 
3 315 337 425 
3 39 435 423 
3 467 243 294 
3 249 287 96 
3 49 31 17 
3 196 437 201 
3 25 74 207 
3 68 81 198 
3 47 432 237 
3 445 96 466 
3 475 156 140 
3 476 494 82 
3 33 386 489 
3 239 483 273 
3 204 122 30 
3 206 105 349 
3 461 434 313 
3 447 50 5 
3 118 431 301 
3 97 279 374 
3 475 140 143 
3 451 104 450 
3 297 412 305 
3 282 391 171 
3 39 192 10 
3 146 360 244 
3 409 92 227 
3 365 186 333 
3 379 216 214 
3 492 187 388 
3 74 52 456 
3 367 76 181 
3 312 442 225 
3 102 42 292 
3 342 297 340 
3 231 372 127 
3 354 194 149 
3 53 272 384 
3 412 418 319 
3 169 245 80 
3 472 488 189 
3 416 495 165 
3 358 131 16 
3 64 317 298 
3 421 222 22 
3 339 247 486 
3 331 17 31 
3 421 22 270 
3 421 442 312 
3 209 43 266 
3 103 6 265 
3 424 177 20 
3 45 118 365 
3 469 183 393 
3 400 167 130 
3 244 18 108 
3 283 55 394 
3 221 338 99 
3 151 326 31 
3 283 410 120 
3 221 407 225 
3 388 191 94 
3 439 70 4 
3 208 378 429 
3 224 160 481 
3 233 72 339 
3 136 389 90 
3 493 254 122 
3 469 61 183 
3 7 154 379 
3 34 295 148 
3 253 195 44 
3 171 125 286 
3 454 144 14 
3 48 153 400 
3 167 161 78 
3 409 304 309 
3 151 302 471 
3 481 487 245 
3 348 139 215 
3 238 97 374 
3 135 343 14 
3 83 403 2 
3 150 14 343 
3 170 44 285 
3 299 485 314 
3 325 374 271 
3 87 411 497 
3 484 329 147 
3 431 192 333 
3 266 43 267 
3 330 75 235 
3 329 232 475 
3 209 266 293 
3 399 420 241 
3 161 335 100 
3 94 173 388 
3 281 320 459 
3 44 170 199 
3 216 379 154 
3 324 193 13 
3 377 324 248 
3 56 261 71 
3 420 55 188 
3 156 320 281 
3 80 205 478 
3 384 415 53 
3 293 158 471 
3 11 477 191 
3 322 247 110 
3 42 33 300 
3 228 108 18 
3 94 76 381 
3 12 464 269 
3 332 490 227 
3 325 455 336 
3 155 316 40 
3 341 235 159 
3 22 159 235 
3 81 68 33 
3 138 250 397 
3 91 197 270 
3 185 58 57 
3 328 27 318 
3 484 147 342 
3 131 358 350 
3 480 390 106 
3 66 12 320 
3 273 259 323 
3 14 150 113 
3 343 57 376 
3 448 0 63 
3 25 200 74 
3 138 397 78 
3 66 320 156 
3 236 29 192 
3 410 360 112 
3 219 71 86 
3 48 250 489 
3 162 305 296 
3 408 357 141 
3 407 352 312 
3 346 284 185 
3 107 8 244 
3 415 265 53 
3 296 94 381 
3 131 359 264 
3 246 221 99 
3 76 94 191 
3 360 18 244 
3 401 77 361 
3 490 340 201 
3 133 105 461 
3 175 433 344 
3 407 246 352 
3 24 11 187 
3 362 161 392 
3 318 262 156 
3 258 37 157 
3 62 70 266 
3 156 281 140 
3 195 289 63 
3 65 6 456 
3 120 396 370 
3 94 296 173 
3 288 6 103 
3 3 222 312 
3 220 457 61 
3 495 474 470 
3 121 268 378 
3 128 276 395 
3 77 441 301 
3 404 373 444 
3 45 182 353 
3 416 474 495 
3 31 49 280 
3 270 147 143 
3 181 403 367 
3 164 255 135 
3 210 142 491 
3 159 22 341 
3 324 47 248 
3 327 54 460 
3 344 414 175 
3 229 92 310 
3 372 349 105 
3 230 265 6 
3 100 330 414 
3 134 319 234 
3 389 474 72 
3 364 263 219 
3 139 241 214 
3 4 70 165 
3 385 154 399 
3 274 104 494 
3 254 350 200 
3 204 321 426 
3 373 21 241 
3 59 155 355 
3 39 395 267 
3 21 373 404 
3 468 28 178 
3 64 298 205 
3 457 453 341 
3 86 370 396 
3 411 24 492 
3 5 391 203 
3 225 407 312 
3 11 162 477 
3 46 364 86 
3 181 163 403 
3 34 31 280 
3 418 412 297 
3 252 360 117 
3 315 119 390 
3 26 121 464 
3 337 339 36 
3 251 29 236 
3 145 481 245 
3 450 432 174 
3 78 414 138 
3 15 303 166 
3 340 179 430 
3 240 359 223 
3 181 191 477 
3 262 318 27 
3 467 212 472 
3 39 10 435 
3 347 306 433 
3 481 160 99 
3 11 24 85 
3 84 89 282 
3 240 190 230 
3 472 408 488 
3 469 206 220 
3 434 417 73 
3 35 451 377 
3 147 197 342 
3 235 75 91 
3 329 383 232 
3 466 173 319 
3 218 478 205 
3 376 483 231 
3 60 278 470 
3 169 398 369 
3 91 75 234 
3 275 99 160 
3 78 130 167 
3 149 363 274 
3 2 307 406 
3 272 310 309 
3 116 195 0 
3 182 308 49 
3 297 305 196 
3 88 290 351 
3 86 396 46 
3 161 167 392 
3 125 66 262 
3 305 132 196 
3 388 173 492 
3 118 301 441 
3 108 496 107 
3 117 404 252 
3 311 223 493 
3 146 112 360 
3 89 391 282 
3 198 81 427 
3 107 244 108 
3 215 139 216 
3 9 479 69 
3 104 263 494 
3 56 361 377 
3 118 353 431 
3 93 307 446 
3 465 189 488 
3 121 26 268 
3 182 440 353 
3 407 221 246 
3 137 103 383 
3 308 45 365 
3 296 412 319 
3 70 62 101 
3 202 300 355 
3 335 277 249 
3 384 309 467 
3 437 24 411 
3 50 152 5 
3 184 497 287 
3 414 161 100 
3 12 50 464 
3 456 288 74 
3 296 305 412 
3 326 331 31 
3 247 176 486 
3 434 73 313 
3 449 4 435 
3 57 345 483 
3 467 189 243 
3 278 423 470 
3 376 231 127 
3 234 75 134 
3 419 131 264 
3 111 392 438 
3 79 141 357 
3 264 359 240 
3 51 38 144 
3 390 110 315 
3 451 194 104 
3 380 361 56 
3 308 182 45 
3 336 477 381 
3 437 19 409 
3 446 213 257 
3 312 222 421 
3 248 47 237 
3 353 118 45 
3 409 309 310 
3 71 261 13 
3 170 428 199 
3 38 51 346 
3 109 202 355 
3 423 172 354 
3 233 339 486 
3 14 144 135 
3 338 487 99 
3 169 369 245 
3 22 91 270 
3 323 113 73 
3 224 481 23 
3 420 373 241 
3 70 101 425 
3 398 169 80 
3 273 73 417 
3 158 326 471 
3 294 384 467 
3 108 228 389 
3 463 405 290 
3 393 434 461 
3 82 357 476 
3 214 394 379 
3 350 358 52 
3 240 230 264 
3 179 351 405 
3 81 42 98 
3 429 116 95 
3 325 238 374 
3 239 222 3 
3 77 118 361 
