ply
format ascii 1.0
comment VCGLIB generated
element vertex 300
property float x
property float y
property float z
property float nx
property float ny
property float nz
element face 600
property list uchar int vertex_indices
end_header
1.477204 -7.045695e-06 0.2605034 -0.9848623 0.00311382 -0.1733109 
0.9641858 -2.542684e-06 1.149067 -0.6427824 -1.951866e-06 -0.7660488 
0.2605039 -2.595417e-06 1.477206 -0.190317 -0.05000619 -0.9804483 
-0.9641994 9.877648e-06 1.149057 0.6555689 -0.03975959 -0.7540879 
-1.149074 2.19059e-06 -0.9641774 0.7660494 4.798338e-06 0.6427817 
0.7500172 3.061255e-06 -1.299028 -0.4989102 -0.06616212 0.8641245 
1.477207 2.706012e-06 -0.2605053 -0.9800634 0.00927632 0.1984684 
-0.5000627 0.1913361 1.373754 0.2898949 -0.4142454 -0.862764 
-1.373757 0.1913411 0.5000501 0.8499119 -0.420714 -0.3172531 
-1.439739 0.1913322 0.2538188 0.9085028 -0.3828431 -0.1674928 
-1.266078 0.1913459 -0.7309698 0.8113437 -0.3640261 0.4573908 
0.2538268 0.1913348 -1.439736 -0.1449687 -0.3686807 0.9181823 
0.5000516 0.1913369 -1.373758 -0.318049 -0.3827746 0.8673688 
1.373778 0.1913241 -0.500008 -0.8805883 -0.3785896 0.2850163 
1.468887 0.1768361 -0.1255113 -0.9385819 -0.3353581 0.08123343 
1.036854 0.3535585 0.870069 -0.5679281 -0.6639282 -0.486474 
-1.172221 0.3535494 0.6767681 0.6452156 -0.6682695 -0.3702876 
-1.114588 0.3583292 -0.7657816 0.5819845 -0.694138 0.423635 
-0.1789633 0.348285 -1.349642 0.05096835 -0.6582713 0.7510534 
-0.4074655 0.4619401 1.119499 0.1345222 -0.9236146 -0.3589428 
0.7035558 0.4624181 -0.964565 -0.2347585 -0.9132125 0.3330638 
0.9919805 0.4602996 -0.6775652 -0.3102883 -0.926389 0.2133648 
0.04340347 0.4617173 -0.8080705 0.02641251 -0.9208682 -0.3889784 
-0.6041719 0.3559192 0.2716237 -0.6396013 -0.698819 0.3202534 
0.369834 0.3552056 -0.5334703 0.4352997 -0.7056438 -0.5590895 
0.01062169 0.1907873 0.5418066 0.06132399 -0.3523111 0.9338717 
0.1030271 0.1938602 -0.5352891 0.1504021 -0.3782089 -0.9134206 
0.5260745 0.2042408 -0.1713469 0.8911946 -0.3936366 -0.2254383 
0.5067958 0.001742001 0.01116923 0.997134 -0.003971317 0.07555136 
0.3940071 -0.008815115 0.319697 0.7787192 0.006730096 0.6273365 
0.4780991 -0.1993794 0.2661655 0.8220927 0.3894193 0.4153508 
-0.05581003 -0.1946726 0.5419002 -0.05134854 0.398845 0.9155796 
0.5393442 -0.1773289 -0.01932866 0.9224046 0.3729366 -0.1004391 
-0.5929416 -0.3525309 0.2584475 -0.6082569 0.7457747 0.2717422 
-0.6554496 -0.3524508 -0.04426023 -0.7024665 0.7092994 -0.05861124 
-0.2725355 -0.353434 -0.5896745 -0.2941243 0.7064058 -0.6438026 
0.02397949 -0.3503327 -0.6473624 0.03889866 0.7028711 -0.7102529 
0.06407817 -0.4617265 -0.8086967 0.05220218 0.9213719 -0.3851607 
0.7026795 -0.4626902 0.9669726 -0.2264283 0.9156247 -0.3322072 
-0.9280092 -0.4648467 -0.7535641 0.3196826 0.9184256 0.2330184 
-0.6767809 -0.3535523 -1.172209 0.3806014 0.6835192 0.6228516 
-1.0221e-07 -0.3535507 -1.353553 0.005201211 0.6627684 0.7488064 
1.172222 -0.3535489 -0.6767681 -0.6225543 0.682444 0.3830097 
-0.5000311 -0.1913383 1.373761 0.3277719 0.4274241 -0.8425404 
-1.266085 -0.1913491 -0.7309576 0.8212259 0.3457102 0.4539521 
-8.782715e-06 -0.1913513 -1.461936 4.863811e-06 0.382791 0.923835 
0.5000218 -0.1913354 -1.373767 -0.2948674 0.3794199 0.8769799 
1.119924 -0.1913407 -0.9397024 -0.7210904 0.3535402 0.5958505 
1.149057 1.596834e-06 0.9641989 -0.7469779 -3.912241e-07 -0.6648489 
0.9397082 0.1913425 1.119917 -0.6050318 -0.3564852 -0.7119374 
-0.9397041 0.1913407 -1.119923 0.5775046 -0.4523032 0.6796399 
-1.093302 0.4663869 -0.4763143 0.3376713 -0.9308421 0.1396822 
-0.6767814 0.3535443 -1.172217 0.3766187 -0.6565808 0.6534983 
1.354729 0.3535869 -0.1157781 -0.7228537 -0.6883384 0.06060442 
0.6232841 0.4617329 0.5276313 0.2997452 -0.9202326 0.2516441 
-0.6465474 0.353771 -0.02914443 -0.7152507 -0.6961972 -0.06103981 
-0.1710121 -1.595513e-08 -0.4698457 -0.3758672 -0.008273883 -0.9266366 
-1.013607 -0.5002627 -0.01190201 -0.004099523 0.9999812 -0.004569865 
1.143646 -0.4632798 0.3484425 -0.3609986 0.9247689 -0.1203434 
-1.316836 -0.3561184 0.3065739 0.6791661 0.7145302 -0.1678695 
1.190677 -0.4627745 0.05715676 -0.4180452 0.9084252 -0.001439128 
1.454429 -0.1888954 0.1657338 -0.9379151 0.3257662 -0.119129 
-0.7500213 -4.088989e-06 1.299026 0.5250401 -3.937625e-07 -0.8510776 
-1.119927 -0.1913425 0.9396967 0.7247527 0.3826561 -0.5729817 
0.7309659 -0.1913454 -1.266082 -0.4726006 0.3222138 0.8202603 
1.439733 0.1913368 0.2538565 -0.9220554 -0.3583228 -0.1463512 
1.409536 1.074379e-05 0.5130453 -0.9448708 -0.02197936 -0.3267051 
1.299025 -2.36774e-08 0.7500236 -0.8593601 0.0284017 -0.5105817 
1.266075 0.191344 0.7309762 -0.7962044 -0.4126329 -0.4424848 
1.119923 0.191339 0.9397059 -0.7299176 -0.3457087 -0.5896658 
0.7500173 -2.460625e-06 1.299028 -0.5105797 0.02840336 -0.8593612 
0.5130392 6.445853e-06 1.409537 -0.3402902 0.003735945 -0.9403131 
0.5000053 0.1913307 1.373774 -0.2905503 -0.3826418 -0.877021 
-1.24589e-05 1.387456e-06 1.500002 3.198372e-06 1.792104e-06 -1 
-0.158867 0.1721802 1.464918 0.118328 -0.3113093 -0.9429131 
-0.2605059 5.654909e-06 1.477206 0.1732946 0.0129275 -0.9847852 
-0.5130589 -5.737734e-06 1.409531 0.3407311 -0.002795172 -0.9401566 
-1.299031 -1.800636e-06 0.7500117 0.8564653 0.03975448 -0.5146716 
-1.266076 0.1913443 0.7309755 0.8202472 -0.3208143 -0.4735745 
-1.461937 0.1913498 -1.610766e-05 0.938536 -0.3449041 -0.01383191 
-1.499481 -0.00220616 -0.05916875 0.9974447 0.001571095 0.07142524 
-1.439729 0.1913437 -0.2538562 0.9164105 -0.3683807 0.156485 
-0.9641981 -6.871498e-06 -1.149059 0.6329095 -0.028402 0.7737047 
-1.119919 0.1913397 -0.9397088 0.7063578 -0.3516162 0.6143489 
-0.2538478 0.1913407 -1.439732 0.1718346 -0.3523402 0.9199616 
-0.2604998 -1.532276e-06 -1.477206 0.1736529 2.912543e-06 0.984807 
7.038804e-06 3.383892e-06 -1.500001 -9.940383e-07 -4.269695e-07 1 
1.291899e-05 0.1913543 -1.461935 0.001697442 -0.3959242 0.9182817 
0.5130548 -5.391126e-06 -1.409533 -0.3420271 -2.882059e-06 0.9396901 
1.149073 1.146746e-06 -0.9641824 -0.763015 -0.0539162 0.6441281 
0.9397185 0.1913348 -1.119912 -0.6180604 -0.3604545 0.698623 
1.500001 4.454238e-06 -1.012382e-07 -0.9998617 0.01561449 -0.005732282 
1.373767 0.1913354 0.5000247 -0.869753 -0.3793654 -0.3156132 
1.304487 0.3587321 0.3678524 -0.6951852 -0.6891048 -0.204578 
0.7309689 0.1913399 1.266081 -0.4428333 -0.3821612 -0.8110805 
0.4629472 0.3535553 1.271915 -0.2704847 -0.6848415 -0.6766316 
0.2538659 0.1913321 1.439733 -0.1166351 -0.3823386 -0.9166316 
-0.7309761 0.1913461 1.266075 0.4537857 -0.3425598 -0.8226368 
-0.9396982 0.1913386 1.119926 0.5727851 -0.3940442 -0.7187812 
-0.5772581 0.3512297 1.23329 0.3069786 -0.7101972 -0.6335488 
-1.119907 0.1913429 0.9397203 0.7031901 -0.3831891 -0.5989071 
-1.37377 0.1913388 -0.5000156 0.8690121 -0.3814816 0.3151029 
-0.7309739 0.1913399 -1.266077 0.4735724 -0.3208114 0.8202495 
-0.5000384 0.1913485 -1.373758 0.3244119 -0.419173 0.8479688 
0.2350469 0.3535468 -1.332995 -0.1249702 -0.6977795 0.7053271 
0.4629396 0.3535535 -1.271918 -0.2730154 -0.7111956 0.6478143 
0.730965 0.1913359 -1.266085 -0.4470664 -0.4216372 0.788894 
0.7785337 0.3493994 -1.111844 -0.4193845 -0.6828234 0.5982214 
1.036882 0.3535514 -0.870049 -0.5354353 -0.7015513 0.4702497 
1.247618 0.192557 -0.763764 -0.7907183 -0.3530199 0.5001414 
1.234838 0.3525412 -0.5786161 -0.6470865 -0.7027009 0.295788 
1.191783 0.4615365 0.1128587 -0.3706234 -0.9283012 -0.02992166 
1.097921 0.4636972 0.4647676 -0.3340534 -0.9293942 -0.1569548 
1.172219 0.3535466 0.6767747 -0.5795853 -0.7418275 -0.3373025 
0.837633 0.4605762 0.8548357 -0.3134915 -0.9035472 -0.2921052 
0.7707002 0.3609883 1.110498 -0.4024993 -0.7118635 -0.5755388 
0.2350549 0.3535447 1.332995 -0.1322131 -0.7123079 -0.689302 
0.5303181 0.4621093 1.070585 -0.1539662 -0.9195757 -0.36149 
-0.1125313 0.3513546 1.35707 0.07201944 -0.649574 -0.7568797 
-0.7435897 0.4627882 0.9391411 0.2166781 -0.9371152 -0.273616 
-0.9752319 0.35583 0.9383778 0.498978 -0.7130794 -0.4924823 
-1.031737 0.461939 0.5956678 0.3729011 -0.9022059 -0.2167241 
-1.309256 0.3584569 0.339644 0.6791406 -0.7088584 -0.1904939 
-1.187058 0.4609836 0.2160606 0.3903803 -0.9200057 -0.03453683 
-1.353553 0.353549 4.376133e-07 0.7445743 -0.6675246 -0.004470157 
-1.31175 0.3587422 -0.3442758 0.6786518 -0.7068917 0.1993389 
-0.8700556 0.3535545 -1.036868 0.4373406 -0.7372847 0.5149218 
-0.8375027 0.4638339 -0.8442842 0.2595657 -0.9293641 0.2625034 
-0.517122 0.4609942 -1.082035 0.1970112 -0.9004692 0.3877393 
-0.4629385 0.3535559 -1.271918 0.2178542 -0.7105647 0.6690571 
0.002653273 0.4627512 -1.208549 0.02131853 -0.9135544 0.4061575 
0.4074707 0.4619398 -1.119501 -0.131793 -0.9105898 0.3917358 
1.15267 0.4629118 -0.3154351 -0.3968673 -0.9118567 0.104947 
-0.04399164 0.4646542 1.203847 0.02013844 -0.9120573 -0.4095679 
-0.264379 0.5002602 0.9705145 0.02209592 -0.9983101 -0.05374598 
-0.9956719 0.499474 -0.1837832 -0.008300376 -0.9999642 -0.001647027 
-0.7748442 0.5003089 -0.643187 -0.0111035 -0.9998883 -0.01001065 
-0.3739437 0.4999773 -0.9333243 0.006646706 -0.999889 0.01334118 
0.1753952 0.5000573 -0.9953547 -0.01306205 -0.9998105 -0.01444004 
0.7886829 0.4624913 0.1991953 0.4107533 -0.9054077 0.107325 
0.9564456 0.4999271 0.3244698 0.03819149 -0.999214 0.01062515 
0.6566644 0.4998796 0.7716318 -0.01896048 -0.9997691 -0.01011286 
0.1667151 0.5001219 0.9959902 -0.006449444 -0.9999446 0.008315506 
-0.6352096 0.5002342 0.7846512 -0.02384707 -0.9991171 0.03458789 
-0.5966676 0.4618104 0.547788 -0.2852222 -0.9213226 0.2642216 
-0.9308487 0.4999056 0.3864706 0.01378547 -0.9998498 -0.01050813 
-0.7881175 0.461204 0.239904 -0.383148 -0.920115 0.08115412 
-0.7514893 0.461405 -0.3121893 -0.3839498 -0.90928 -0.1606003 
0.3219082 0.4619699 -0.7448491 0.1605679 -0.9215128 -0.3535987 
0.6428514 0.5002806 -0.7810249 0.003689726 -0.9999391 -0.01040342 
0.9770655 0.4998863 -0.2750846 -0.01656896 -0.9998627 0.00044956 
0.6330809 0.4619873 -0.5202618 0.3070359 -0.9213411 -0.2384523 
0.8038836 0.4613412 -0.08264185 0.3961974 -0.91644 -0.05626302 
0.5904037 0.3531422 0.2694051 0.6048971 -0.742674 0.2872891 
0.3948341 0.3538838 0.5274543 0.4011315 -0.6970226 0.5943511 
0.2408745 0.4597605 0.7774433 0.1166217 -0.9190596 0.3764689 
-0.2666879 0.4616324 0.7742012 -0.1045986 -0.9317802 0.3476276 
-0.3272693 0.3507715 0.5612972 -0.3597034 -0.7411436 0.5668507 
-0.4229903 0.3563593 -0.5004723 -0.4825329 -0.6902388 -0.539196 
-0.2029378 0.4625694 -0.7868719 -0.07664218 -0.923575 -0.3756796 
-0.4927114 0.4615346 -0.6483872 -0.2222451 -0.9249068 -0.3084713 
-0.1675536 0.3532597 -0.6266049 -0.1685081 -0.7113746 -0.6823133 
0.5952857 0.3500221 -0.2657254 0.6448148 -0.6998839 -0.3072076 
-0.02752738 0.3513215 0.6490942 -0.03853803 -0.7184885 0.6944704 
-0.4914001 0.1920418 0.2273295 -0.8235987 -0.3611365 0.4373394 
-0.5438534 0.192291 -0.008191316 -0.9240524 -0.3811693 0.0289363 
-0.4911128 0.1859107 -0.218757 -0.8257328 -0.4061586 -0.3914084 
-0.5867473 0.3532361 -0.2753844 -0.6385546 -0.7084671 -0.300537 
-0.1345322 0.192079 -0.5242807 -0.2512155 -0.3797771 -0.8903146 
0.1133327 0.3470822 -0.6369563 0.131173 -0.7298149 -0.6709424 
0.3125348 0.1899853 -0.4414469 0.514867 -0.3920356 -0.762378 
0.4121816 0.1913419 -0.3458551 0.705497 -0.4146495 -0.574752 
0.6455064 0.3511671 0.03319203 0.7026898 -0.7111129 0.02335879 
0.5131024 0.1893532 0.1750862 0.8507781 -0.4139695 0.3237375 
0.2995772 0.1911605 0.4608458 0.5290706 -0.3260375 0.7834436 
-0.3098306 0.192412 0.4518342 -0.478213 -0.4121173 0.7755461 
-0.3147478 0.004304487 0.3928099 -0.6167946 -0.02033794 0.7868614 
-0.4967891 0.001853421 -0.1022763 -0.9738666 -0.06341282 -0.2180887 
-0.3580211 0.1972093 -0.412604 -0.5852996 -0.3518774 -0.7304839 
-0.3512015 0.002154801 -0.361145 -0.7561838 -0.01634382 -0.6541551 
0.01476507 0.002336566 -0.5041543 0.02415483 -0.05676332 -0.9980955 
0.2842489 -0.1873994 0.4608776 0.4847916 0.3827985 0.786411 
0.1662561 0.001114801 0.4757646 0.3068302 -0.01585949 0.9516321 
-0.08213922 -0.007736166 0.4981888 -0.1902822 -0.04458759 0.9807164 
-0.5051154 -0.1884139 0.1941833 -0.8299321 0.4541964 0.3239111 
-0.4750906 0.006738613 0.1720976 -0.9447297 -0.004370689 0.3278211 
-0.3364758 -0.1841451 -0.4225837 -0.5549312 0.3867109 -0.7365501 
-0.04290616 -0.1880917 -0.5438766 -0.05898672 0.3566662 -0.9323679 
0.2396021 0.001184918 -0.4429892 0.4612167 0.01505491 -0.8871598 
0.2373164 -0.1953252 -0.4875261 0.3554387 0.4363 -0.826623 
0.4402187 0.002443004 -0.2479475 0.8525192 -0.06300788 -0.5188844 
0.4200987 -0.1899837 -0.3417573 0.7193641 0.3884715 -0.5758517 
0.4899492 -0.3559898 0.4312802 0.5319156 0.7064927 0.4668338 
0.2774805 -0.3563243 0.5895024 0.2779784 0.7003128 0.6574876 
0.05247834 -0.3529392 0.6461982 0.07153357 0.7425843 0.6659215 
-0.176575 -0.3510638 0.6207483 -0.2012912 0.6937472 0.6915177 
-0.3140894 -0.1686718 0.4404923 -0.5678378 0.3879381 0.725992 
-0.4189839 -0.3542781 0.5028088 -0.5110086 0.6758505 0.5311275 
-0.5248963 -0.1836893 -0.1453483 -0.8999696 0.3591439 -0.2471245 
-0.5062584 -0.3561055 -0.4199556 -0.5605909 0.7071721 -0.430866 
0.3580928 -0.3449163 -0.5444475 0.3777396 0.7259954 -0.5746682 
0.6435573 -0.3515131 0.1016673 0.6954136 0.7034159 0.1469898 
0.6687765 -0.4611889 0.4601069 0.3048733 0.9319251 0.1963872 
0.3874786 -0.4617887 0.7195323 0.2059486 0.8972573 0.3905311 
-0.4706694 -0.4626413 0.6829032 -0.2380702 0.9140722 0.3283209 
-0.7324788 -0.4617465 0.3474875 -0.2860731 0.9490961 0.1318289 
-0.8110688 -0.4605442 -0.02232062 -0.4272505 0.9039965 0.01572555 
-0.5197948 -0.4619401 -0.6194691 -0.2454904 0.9219033 -0.2997145 
-0.2630836 -0.4624258 -0.7724887 -0.1134684 0.9254155 -0.3615676 
0.38035 -0.4619071 -0.7174631 0.1930094 0.9191732 -0.3433193 
0.5972077 -0.3521692 -0.2555358 0.6641506 0.6982842 -0.2670267 
0.8223908 -0.4611363 0.03977428 0.3849578 0.922794 -0.01608463 
0.8218503 -0.5001332 0.5724691 -0.04280835 0.9985558 -0.0324638 
0.363247 -0.499281 0.9565655 0.01838314 0.9992745 0.0333547 
0.02921551 -0.4619184 0.813628 -0.01317341 0.9194037 0.3930945 
-0.3388386 -0.5004151 0.9482224 0.002789369 0.9999515 -0.00944028 
-0.7151635 -0.499833 0.7070584 0.01718104 0.9997616 -0.01348167 
-0.7150009 -0.4607582 -0.3880033 -0.3472989 0.9231542 -0.1648326 
-0.4999993 -0.5000001 -0.8660252 0.0003016209 0.9999678 -0.008020263 
-0.1977057 -0.5001302 -0.9912661 0.009883958 0.9993227 0.03544706 
0.6688677 -0.4620467 -0.4640409 0.3258348 0.9173647 -0.2286348 
0.4663286 -0.4994961 -0.8995447 0.01844946 0.9991437 -0.03703436 
1.020619 -0.4998915 0.09091762 -0.02628515 0.9996206 0.008237414 
0.1727085 -0.4629978 1.181298 -0.05013287 0.9197515 -0.3892864 
-0.2955324 -0.4621477 1.153533 0.09988427 0.9130767 -0.3953658 
-0.9126221 -0.46194 0.7657785 0.3232852 0.9073602 -0.2686711 
-0.9104338 -0.4999566 0.4220366 0.03371291 0.9992993 -0.01626177 
-1.031743 -0.4619392 0.5956573 0.2969367 0.9387857 -0.1746712 
-1.119499 -0.4619401 0.407464 0.3610127 0.9243522 -0.1234624 
-1.191056 -0.4623566 0.04610148 0.4378442 0.8989973 -0.009817516 
-1.150628 -0.4630545 -0.3156014 0.3285199 0.9395262 0.09677431 
-0.8431674 -0.4990822 -0.5684049 -0.002124936 0.9999347 -0.01122494 
-0.5956789 -0.4619393 -1.031729 0.2025653 0.9164127 0.3451885 
0.325041 -0.4640295 -1.145681 -0.1058906 0.929246 0.3539619 
0.8762727 -0.5007085 -0.4961458 -0.01375574 0.9997721 0.01632849 
1.158088 -0.4605346 -0.3193314 -0.3700437 0.9238525 0.09779691 
0.9126272 -0.4619398 0.7657737 -0.3296216 0.9121711 -0.2435029 
0.4629391 -0.3535535 1.27192 -0.2353473 0.7406304 -0.6293475 
-0.2350423 -0.3535476 1.332994 0.09523631 0.7406555 -0.6651012 
-0.4629339 -0.3535572 1.271917 0.24133 0.7098029 -0.6617703 
-0.6599459 -0.4626647 0.9928396 0.2232702 0.9156888 -0.3341622 
-1.353554 -0.3535478 -1.557689e-06 0.7453809 0.6666378 0.001203632 
-1.308677 -0.3555796 -0.3594424 0.6494647 0.7390873 0.1787335 
-0.9437907 -0.3570893 -0.9690599 0.4878874 0.7127653 0.5039163 
-0.3541133 -0.4616584 -1.140271 0.1039936 0.9275391 0.358966 
-5.025058e-07 -0.4619394 -1.191339 0.004991372 0.9018567 0.4320067 
0.235052 -0.3535469 -1.332994 -0.1378166 0.7090857 0.691523 
0.743207 -0.4625733 -0.934747 -0.225943 0.9283978 0.2950041 
1.031738 -0.4619389 -0.5956668 -0.3709624 0.9010875 0.2245626 
1.271918 -0.3535548 -0.4629405 -0.661127 0.7036009 0.2604936 
1.228155 -0.3490595 0.5895072 -0.63753 0.7093885 -0.3005387 
1.352789 -0.3552301 0.1292277 -0.7254348 0.6834796 -0.08124086 
1.266084 -0.1913475 0.7309611 -0.7829733 0.4141233 -0.4641709 
0.7812776 -0.3478945 1.115784 -0.4106899 0.6606467 -0.6283945 
1.036867 -0.3535536 0.8700609 -0.5472003 0.6904715 -0.4730973 
0.7309643 -0.1913423 1.266083 -0.4628778 0.3828515 -0.7994804 
0.1299882 -0.3485105 1.356856 -0.0718169 0.6514579 -0.7552781 
-0.2538606 -0.1913446 1.439728 0.1465405 0.3839101 -0.9116682 
-0.774035 -0.3554842 1.113087 0.4058316 0.6676878 -0.6240944 
-1.172215 -0.3535467 0.6767809 0.6151417 0.7096197 -0.3435704 
-1.036865 -0.3535531 0.8700626 0.5153235 0.713371 -0.4749143 
-1.373772 -0.1913358 -0.5000127 0.8511649 0.4159164 0.3202061 
-1.172207 -0.3535516 -0.6767873 0.6396732 0.6700929 0.3765552 
-1.119913 -0.1913407 -0.9397153 0.7196523 0.3852784 0.5776342 
-0.7309655 -0.1913407 -1.266083 0.4605162 0.3872389 0.7987308 
-0.3606134 -0.3597063 -1.307121 0.2034901 0.7142741 0.66963 
0.253861 -0.1913324 -1.439734 -0.1338513 0.3826353 0.9141521 
0.5635713 -0.3473612 -1.240624 -0.3286178 0.6927245 0.6419838 
0.961363 -0.358404 -0.9564133 -0.4937339 0.7141504 0.4962016 
0.9397014 -0.1913412 -1.119922 -0.5694401 0.4289212 0.7012593 
1.266081 -0.1913418 -0.730967 -0.8132488 0.3826441 0.4384174 
1.332994 -0.3535465 -0.2350516 -0.6996116 0.704024 0.1220406 
1.373771 -0.1913316 -0.5000146 -0.8770202 0.3826492 0.2905428 
1.439736 -0.1913344 -0.2538275 -0.9152864 0.3867526 0.1125749 
1.373772 -0.1913245 0.500027 -0.8704759 0.3803025 -0.3124768 
1.11992 -0.1913385 0.9397085 -0.7299168 0.3457049 -0.5896691 
0.9397019 -0.1913321 1.119928 -0.6059273 0.3544205 -0.7122066 
0.5000576 -0.1913375 1.373755 -0.31829 0.4120738 -0.8537486 
0.1588672 -0.1721801 1.464918 -0.118695 0.3117743 -0.9427133 
-0.7309597 -0.1913479 1.266084 0.4543847 0.3472123 -0.8203525 
-0.9397061 -0.1913418 1.119919 0.6051822 0.3560396 -0.7120326 
-1.149063 -7.831164e-06 0.9641961 0.7660452 1.158416e-05 -0.6427867 
-1.409533 -2.164616e-06 0.5130563 0.9396899 2.218729e-06 -0.3420277 
-1.266071 -0.1913401 0.7309834 0.8212248 0.3456993 -0.4539624 
-1.439728 -0.1913433 0.2538493 0.9083081 0.3837485 -0.1664735 
-1.373762 -0.1913393 0.5000391 0.8486183 0.4260478 -0.3135766 
-1.477204 8.648469e-07 0.260509 0.9903029 0.0005303048 -0.1389241 
-1.461942 -0.1913396 7.484363e-06 0.9379657 0.3464316 -0.01433387 
-1.439734 -0.1913371 -0.2538373 0.9149234 0.3714915 0.1578269 
-1.409535 -4.169734e-08 -0.5130543 0.9453617 0.0001745795 0.3260234 
-1.299031 1.148902e-06 -0.7500128 0.8564634 0.03974488 0.5146756 
-0.9397084 -0.1913375 -1.119921 0.5991266 0.3833675 0.7029059 
-0.5000651 -0.1913396 -1.373751 0.3370615 0.3418889 0.8772124 
-0.5130382 1.32618e-05 -1.409539 0.3301263 -0.02841002 0.9435092 
-0.7500111 -1.204056e-06 -1.299032 0.4843909 0.03974267 0.8739485 
-0.2538614 -0.1913442 -1.439728 0.1559137 0.3536008 0.9223109 
0.2605139 -1.526812e-06 -1.477203 -0.1907186 0.03974512 0.9808398 
0.9641994 -9.839819e-06 -1.149057 -0.6413784 0.06617203 0.7643658 
1.299032 -1.224945e-06 -0.7500111 -0.8563673 0.04106934 0.5147313 
1.409534 -1.60484e-05 -0.5130495 -0.928773 -0.002149847 0.3706427 
3 92 65 66 
3 48 49 69 
3 94 49 70 
3 73 74 96 
3 75 74 73 
3 97 7 76 
3 281 100 3 
3 9 8 282 
3 286 80 79 
3 82 50 83 
3 293 85 84 
3 85 86 84 
3 88 12 11 
3 5 106 12 
3 109 299 13 
3 13 299 6 
3 93 65 92 
3 93 92 68 
3 49 115 15 
3 115 49 94 
3 96 118 116 
3 118 74 7 
3 99 97 98 
3 16 120 100 
3 8 122 16 
3 9 79 124 
3 125 124 81 
3 50 126 17 
3 129 103 84 
3 106 107 105 
3 108 107 90 
3 15 114 113 
3 114 115 117 
3 115 95 117 
3 116 133 117 
3 99 19 133 
3 119 99 120 
3 125 17 51 
3 104 105 131 
3 105 20 131 
3 108 21 20 
3 111 112 140 
3 142 117 133 
3 142 133 134 
3 145 119 121 
3 127 128 137 
3 138 131 20 
3 139 152 140 
3 142 134 156 
3 143 144 156 
3 145 146 144 
3 144 143 145 
3 146 145 135 
3 22 159 138 
3 172 152 139 
3 163 154 155 
3 169 22 148 
3 24 148 151 
3 154 173 153 
3 164 175 23 
3 26 168 161 
3 24 162 171 
3 173 174 29 
3 174 182 29 
3 174 25 182 
3 25 175 183 
3 175 176 183 
3 164 185 176 
3 176 175 164 
3 178 168 56 
3 168 26 180 
3 190 27 28 
3 181 29 182 
3 196 31 176 
3 198 184 185 
3 179 186 198 
3 180 187 56 
3 188 189 187 
3 28 32 190 
3 30 181 192 
3 192 181 193 
3 197 196 184 
3 34 33 184 
3 189 191 200 
3 210 200 191 
3 202 211 201 
3 203 202 192 
3 203 193 194 
3 33 205 204 
3 207 199 35 
3 200 209 37 
3 214 215 213 
3 216 215 204 
3 205 226 216 
3 206 57 205 
3 37 209 221 
3 222 234 211 
3 222 58 60 
3 212 213 38 
3 215 216 240 
3 57 228 226 
3 231 230 57 
3 39 218 232 
3 245 219 233 
3 247 233 221 
3 247 221 234 
3 58 250 251 
3 260 240 225 
3 225 227 259 
3 265 232 244 
3 233 267 246 
3 233 247 267 
3 277 237 256 
3 256 278 277 
3 257 256 238 
3 257 239 43 
3 43 258 279 
3 280 258 260 
3 288 241 242 
3 261 242 262 
3 262 243 263 
3 45 41 266 
3 267 268 269 
3 251 61 273 
3 61 0 91 
3 48 275 276 
3 70 276 255 
3 70 255 277 
3 73 278 257 
3 3 280 281 
3 282 77 283 
3 289 261 44 
3 295 86 85 
3 266 296 86 
3 6 272 273 
3 91 6 273 
3 0 65 91 
3 14 91 65 
3 0 66 65 
3 66 67 68 
3 66 68 92 
3 48 69 67 
3 67 69 68 
3 1 49 48 
3 1 70 49 
3 72 94 71 
3 71 94 70 
3 72 71 2 
3 96 72 2 
3 96 2 73 
3 74 75 76 
3 7 74 76 
3 76 62 97 
3 3 98 62 
3 97 62 98 
3 100 98 3 
3 281 77 78 
3 100 281 78 
3 282 8 78 
3 282 78 77 
3 286 9 282 
3 9 286 79 
3 79 80 81 
3 81 289 101 
3 80 289 81 
3 289 290 10 
3 289 10 101 
3 10 4 83 
3 10 290 4 
3 4 82 83 
3 294 102 82 
3 102 50 82 
3 293 103 102 
3 293 102 294 
3 293 84 103 
3 87 84 86 
3 11 86 296 
3 87 86 11 
3 11 296 88 
3 88 5 12 
3 297 90 5 
3 90 106 5 
3 109 90 89 
3 297 89 90 
3 298 109 89 
3 299 109 298 
3 14 13 6 
3 14 6 91 
3 53 14 65 
3 53 65 93 
3 113 93 68 
3 68 69 15 
3 68 15 113 
3 49 15 69 
3 72 95 94 
3 95 115 94 
3 96 116 72 
3 72 116 95 
3 74 118 96 
3 7 99 118 
3 7 97 99 
3 120 99 98 
3 98 100 120 
3 78 16 100 
3 8 16 78 
3 9 122 8 
3 9 124 122 
3 124 79 81 
3 81 101 125 
3 10 17 125 
3 10 125 101 
3 10 83 17 
3 50 17 83 
3 50 102 52 
3 50 52 126 
3 129 52 103 
3 102 103 52 
3 84 18 129 
3 18 84 87 
3 18 11 104 
3 18 87 11 
3 11 12 104 
3 12 105 104 
3 12 106 105 
3 90 107 106 
3 109 108 90 
3 108 109 110 
3 13 110 109 
3 14 53 13 
3 13 53 110 
3 53 93 111 
3 93 112 111 
3 112 93 113 
3 114 112 113 
3 15 115 114 
3 116 117 95 
3 133 116 118 
3 118 99 133 
3 19 99 119 
3 16 121 120 
3 119 120 121 
3 16 122 121 
3 122 123 121 
3 123 122 124 
3 51 123 125 
3 123 124 125 
3 127 51 17 
3 127 17 126 
3 52 128 126 
3 127 126 128 
3 52 129 128 
3 129 18 130 
3 129 130 128 
3 18 104 130 
3 104 131 130 
3 107 20 105 
3 107 108 20 
3 21 108 110 
3 132 21 110 
3 110 53 132 
3 53 111 132 
3 150 111 140 
3 114 141 112 
3 112 141 140 
3 114 117 141 
3 141 117 142 
3 19 134 133 
3 143 134 119 
3 19 119 134 
3 119 145 143 
3 123 145 121 
3 145 123 135 
3 51 135 123 
3 136 135 51 
3 51 127 136 
3 127 137 136 
3 130 137 128 
3 137 130 138 
3 131 138 130 
3 149 138 20 
3 21 149 20 
3 21 150 149 
3 132 150 21 
3 111 150 132 
3 150 140 152 
3 139 140 54 
3 54 140 141 
3 141 155 54 
3 155 141 142 
3 155 142 156 
3 156 134 143 
3 146 135 147 
3 136 147 135 
3 136 160 147 
3 137 160 136 
3 160 137 159 
3 137 138 159 
3 22 138 148 
3 148 138 149 
3 149 151 148 
3 151 149 150 
3 151 150 152 
3 139 153 172 
3 139 54 153 
3 153 54 154 
3 154 54 155 
3 155 156 163 
3 156 157 163 
3 144 157 156 
3 23 157 144 
3 144 146 23 
3 23 146 55 
3 147 55 146 
3 55 147 167 
3 167 147 158 
3 160 158 147 
3 160 159 161 
3 158 160 161 
3 159 22 169 
3 161 159 169 
3 24 169 148 
3 24 151 162 
3 151 152 162 
3 172 162 152 
3 27 172 173 
3 172 153 173 
3 173 154 174 
3 163 25 154 
3 25 174 154 
3 163 157 175 
3 25 163 175 
3 157 23 175 
3 23 165 164 
3 23 55 165 
3 55 167 166 
3 55 166 165 
3 158 178 166 
3 158 166 167 
3 158 161 168 
3 178 158 168 
3 161 169 26 
3 26 169 170 
3 170 169 24 
3 171 170 24 
3 162 27 171 
3 162 172 27 
3 27 173 28 
3 28 173 29 
3 182 25 183 
3 185 164 165 
3 185 165 177 
3 177 165 166 
3 166 178 179 
3 177 166 179 
3 179 178 56 
3 180 56 168 
3 180 26 188 
3 170 188 26 
3 190 170 171 
3 190 188 170 
3 190 171 27 
3 32 28 30 
3 28 29 30 
3 181 30 29 
3 31 181 182 
3 182 183 31 
3 183 176 31 
3 185 184 196 
3 176 185 196 
3 185 177 198 
3 177 179 198 
3 187 186 56 
3 179 56 186 
3 180 188 187 
3 191 189 188 
3 191 188 190 
3 32 191 190 
3 32 30 201 
3 201 30 192 
3 31 193 181 
3 31 194 193 
3 195 194 31 
3 31 196 195 
3 195 196 197 
3 33 197 184 
3 34 184 198 
3 199 34 198 
3 198 186 199 
3 186 35 199 
3 186 187 35 
3 36 35 187 
3 187 189 36 
3 36 189 200 
3 32 210 191 
3 210 32 201 
3 192 202 201 
3 192 193 203 
3 203 194 214 
3 195 214 194 
3 214 195 204 
3 197 204 195 
3 204 197 33 
3 206 33 34 
3 206 205 33 
3 217 206 34 
3 34 199 217 
3 217 199 207 
3 207 35 208 
3 208 35 36 
3 37 208 36 
3 36 200 37 
3 209 200 220 
3 200 210 220 
3 211 220 210 
3 210 201 211 
3 212 222 202 
3 202 222 211 
3 203 213 202 
3 202 213 212 
3 214 213 203 
3 215 214 204 
3 204 205 216 
3 226 205 57 
3 206 217 57 
3 231 57 217 
3 207 231 217 
3 231 207 218 
3 208 218 207 
3 218 208 219 
3 208 37 219 
3 221 219 37 
3 234 221 220 
3 209 220 221 
3 211 234 220 
3 212 58 222 
3 58 212 236 
3 236 212 38 
3 223 38 213 
3 213 215 223 
3 223 215 224 
3 224 215 240 
3 216 225 240 
3 227 216 226 
3 225 216 227 
3 228 227 226 
3 229 228 57 
3 57 230 229 
3 39 230 231 
3 231 218 39 
3 218 219 232 
3 219 244 232 
3 244 219 245 
3 221 233 219 
3 247 234 248 
3 235 248 234 
3 235 234 222 
3 222 60 235 
3 58 251 60 
3 236 254 250 
3 58 236 250 
3 253 254 38 
3 236 38 254 
3 223 237 38 
3 253 38 237 
3 256 237 223 
3 224 238 223 
3 223 238 256 
3 239 238 224 
3 224 240 239 
3 239 240 258 
3 240 260 258 
3 225 259 260 
3 228 59 259 
3 228 259 227 
3 229 59 228 
3 229 241 59 
3 229 230 242 
3 229 242 241 
3 242 230 39 
3 262 242 39 
3 262 39 243 
3 40 243 232 
3 39 232 243 
3 40 232 265 
3 244 245 265 
3 41 265 245 
3 233 246 245 
3 41 245 246 
3 267 247 268 
3 42 268 248 
3 247 248 268 
3 235 249 248 
3 42 248 249 
3 249 235 271 
3 60 251 271 
3 60 271 235 
3 274 251 250 
3 61 251 274 
3 274 250 252 
3 250 254 252 
3 275 252 254 
3 276 254 253 
3 275 254 276 
3 253 255 276 
3 237 277 253 
3 255 253 277 
3 278 256 257 
3 238 239 257 
3 239 258 43 
3 280 279 258 
3 280 260 63 
3 259 283 63 
3 259 63 260 
3 59 285 259 
3 283 259 285 
3 284 285 59 
3 284 59 241 
3 287 284 241 
3 287 241 288 
3 242 261 288 
3 261 262 44 
3 44 262 263 
3 263 243 291 
3 291 243 40 
3 291 40 264 
3 292 264 265 
3 40 265 264 
3 292 265 295 
3 41 295 265 
3 45 295 41 
3 41 246 266 
3 46 246 267 
3 266 246 46 
3 46 267 64 
3 269 64 267 
3 47 269 268 
3 47 268 42 
3 47 42 270 
3 42 249 270 
3 272 270 249 
3 272 249 271 
3 273 272 271 
3 273 271 251 
3 61 274 66 
3 61 66 0 
3 274 252 67 
3 66 274 67 
3 48 67 275 
3 67 252 275 
3 1 48 276 
3 1 276 70 
3 71 70 277 
3 277 278 71 
3 278 2 71 
3 278 73 2 
3 257 75 73 
3 43 76 257 
3 257 76 75 
3 76 43 279 
3 76 279 62 
3 280 62 279 
3 3 62 280 
3 280 63 281 
3 63 283 77 
3 63 77 281 
3 282 283 285 
3 284 286 282 
3 284 282 285 
3 287 80 286 
3 284 287 286 
3 287 288 80 
3 288 261 289 
3 80 288 289 
3 289 44 290 
3 44 263 290 
3 4 290 263 
3 4 291 82 
3 4 263 291 
3 82 291 264 
3 82 264 294 
3 293 294 292 
3 264 292 294 
3 292 295 293 
3 295 85 293 
3 45 86 295 
3 45 266 86 
3 46 88 296 
3 266 46 296 
3 88 46 64 
3 88 64 5 
3 297 64 269 
3 297 5 64 
3 47 297 269 
3 47 89 297 
3 47 270 298 
3 47 298 89 
3 299 270 272 
3 299 298 270 
3 299 272 6 
3 61 91 273 
